<?xml version="1.0" encoding="UTF-8"?>
<svg id="_레이어_1" data-name="레이어_1" xmlns="http://www.w3.org/2000/svg" version="1.1" viewBox="0 0 48 48">
  <!-- Generator: Adobe Illustrator 29.1.0, SVG Export Plug-In . SVG Version: 2.1.0 Build 142)  -->
  <defs>
    <style>
      .st0 {
        fill: none;
      }

      .st0, .st1 {
        stroke: #00549e;
        stroke-linecap: round;
        stroke-linejoin: round;
        stroke-width: 2px;
      }

      .st1 {
        fill: #ffb3cd;
      }
    </style>
  </defs>
  <path class="st1" d="M22.2,24.5v-2.6c0-2.4.4-3.9,2.1-4.9,1.4-.8,2.5-1.5,3.2-2.1,1-.9,1.3-1.6,1.3-2.7s-1.2-2.4-2.6-2.4-2.7.7-3.1,2c-.4,1.5-1.8,2.4-3.5,2.2-1.4,0-2.7-1.1-2.7-3,.1-3.8,4.2-6.8,9.3-6.8s9,2.5,9,7.9-.5,3.6-1.6,4.9c-.9,1.1-2.5,2.2-4,3.2-.9.6-1,1.2-1,2v2.1h-6.4ZM25.4,28.2c2.1,0,3.4,1.3,3.4,3.2s-1.3,3.2-3.4,3.2-3.4-1.2-3.4-3.2,1.3-3.2,3.4-3.2Z"/>
  <g>
    <g>
      <path class="st0" d="M1.2,30.9l7,7c2.7,2.7,7.1,2.7,9.8,0h0c2.7-2.7,2.7-7.1,0-9.8l-7-7"/>
      <line class="st0" x1="4.5" y1="27.6" x2="10.8" y2="33.9"/>
      <line class="st0" x1="7.7" y1="24.3" x2="14.1" y2="30.7"/>
      <rect class="st0" x="26" y="33.4" width="5.9" height="31" rx="2.9" ry="2.9" transform="translate(-26.1 34.8) rotate(-45)"/>
    </g>
    <g>
      <rect class="st0" x="18.5" y="33.3" width="6.1" height="31.6" rx="3.1" ry="3.1" transform="translate(41 -.9) rotate(45)"/>
      <path class="st0" d="M32.7,37.9c.7.6,1.4,1.1,2.3,1.4,2.5,1,5.6.6,7.7-1.1,2.1-1.7,3.4-4.1,3.8-6.7.3-2,0-4.6-1.4-6.1-1.5-1.4-4.1-1.7-6.1-1.4-2.7.4-5.1,1.8-6.7,3.8-1.7,2.1-2,5.2-1.1,7.7.3.9.8,1.6,1.4,2.3Z"/>
    </g>
  </g>
</svg>