<?xml version="1.0" encoding="UTF-8"?>
<svg id="_레이어_1" xmlns="http://www.w3.org/2000/svg" version="1.1" viewBox="0 0 48 48">
  <!-- Generator: Adobe Illustrator 29.1.0, SVG Export Plug-In . SVG Version: 2.1.0 Build 142)  -->
  <defs>
    <style>
      .st0, .st1 {
        stroke-width: 2px;
      }

      .st0, .st1, .st2 {
        stroke: #00549e;
        stroke-linecap: round;
        stroke-linejoin: round;
      }

      .st0, .st2 {
        fill: none;
      }

      .st1 {
        fill: #ffb3cd;
      }

      .st2 {
        stroke-width: 2px;
      }
    </style>
  </defs>
  <path class="st1" d="M22.2,24.5v-2.6c0-2.4.4-3.9,2.1-4.9,1.4-.8,2.5-1.5,3.2-2.1,1-.9,1.3-1.6,1.3-2.7s-1.2-2.4-2.6-2.4-2.7.7-3.1,2c-.4,1.5-1.8,2.4-3.5,2.2-1.4,0-2.7-1.1-2.7-3,.1-3.8,4.2-6.8,9.3-6.8s9,2.5,9,7.9-.5,3.6-1.6,4.9c-.9,1.1-2.5,2.2-4,3.2-.9.6-1,1.2-1,2v2.1h-6.4v.2ZM25.4,28.2c2.1,0,3.4,1.3,3.4,3.2s-1.3,3.2-3.4,3.2-3.4-1.2-3.4-3.2,1.3-3.2,3.4-3.2Z"/>
  <g>
    <g>
      <path class="st0" d="M1.2,30.9l7,7c2.7,2.7,7.1,2.7,9.8,0h0c2.7-2.7,2.7-7.1,0-9.8l-7-7"/>
      <line class="st0" x1="4.5" y1="27.6" x2="10.8" y2="33.9"/>
      <line class="st0" x1="7.7" y1="24.3" x2="14.1" y2="30.7"/>
      <path class="st2" d="M22.1,37.9l3.1,3.1-4.2,4.2-3.1-3.1c-1.1-1.1-1.1-3,0-4.1h0c1.1-1.2,3-1.2,4.1,0Z"/>
      <path class="st2" d="M39.9,59.8h0c-1.1,1.2-3,1.2-4.1,0l-10.4-10.4,4.2-4.2,10.4,10.4c1.1,1.1,1.1,3,0,4.1Z"/>
    </g>
    <g>
      <path class="st2" d="M32.7,42.2l-3.1,3.1-14.8,14.8c-1.2,1.2-3.2,1.2-4.4,0s-.9-1.4-.9-2.2.3-1.6.9-2.2l10.7-10.7,4.2-4.2,3.1-3.1c1.2-1.2,3.1-1.2,4.2-.1h0s.1.1.1.1c0,0,0,0,0,0,1.2,1.2,1.1,3.1,0,4.3Z"/>
      <path class="st2" d="M32.7,37.9h-.1c0,0,0,0,0,0s0,0,0,0Z"/>
      <path class="st0" d="M46.5,31.5c-.4,2.6-1.7,5-3.8,6.7-2.1,1.7-5.2,2.1-7.7,1.1-.9-.3-1.6-.8-2.3-1.4,0,0,0,0,0,0h-.1c0-.1,0-.1,0-.1-.6-.7-1.1-1.4-1.4-2.3-.9-2.5-.6-5.6,1.1-7.7,1.6-2,4-3.4,6.7-3.8,2-.3,4.6,0,6.1,1.4,1.4,1.5,1.7,4.1,1.4,6.1Z"/>
    </g>
  </g>
</svg>