<?xml version="1.0" encoding="UTF-8"?>
<svg id="_레이어_1" data-name="레이어_1" xmlns="http://www.w3.org/2000/svg" version="1.1" viewBox="0 0 100 100">
  <!-- Generator: Adobe Illustrator 29.1.0, SVG Export Plug-In . SVG Version: 2.1.0 Build 142)  -->
  <defs>
    <style>
      .st0 {
        fill: #00549e;
      }
    </style>
  </defs>
  <path class="st0" d="M63,23.2c-12.9-5.8-28.3-1.8-36.6,9.6-6.4,8.7-7.6,20.3-3.1,30.2-3.6,4.2-3.5,10.5.4,14.5,4,4,10.3,4,14.5.4,13.3,5.9,29.1,1.5,37.2-10.5,5.9-8.7,6.8-19.8,2.6-29.3,8.3-10.3-4.6-23.2-14.9-14.9ZM27.1,78.5c-5.4-2.5-7.1-9.7-3.1-14.1,2.7,5.4,7.3,10.1,12.8,12.8-2.5,2.4-6.5,2.8-9.6,1.4ZM75.7,64.3c-10.1,18.4-36.2,20.1-48.5,3-13.2-18.4-.7-44,21.7-45.3,22.3-1.3,37.5,22.7,26.8,42.4ZM77.1,36.7c-2.7-5.5-7.4-10-12.8-12.8,4.5-4,11.7-2.3,14.1,3.1,1.4,3.1,1.1,7.1-1.4,9.6Z"/>
  <path class="st0" d="M48.3,24.5c-19.9,1.4-30.6,24.6-19.2,41,11.8,16.8,37.9,14,45.6-5,7.4-18.3-6.9-37.3-26.4-35.9ZM71.4,63.8c-9.4,14.8-30.8,15.4-41,1.2-11.3-15.7-.9-37.9,18.3-39.2,20.2-1.4,33.7,20.8,22.8,38Z"/>
  <path class="st0" d="M38.7,38.8c.1.2.5.6.5.6,0,.1-1,1-.9,2.2,0,1,.9,1.7.9,1.8,0,0-.6.7-.7,1-.5,1.4.2,3.1,1.6,3.6.5.1,1,0,1.4.3.8.3,1,.9,2.1,1,1.9.1,2.3-1.2,3.4-1.2.7,0,1.5,1,2.2,1.1,1.7.3,1.9-.3,3.1-.9,1.4-.7,1.9.8,3.2.9,1.9.3,1.9-.6,3-1,1.3-.4,1.5.4,2.3.8,2.1.9,4.3-.7,3.9-3,0-.5-.8-1.3-.8-1.4,0-.2.6-.7.7-1.3.1-.5.1-1.1,0-1.7,0-.3-.7-1-.7-1.1,0-.1.3-.3.4-.4.5-.9.6-1.7.2-2.6-.1-.3-.6-.8-.6-1,0,0,.6-.8.7-1.1.3-1.4-.2-2.8-1.5-3.3-.6-.2-1-.2-1.5-.3-.8-.2-1.3-1.1-2.4-1.1-1.5,0-2.1,1.2-3.1,1.2-1.1,0-1.7-1.2-3-1.2-1.4,0-2,1.2-3.1,1.2-1,0-1.6-1.1-2.9-1.2-1.5,0-2.1,1.2-3.1,1.2-.9,0-1.4-.8-2.3-1-.4-.1-.8-.2-1.2-.1-1.6.2-2.6,1.8-2.2,3.4.1.4.8,1.2.8,1.3,0,0-.4.4-.5.5-.5.9-.6,1.8,0,2.7ZM61.7,47.8c-1-.4-1.1-1-2.5-1-1.3,0-1.4.5-2.3,1-1.5.7-1.9-.8-3.2-1-1.7-.3-1.7.4-2.8.9-1.6.8-2.1-.9-3.8-.9-1.3,0-1.4.5-2.3.9-1.4.7-1.6-.3-2.7-.7-.7-.3-1.6,0-2.1-.7-.7-.8-.3-2.1.8-2.3.9-.1,1.5.8,2.3,1,.9.3,1.8.1,2.6-.3.5-.3.5-.7,1.4-.7,1,0,1.5,1,2.7,1.1,1.7.1,1.6-.4,2.7-.9,1.4-.7,2,.8,3.4.9,1.9.2,2.4-1.3,3.8-1,.5,0,.9.6,1.4.8.6.3,1.5.2,2,.5,1.3.7.4,3-1.3,2.3ZM62.3,43.9c-1.1,0-1.6-1.2-3.1-1.2-1.4,0-2,1.1-2.9,1.2-1.1,0-1.8-1.2-3.3-1.2-1.3,0-1.9,1.1-2.8,1.2-1.2.1-1.8-1.2-3.2-1.2-1.5,0-2.1,1.3-3.3,1.2-.7,0-1.1-.7-1.7-.9-.8-.4-1.7,0-2.2-.8-.5-.7-.3-1.8.6-2.1,1.4-.4,2,1.2,3.6,1.2,1.2,0,1.6-.9,2.4-1.1,1.7-.5,2.3,1.8,4.7.9.8-.3,1.2-1,2.2-.9.9,0,1.4,1.2,2.7,1.2,1.6,0,2.1-1.4,3.5-1.2.5,0,1,.7,1.5.9.6.3,1.5.1,2,.5,1,.7.4,2.3-.8,2.3ZM62.5,39.9c-1.3.1-1.8-1.2-3.3-1.2-1.5,0-2,1.4-3.4,1.2-.8-.1-1.4-1.1-2.6-1.2-1.5,0-2.1,1.3-3.4,1.2-.8,0-1.5-1.1-2.7-1.2-1.3,0-2,1.2-3.1,1.2-1,0-1.2-.7-2-1-.5-.2-1.5-.1-1.9-.5-.8-.7-.4-2.1.7-2.3,1.1-.2,1.8,1.1,3.2,1.2,1.5,0,2.1-1.3,3.2-1.2,1,0,1.4,1.2,2.9,1.2,1.5,0,2.1-1.2,3.1-1.2,1,0,1.5,1.2,3,1.2,1.4,0,2-1.2,3-1.2.9,0,1.3.8,2.2,1.1.4.1.8,0,1.1.2,1.4.3,1.4,2.4,0,2.6ZM40.7,32.1c1-.1,1.6,1,2.7,1.1,1.7.2,1.7-.3,2.8-.9,1.4-.7,1.9.6,3,.9,1.7.4,2-.3,3.2-.9,1.5-.7,2,1,3.9.9,1.3,0,1.4-.7,2.2-1,1.4-.5,1.5.4,2.5.8.6.2,1.2,0,1.7.3.9.4,1,1.7.2,2.3-1.2.9-1.9-.5-2.9-.8-1.8-.5-2,.3-3.3.8-1.5.7-1.8-.7-3.2-.9-1.7-.2-1.8.4-2.9,1-1.4.6-2.1-1.1-4-1-1.6,0-2,1.7-3.6.9-1.3-.7-.9-.6-2.4-.9-1.6-.4-1.4-2.5,0-2.7Z"/>
  <path class="st0" d="M65.6,52.6c-1-1.1-2.4-1.3-3.7-.7-.7.4-4.1,2.8-4.6,3.4-.7,1-.4,2.2-.5,2.5,0,.1-2.1.9-2.4,1.2-.6-1.6-2.1-2.4-3.7-2-.4.1-2.2,1-2.4.9-2.4-4.8-10.7-8.3-14.2-2.8-4.4,6.9,4.4,18.6,12.2,15.5.3-.1,1.3-.8,1.4-.8.1,0,.5.5.7.7,2.2,1.5,4.3-.7,6.5-1.1.5,1.4,1.6,2.2,3.1,2.1,1,0,3.9-1.6,4.8-2.1.9-.5,1.8-1.2,1.9-2.3,0-.4,0-1.1,0-1.4,0-.1.8-.5,1.1-.6,2.2-1.5,5.7-3.2,4.3-6.3-.5-1-3.6-5.4-4.4-6.3ZM46.7,68.8c-4.1,3.2-9.9-1.5-11.6-5.4-1.6-3.7-1.2-9.4,3.8-9.8,6.9-.6,13.5,10.7,7.8,15.2ZM55.1,67.7c-.4.3-4.2,1.9-4.7,2-.5,0-1.9-.2-1.9-.8,0-.1.9-1.5,1-1.9,1-2.7.5-5.4-.6-8,2-.6,3-1.7,4.2.7.5,1.1,2.5,5.5,2.6,6.4,0,.6,0,1.2-.6,1.6ZM62.9,67.7l-4.5,2.4c-.9.2-1.6.1-2.1-.7-.6-.9,0-.8.3-1.4,1.4-2.3-1.2-5.6-1.8-7.9,1.2-.3,2.8-1.7,3.9-1.5.9.2,1.3,1.2,1.8,1.9.6,1,2.5,4.5,2.7,5.5.2.7,0,1.2-.4,1.7ZM68.7,61.2c-.2.4-3.6,2.9-4.1,3.1-.2.1-.4.2-.6.1-.3-.1-2.6-5.2-3.2-6-.6-.8-1.7-1.2-2.7-1.1,0-.3,0-.6,0-.9.2-.4,3.8-3.1,4.3-3.3.8-.4,1.5-.2,2.1.4.9.9,3.2,4.4,3.9,5.6.5.8.7,1.3.2,2.2Z"/>
  <path class="st0" d="M33.3,45.5c.4-.4,2.7-4.9,2.8-5.5.3-1.8-1.4-3.1-3.1-2.7-.7.2-1.2.8-1.6,1.4-.4.6-2.2,4-2.3,4.5-.4,2.5,2.4,4.1,4.1,2.3ZM30.5,43.4c.1-.4,1.9-3.8,2.2-4.2.9-1.3,2.4-.5,2.1.7-.3,1.3-1.9,3.2-2.4,4.6-.4.5-1.3.5-1.7,0-.3-.3-.3-.8-.2-1.1Z"/>
  <path class="st0" d="M68.7,43.8c-1.1.2-1.8,1.4-1.8,2.5,0,.9.8,4.7,1.2,5.5,1.1,2.5,4.9,1.7,4.7-1.4,0-.8-.9-4.9-1.3-5.5-.5-1-1.7-1.3-2.8-1.1ZM70.6,45.9c.2.6,1,4.2,1,4.8,0,1.2-1.5,1.7-2.1.6-.2-.4-1-4.3-1.1-4.9,0-.5,0-1.2.6-1.3.7-.2,1.3.2,1.6.9Z"/>
  <path class="st0" d="M30.4,48.1c-1.1.1-2.1,1.1-2.3,2.1-.5,3,3.2,4.4,4.8,2,1.3-1.9-.3-4.4-2.6-4.1ZM29.7,51.6c-1.1-1.5,1-2.8,2-1.8,1.3,1.3-.8,3.3-2,1.8Z"/>
  <path class="st0" d="M47.7,51.5c-.2,0-.4,0-.6,0-.5.2-.6.9,0,1.2.2.1,2.4,1,2.7,1.1,1,.2,1.3-.8.7-1.2-.2-.1-2.5-1-2.7-1.1Z"/>
  <path class="st0" d="M55.7,52c-.2,0-.3.1-.4.3-.2.2-1.7,2-1.8,2.2-.3.6.3,1.2.9.9.3-.2,1.9-2.1,2-2.4.2-.6-.1-1.1-.7-1Z"/>
  <path class="st0" d="M66.7,39c.1.1,2,1.4,2.2,1.5.8.2,1.2-.5.6-1.2-.3-.3-2.1-1.6-2.5-1.5-.5.1-.6.8-.2,1.2Z"/>
  <path class="st0" d="M34.6,47c-1.5.4,1,2.7,1.7,2.7.6,0,.7-.6.5-1.1,0-.1-1.5-1.5-1.6-1.6-.2,0-.4-.1-.6,0Z"/>
  <path class="st0" d="M48.9,29.3h2.3c.1,0,.5-.5.5-.7,0-.2-.4-.6-.5-.6h-2.3c-.5.2-.3,1.3,0,1.3Z"/>
  <path class="st0" d="M29.3,55.4c-.7.2-.2,2,0,2.5.3.8,1.2.7,1.3-.2,0-.7-.3-2.6-1.2-2.3Z"/>
  <path class="st0" d="M42.2,59.4c-5,.7-4.4,8.5.7,8.4,5.8,0,5.4-9.2-.7-8.4ZM43.5,66.4c-4.2.7-4.7-5.1-1.1-5.7,3.8-.6,4.5,5.1,1.1,5.7Z"/>
  <path class="st0" d="M64.5,58.2c-.1.7-.2,3.9,1.2,2.9.4-.4,0-3.1,0-3.2-.3-.3-1-.2-1.1.3Z"/>
  <path class="st0" d="M59.1,64.7c0,.6,0,1.7,0,2.3s.9.5,1.2.1c.2-.3.3-2.3.2-2.7-.1-.9-1.3-.8-1.4.3Z"/>
</svg>