<?xml version="1.0" encoding="UTF-8"?>
<svg id="_레이어_1" data-name="레이어_1" xmlns="http://www.w3.org/2000/svg" version="1.1" viewBox="0 0 100 100">
  <!-- Generator: Adobe Illustrator 29.1.0, SVG Export Plug-In . SVG Version: 2.1.0 Build 142)  -->
  <defs>
    <style>
      .st0 {
        fill: #00549e;
      }
    </style>
  </defs>
  <path class="st0" d="M54.8,80.1c0-.6-.1-3.2,0-3.4,5.4-.9,10.2-3.7,13.6-7.9,2.6-3.3,4.2-7.6,4.5-11.8,0-1.3.1-3.8,0-5,0-.3-.4-1-.8-1h-2.3v-2.2c0-.2-.4-1.3-.5-1.6-1.5-3.7-6-5.3-9.6-3.5-.5.2-1.5,1.2-1.8,1.2-.6.2-1.4.1-2.1.3-2.5.8-4.4,3-4.8,5.7h-2.1v-15.9h2v-2.1h-2v-2h29.1v-1.8l-.4-.2h-29.2c-.5,0-.7-.5-1.1-.6-1.1-.5-2.4-.3-3.3.4-1.2-1-2.8-1-4,0-1-.8-2.2-1-3.4-.4-.2.1-.7.6-.8.6h-3.8v2h2.9l.2.2v19.9h-11.3c-.4,0-.7.9-.8,1.2-.6,5,.7,10.9,3.4,15,3.3,5.1,8.5,8.6,14.6,9.5.5.3-.5,3.9.8,4.3h12.5c.3-.3.6-.3.7-.8ZM67.5,47.9c0,.2.3.9.3,1v1.8l-.2.2h-2.9c-.3-1.7-1.1-3.4-2.5-4.5-.5-.4-1.1-.6-1.6-1.1,2.6-1.2,5.7,0,6.8,2.6ZM62.8,50.8h-9.8c1.3-5.3,8.5-5.3,9.8,0ZM44.9,30.6c.2-1,1.8-1,2,0v11.7s-1.6,1.9-1.6,1.9l1.3,1.3.4-.2v5.5h-2v-20.2ZM40.9,30.6c.1-.7,1.1-1,1.7-.5,0,0,.3.5.3.5v20.2h-2v-20.2ZM36.9,30.5c.3-1.2,2-.6,2,0v20.2h-2v-12.5l.4.2,1.3-1.3-1.6-1.8c.1-1.4-.3-3.6,0-4.9ZM24.9,52.8h46.1v2H24.9v-2ZM27.9,64.8c-.3,0-.5,0-.8-.1-.2-.2-.9-1.8-1-2.2-.7-1.8-1-3.8-1.2-5.7h45.8c0,2.8-1,5.5-2.1,8h-2.8v-4h-6v4h-2v-4h-6v4h-2v-3.8l-.2-.2h-5.8v4h-2.1v-4h-5.8l-.2.2v3.8h-2v-4h-6v4ZM52.9,78.8h-10v-2h10v2ZM52.7,74.9c-8.8.5-17.7.4-23.6-7.2,0-.1-.6-.7-.5-.8h1.3v-4.1h2v3.9l.2.2h5.8v-3.9l.2-.2h1.8v3.9l.2.2h5.7l.2-.2v-3.9h1.8l.2.2v3.9h5.8l.2-.2v-3.9h2v4.1h6v-4.1h2v3.9l.2.2h3.2c-3.3,4.7-8.8,7.6-14.6,8Z"/>
  <path class="st0" d="M31.9,24.8v2c15.4-1.3,30.7-2.7,46.1-4v-2c-.1,0-46.1,4-46.1,4Z"/>
  <polygon class="st0" points="30.3 43.6 32.2 45.6 33.5 44.1 31.6 42.2 30.3 43.6"/>
</svg>