<?xml version="1.0" encoding="UTF-8"?>
<svg id="_레이어_1" data-name="레이어_1" xmlns="http://www.w3.org/2000/svg" version="1.1" viewBox="0 0 100 100">
  <!-- Generator: Adobe Illustrator 29.1.0, SVG Export Plug-In . SVG Version: 2.1.0 Build 142)  -->
  <defs>
    <style>
      .st0 {
        fill: #00549e;
      }
    </style>
  </defs>
  <path class="st0" d="M78.3,54.6c-.8-9.9-12.4-14.9-20.3-8.8-4.6-3.6-10.9-3.5-15.5,0-2.5-1.9-5.6-2.9-8.8-2.6-5.9.5-11,5.5-11.4,11.4-.2.3-1.8-.3-2,.9,0,.5,0,4,0,4.4.3,1,1.7.4,1.9.7.4,10.3,9,18.7,19.2,19.2,5.7-.2,11.7.3,17.4,0,10.3-.5,18.9-8.9,19.3-19.2.2-.3,1.6.3,1.9-.7.1-.5.1-3.7,0-4.3-.2-1.4-1.8-.7-2-1ZM76.5,54.7h-2.1c-.5-6.4-8.3-10-13.5-6.2h-.3s-1.1-1.4-1.1-1.4c6.6-5,16.1-.6,16.9,7.5ZM64.6,51c-.8.2-1.3.6-2,1.1-.1,0,0,.2-.2,0l-.6-1.8c4.1-3,10.1-.6,10.7,4.5h-1.9c-.5-2.7-3.2-4.4-5.9-3.7ZM68.5,54.7h-5.3c.8-2.6,4.5-2.6,5.3,0ZM44.6,46.7c6.8-4.4,15.5.1,16.4,8h-2.1c-.3-4.1-4-7.6-8.1-7.7-4.5-.2-8.7,3.2-9,7.7h-2.1c.4-3.3,2.1-6.2,4.9-8ZM45.7,54.7h-1.9c1.1-7.7,12.1-7.7,13.3,0h-1.9c-1.1-5.1-8.3-5.1-9.4,0ZM53,54.7h-5.3c.8-2.6,4.5-2.6,5.3,0ZM41.2,47.1l-1.1,1.4c-.2.1-.9-.4-1.1-.6-2.5-1.2-5.1-1.4-7.7-.2-2.6,1.2-4.8,4-4.9,6.9h-2.1c.8-8.1,10.3-12.6,16.9-7.5ZM36.2,51c-2.7-.7-5.4,1-5.9,3.7h-1.9c.6-5,6.6-7.5,10.7-4.5l-.6,1.8c-.2.2-.1,0-.2,0-.7-.4-1.1-.8-2-1.1ZM37.6,54.7h-5.3c.8-2.6,4.5-2.6,5.3,0ZM75.9,64.1c-2,7.7-8.9,13.4-16.9,13.8-5.7.3-11.8-.2-17.5,0-8.5-.6-15.6-6.9-16.9-15.3-.1-.7-.1-1.4-.3-2.1h52.2c-.2,1.2-.3,2.4-.6,3.6ZM78.4,58.6H22.4v-1.9h56v1.9Z"/>
  <path class="st0" d="M35.9,29.6v10c.1,1.2,1.2,2.4,2.5,2.6,2.6.3,5.8-.2,8.4,0,1,0,2.6-1.4,2.6-2.4v-10.2h28.6c.2,0,1-.4,1.2-.6,1.4-1.1,1.5-2.9.4-4.3,1.5-1.8.5-4.3-1.7-4.8h-43.2c-2.4.2-3.5,2.9-2,4.8-1.9,2.4.3,5.3,3.2,4.8ZM49.4,21.8h28.3c.8,0,.8,1.9,0,1.9h-28.3v-1.9ZM49.4,25.7h28.3c.8,0,.8,1.9,0,1.9h-28.3v-1.9ZM45.6,21.8h1.9v17.7c0,.7-1.4.8-1.9.7v-18.4ZM41.7,21.8h1.9v18.4h-1.9v-18.4ZM37.8,21.8h1.9v18.4c-.5,0-1.9,0-1.9-.7v-17.7ZM35.9,21.8v1.9c-2.6.5-2.6-2.4,0-1.9ZM35.9,25.7v1.9c-2.6.5-2.6-2.4,0-1.9Z"/>
  <path class="st0" d="M59.4,31.5c-2.7.3-4.9,2.6-5.2,5.3-.2,2.2.2,2.6,2.4,2.4,2.9-.3,5.2-2.6,5.4-5.5.2-2.3-.4-2.5-2.6-2.2ZM56.2,37.3c0-2.1,1.8-3.8,3.9-3.9,0,2.1-1.8,3.8-3.9,3.9Z"/>
  <path class="st0" d="M30,42.1c.6,0,.9-.3,1-.9.3-2.2-.7-4.6-2.6-5.8-1.1-.7-3.1-1.3-4.4-1-1.4.3-.5,3.5,0,4.5,1.1,2.3,3.6,3.5,6.1,3.2ZM29.1,40.2c-2.1,0-3.8-1.8-3.9-3.9,2.1,0,3.8,1.8,3.9,3.9Z"/>
  <path class="st0" d="M69.4,35.4c-1.4.3-.5,3.5,0,4.5,1.1,2.3,3.6,3.5,6.1,3.2.6,0,.9-.3,1-.9.3-2.2-.7-4.6-2.6-5.8-1.1-.7-3.1-1.3-4.4-1ZM70.7,37.3c2.1,0,3.8,1.8,3.9,3.9-2.1,0-3.8-1.8-3.9-3.9Z"/>
</svg>