<?xml version="1.0" encoding="UTF-8"?>
<svg id="_레이어_1" data-name="레이어_1" xmlns="http://www.w3.org/2000/svg" version="1.1" viewBox="0 0 100 100">
  <!-- Generator: Adobe Illustrator 29.1.0, SVG Export Plug-In . SVG Version: 2.1.0 Build 142)  -->
  <defs>
    <style>
      .st0 {
        fill: #00549e;
      }
    </style>
  </defs>
  <path class="st0" d="M63.5,43.7c-3-4.2-8.3-7.4-13.5-7.7-3.9-.2-6.4,1.9-6.8,5.8-1.9.5-3.7,1.3-5.5,2.2-1.7-2.1-3.4-3.3-5.9-4.1-.8-.2-2.1-.8-2.7-.1-.6.7-.3,4.5,0,5.6-3.5.9-8.4,3.2-8.8,7.3-.9,9.3,6.3,16.9,15.3,17.9,9.3,1,19,1,28.3.1,9.7-.9,17.3-8.1,16.2-18.3-.6-6.1-11.6-8.1-16.5-8.7ZM30.7,41.8c2.1.3,3.6,1.6,5,3.1.4.5.8,1.4,1.6,1.4.5,0,3.7-1.7,4.6-2,5-1.9,10.2-2.5,15.4-1.1,4.9,1.3,9.2,4.5,12.2,8.5,0,.3-5,3.1-5.7,3.4-3.4,1.2-4-2-3.6-4.6.1-.9,1.2-2.9,0-3.3-1.2-.3-1.4.5-1.7,1.4-.8,2.6-.9,5.9,1.2,7.9,0,.2-1.6.5-1.9.5-7.3,1.4-13.1-1.1-18.5-5.7-.5-.4-2.3-2.3-2.7-2.4-1-.2-1.4,1.2-2,1.9-.9,1.2-2.5,2.2-4,2.4.1-1.5,0-2.8.6-4.2.3-.8,1-1.3.7-2.2-.2-.7-1.4-1.9-1.4-2.8v-2.1ZM70.9,55.6c.4-.2.8-.8,1.2-.9,1.2-.3,1.7,1,.9,1.9-.7.8-3.5,2.3-3.7.5,0-1.2.9-1,1.6-1.5ZM68,59.1c-.7.4-2.4.8-2.6-.3-.2-1.1.8-1.4,1.8-1.6,1.5-.2,1.8,1.3.8,1.9ZM46.1,59.6c0,1.5-2.8,1.1-3.1,0-.1-.5,0-1.1.6-1.3.7-.2,2.5.2,2.5,1.2ZM40.6,59.5c-1.2,0-5.1-1.5-5.9-2.4-.5-.6-.5-1.5.4-1.7.8-.2,2,.8,2.9,1.2.9.4,2.5.5,3.2.9,1,.5.6,2-.5,2ZM30.7,56.2c.4,0,1.8.2,2,.5.8.7,0,1.8-.9,1.8-.3,0-1.3-.3-1.6-.5-.6-.5-.4-1.6.4-1.8ZM29.9,47.1l-1.1,2.8c-2.5,1-5.1,2.5-6.2,5.1-2.1-4.6,3.8-6.9,7.3-7.9ZM65,68.4c-9.4,1.1-20.2,1-29.6,0-5.8-.6-10.7-4.3-12.5-9.9l1.7,1c8.1,4.3,25.6,4.4,34.7,3.7,6-.5,12.9-1.4,17.9-4.8-1.7,5.5-6.5,9.3-12.2,10ZM77.6,55c-.3,0-.2,0-.3-.2-1-1.9-2.2-3-4-4-.8-.5-2.2-.8-2.9-1.3-.3-.2-.6-.7-.8-1-.7-.7-1.5-1.4-2.2-2.1,3,.4,9.7,2.4,10.4,5.8.2.9,0,1.8-.2,2.7Z"/>
  <path class="st0" d="M55.7,53.4c1.2-.6.6-2.2-.7-1.9v-1.2c1.1.5,2.2-.4,1.6-1.4-.4-.7-2.6-1.3-3.4-1.5-1-.2-2.4-.6-3.1.3-.8,1-1.5,4.9-.6,5.8.9.9,5.1.4,6.2-.1Z"/>
  <path class="st0" d="M64.7,49.3c-1.1-1-2.4.7-1.4,1.5,1,.9,2.4-.6,1.4-1.5Z"/>
</svg>