<?xml version="1.0" encoding="UTF-8"?>
<svg id="_레이어_1" data-name="레이어_1" xmlns="http://www.w3.org/2000/svg" version="1.1" viewBox="0 0 500 500">
  <!-- Generator: Adobe Illustrator 29.1.0, SVG Export Plug-In . SVG Version: 2.1.0 Build 142)  -->
  <defs>
    <style>
      .st0 {
        fill: #00549e;
      }
    </style>
  </defs>
  <g>
    <path class="st0" d="M80,48.2l-.7-4.5c-2.6-12.3-12.9-21.8-25.3-23.4-.7,0-1.5,0-2.2-.3h-3.7c-25.7,1.6-37.7,33.3-19.1,51.5,18.4,17.9,49.5,5.7,51-19.7v-3.5h0ZM73.9,64.7c-11.1,18.1-37.7,17.7-48.3-.7-10.5-18.1,1.9-41,22.7-42.2,22.6-1.3,37.5,23.5,25.6,42.9Z"/>
    <path class="st0" d="M64.9,31.7c-.8-.4-1.5-1.1-2.3-1.5-.4-.3-2.1-1.1-2.3-1.3-.2-.2-.3-.9-.5-1.2-.5-1.1-1.7-1.5-2.8-1-.3.1-.7.6-.9.6-.3,0-2-.5-2.5-.6-11.9-1.8-23.5,5.7-26.4,17.4-4.1,16.6,10.1,31.8,27,28.8,3.6-.6,6.9-2.2,9.8-4.3,0,.5.3.9.8.9h3.1c.5,0,.7-.4.8-.9.2-1.5-.2-3.3,0-4.8,4.4-5.9,5.8-13.6,3.7-20.7-.5-1.9-1.4-3.3-2.1-5-.7-1.8-1.2-3.9-2-5.7-.7-1.5-2.1-1.8-3.4-.8h0ZM55.6,34.6l2.3-6.2c.2,0,.2.2.3.3.9,1.8,1.3,4.2,2.1,6,0,.5-.3,1.1-.8,1.2h-3.1c-.5,0-.9-.8-.8-1.3ZM58.4,37.7v25.3h-.9v-25.3h.9ZM64,52.3c-.4-.5-1.2-.7-1.7,0-.8,1.1,1.3,2.1,1.7,3v11.1c-6.6,5.8-16.2,6.8-24,2.8-10.5-5.4-14.7-18.5-9.2-29.1,4.6-8.8,15-13.5,24.7-10.9-.4,2.7-3.7,6.8,0,8.4v10.1c-.4-.5-1.2-.7-1.7,0-.8,1.2,1.3,2.1,1.7,3v13.8c.2.4.4.6.9.7.5,0,3,0,3.4,0,.3-.2.4-.5.4-.9v-21c.4-.9,2.5-1.8,1.7-3-.4-.6-1.2-.4-1.7,0v-2.6c2.9-1.1,1.7-3.8.9-6l2.8,2v.4c-.3,1.6-1.8,4.1-1.8,5.7s.7,2.4,1.9,2.6v10.1h-.1ZM66.9,67.8h-.9v-25.3h.9v25.3ZM70.1,57.8l-1.3,2.7v-13c.6-.7,2.4-1.8,1.7-2.9-.4-.6-1.3-.4-1.7,0v-2.6l1.2-.6c2.1,5.2,2.2,10.9.2,16.2h0ZM67.9,40.5h-3.1c-.3,0-.7-.5-.8-.8l2.3-6.7c.2,0,.2.2.3.3.9,1.8,1.3,4.2,2.1,6,0,.5-.3,1.1-.8,1.2Z"/>
    <path class="st0" d="M48.6,50.2c5.9-2.1,7.9-9.3,4.2-14.3-3.9-5.3-12.3-4.8-15.6.9-2.3,4-1.4,8.9,2,11.9-6.8,2.5-8.2,11.5-2.6,16.1,4.6,3.8,11.6,2.2,14.3-3.1,2-4,.9-8.4-2.3-11.5ZM44.3,34c9-1,11.6,11.5,3.6,14.5-1.6.6-1.5.2-3-.2s-2.9,0-4.1-.8c-5.5-3.8-3.1-12.8,3.5-13.5ZM42.8,64.9c-9.6.4-10.5-14-1.3-15,10.5-1.1,11.3,14.5,1.3,15Z"/>
    <path class="st0" d="M51.7,32.1c1.5.2,1.4-2.2,0-1.8-.9.2-.8,1.7,0,1.8Z"/>
    <path class="st0" d="M32.9,44.3c1.5.2,1.4-2.2,0-1.8-.9.2-.8,1.7,0,1.8Z"/>
    <path class="st0" d="M31.9,49c-.9.2-.8,1.7,0,1.8,1.5.2,1.4-2.2,0-1.8Z"/>
    <path class="st0" d="M52.5,50.9c-.9.2-.8,1.7,0,1.8,1.5.2,1.4-2.2,0-1.8Z"/>
    <path class="st0" d="M53.5,65.9c-.9.2-.8,1.7,0,1.8,1.5.2,1.4-2.2,0-1.8Z"/>
    <path class="st0" d="M47.8,66.8c-.9.2-.8,1.7,0,1.8,1.5.2,1.4-2.2,0-1.8Z"/>
    <path class="st0" d="M47.7,45.3c.6.5,1.3,1.3,2,.7.4-.3.4-1,0-1.3-2.5-2.1-4.9-5.5-7.4-7.4-1.1-.9-2.2.2-1.5,1.2,2.4,2.1,4.5,4.8,6.9,6.9h0Z"/>
    <path class="st0" d="M43.5,46.7c.5.4,1,.7,1.5.2s.4-.9,0-1.2c-1.6-1.3-3.1-3.6-4.7-4.8-1.1-.8-2.1.2-1.5,1.2,1.6,1.3,3,3.3,4.6,4.6h.1Z"/>
    <path class="st0" d="M48.7,40.7c.6.5,1.2,1.2,1.9.5s.4-.9,0-1.2c-1.6-1.3-3.1-3.6-4.7-4.8-1.1-.8-2.1.2-1.5,1.2,1.4,1.3,2.8,3,4.2,4.2h0Z"/>
    <path class="st0" d="M39.2,52.8c-1-.4-1.8.6-1.1,1.5,2.5,2.1,4.8,5.3,7.3,7.3.5.4,1,.7,1.6.2.3-.3.4-1,0-1.3l-7.8-7.7Z"/>
    <path class="st0" d="M37.6,56.8c-.9-.8-2.1.2-1.5,1.2,1.9,1.6,3.6,4,5.5,5.5.5.4,1,.7,1.6.2.3-.3.4-1,0-1.3l-5.7-5.7h.1Z"/>
    <path class="st0" d="M43.2,51.2c-1.1-.8-2.1.2-1.5,1.2,1.6,1.3,3,3.3,4.6,4.6.5.4,1,.7,1.6.2.3-.3.4-1,0-1.3-1.6-1.3-3.1-3.6-4.7-4.8h0Z"/>
  </g>
  <g>
    <path class="st0" d="M162.4,22.7c-12.9-5.8-28.3-1.8-36.6,9.6-6.4,8.7-7.6,20.3-3.1,30.2-3.6,4.2-3.5,10.5.4,14.5,4,4,10.3,4,14.5.4,13.3,5.9,29.1,1.5,37.2-10.5,5.9-8.7,6.8-19.8,2.6-29.3,8.3-10.3-4.6-23.2-14.9-14.9h0ZM126.5,78c-5.4-2.5-7.1-9.7-3.1-14.1,2.7,5.4,7.3,10.1,12.8,12.8-2.5,2.4-6.5,2.8-9.6,1.4h0ZM175.1,63.8c-10.1,18.4-36.2,20.1-48.5,3-13.2-18.4-.7-44,21.7-45.3,22.3-1.3,37.5,22.7,26.8,42.4h0ZM176.5,36.2c-2.7-5.5-7.4-10-12.8-12.8,4.5-4,11.7-2.3,14.1,3.1,1.4,3.1,1.1,7.1-1.4,9.6h.1Z"/>
    <path class="st0" d="M147.7,24c-19.9,1.4-30.6,24.6-19.2,41,11.8,16.8,37.9,14,45.6-5,7.4-18.3-6.9-37.3-26.4-35.9h0ZM170.8,63.3c-9.4,14.8-30.8,15.4-41,1.2-11.3-15.7-.9-37.9,18.3-39.2,20.2-1.4,33.7,20.8,22.8,38h0Z"/>
    <path class="st0" d="M138.1,38.3c0,.2.5.6.5.6,0,0-1,1-.9,2.2,0,1,.9,1.7.9,1.8,0,0-.6.7-.7,1-.5,1.4.2,3.1,1.6,3.6.5,0,1,0,1.4.3.8.3,1,.9,2.1,1,1.9,0,2.3-1.2,3.4-1.2s1.5,1,2.2,1.1c1.7.3,1.9-.3,3.1-.9,1.4-.7,1.9.8,3.2.9,1.9.3,1.9-.6,3-1,1.3-.4,1.5.4,2.3.8,2.1.9,4.3-.7,3.9-3,0-.5-.8-1.3-.8-1.4,0-.2.6-.7.7-1.3,0-.5,0-1.1,0-1.7,0-.3-.7-1-.7-1.1s.3-.3.4-.4c.5-.9.6-1.7.2-2.6,0-.3-.6-.8-.6-1,0,0,.6-.8.7-1.1.3-1.4-.2-2.8-1.5-3.3-.6-.2-1-.2-1.5-.3-.8-.2-1.3-1.1-2.4-1.1s-2.1,1.2-3.1,1.2-1.7-1.2-3-1.2-2,1.2-3.1,1.2-1.6-1.1-2.9-1.2c-1.5,0-2.1,1.2-3.1,1.2s-1.4-.8-2.3-1c-.4-.1-.8-.2-1.2-.1-1.6.2-2.6,1.8-2.2,3.4,0,.4.8,1.2.8,1.3l-.5.5c-.5.9-.6,1.8,0,2.7h.1ZM161.1,47.3c-1-.4-1.1-1-2.5-1s-1.4.5-2.3,1c-1.5.7-1.9-.8-3.2-1-1.7-.3-1.7.4-2.8.9-1.6.8-2.1-.9-3.8-.9s-1.4.5-2.3.9c-1.4.7-1.6-.3-2.7-.7-.7-.3-1.6,0-2.1-.7-.7-.8-.3-2.1.8-2.3.9,0,1.5.8,2.3,1,.9.3,1.8,0,2.6-.3.5-.3.5-.7,1.4-.7s1.5,1,2.7,1.1c1.7,0,1.6-.4,2.7-.9,1.4-.7,2,.8,3.4.9,1.9.2,2.4-1.3,3.8-1,.5,0,.9.6,1.4.8.6.3,1.5.2,2,.5,1.3.7.4,3-1.3,2.3h-.1ZM161.7,43.4c-1.1,0-1.6-1.2-3.1-1.2s-2,1.1-2.9,1.2c-1.1,0-1.8-1.2-3.3-1.2s-1.9,1.1-2.8,1.2c-1.2,0-1.8-1.2-3.2-1.2s-2.1,1.3-3.3,1.2c-.7,0-1.1-.7-1.7-.9-.8-.4-1.7,0-2.2-.8-.5-.7-.3-1.8.6-2.1,1.4-.4,2,1.2,3.6,1.2s1.6-.9,2.4-1.1c1.7-.5,2.3,1.8,4.7.9.8-.3,1.2-1,2.2-.9.9,0,1.4,1.2,2.7,1.2s2.1-1.4,3.5-1.2c.5,0,1,.7,1.5.9.6.3,1.5,0,2,.5,1,.7.4,2.3-.8,2.3h0ZM161.9,39.4c-1.3,0-1.8-1.2-3.3-1.2s-2,1.4-3.4,1.2c-.8,0-1.4-1.1-2.6-1.2-1.5,0-2.1,1.3-3.4,1.2-.8,0-1.5-1.1-2.7-1.2-1.3,0-2,1.2-3.1,1.2s-1.2-.7-2-1c-.5-.2-1.5,0-1.9-.5-.8-.7-.4-2.1.7-2.3,1.1-.2,1.8,1.1,3.2,1.2,1.5,0,2.1-1.3,3.2-1.2,1,0,1.4,1.2,2.9,1.2s2.1-1.2,3.1-1.2,1.5,1.2,3,1.2,2-1.2,3-1.2,1.3.8,2.2,1.1c.4,0,.8,0,1.1.2,1.4.3,1.4,2.4,0,2.6h0ZM140.1,31.6c1-.1,1.6,1,2.7,1.1,1.7.2,1.7-.3,2.8-.9,1.4-.7,1.9.6,3,.9,1.7.4,2-.3,3.2-.9,1.5-.7,2,1,3.9.9,1.3,0,1.4-.7,2.2-1,1.4-.5,1.5.4,2.5.8.6.2,1.2,0,1.7.3.9.4,1,1.7.2,2.3-1.2.9-1.9-.5-2.9-.8-1.8-.5-2,.3-3.3.8-1.5.7-1.8-.7-3.2-.9-1.7-.2-1.8.4-2.9,1-1.4.6-2.1-1.1-4-1-1.6,0-2,1.7-3.6.9-1.3-.7-.9-.6-2.4-.9-1.6-.4-1.4-2.5,0-2.7h0Z"/>
    <path class="st0" d="M165,52.1c-1-1.1-2.4-1.3-3.7-.7-.7.4-4.1,2.8-4.6,3.4-.7,1-.4,2.2-.5,2.5,0,0-2.1.9-2.4,1.2-.6-1.6-2.1-2.4-3.7-2-.4,0-2.2,1-2.4.9-2.4-4.8-10.7-8.3-14.2-2.8-4.4,6.9,4.4,18.6,12.2,15.5.3,0,1.3-.8,1.4-.8s.5.5.7.7c2.2,1.5,4.3-.7,6.5-1.1.5,1.4,1.6,2.2,3.1,2.1,1,0,3.9-1.6,4.8-2.1.9-.5,1.8-1.2,1.9-2.3v-1.4c0,0,.8-.5,1.1-.6,2.2-1.5,5.7-3.2,4.3-6.3-.5-1-3.6-5.4-4.4-6.3h0ZM146.1,68.3c-4.1,3.2-9.9-1.5-11.6-5.4-1.6-3.7-1.2-9.4,3.8-9.8,6.9-.6,13.5,10.7,7.8,15.2ZM154.5,67.2c-.4.3-4.2,1.9-4.7,2-.5,0-1.9-.2-1.9-.8s.9-1.5,1-1.9c1-2.7.5-5.4-.6-8,2-.6,3-1.7,4.2.7.5,1.1,2.5,5.5,2.6,6.4,0,.6,0,1.2-.6,1.6ZM162.3,67.2l-4.5,2.4c-.9.2-1.6,0-2.1-.7-.6-.9,0-.8.3-1.4,1.4-2.3-1.2-5.6-1.8-7.9,1.2-.3,2.8-1.7,3.9-1.5.9.2,1.3,1.2,1.8,1.9.6,1,2.5,4.5,2.7,5.5.2.7,0,1.2-.4,1.7h0ZM168.1,60.7c-.2.4-3.6,2.9-4.1,3.1-.2,0-.4.2-.6,0-.3,0-2.6-5.2-3.2-6-.6-.8-1.7-1.2-2.7-1.1v-.9c.2-.4,3.8-3.1,4.3-3.3.8-.4,1.5-.2,2.1.4.9.9,3.2,4.4,3.9,5.6.5.8.7,1.3.2,2.2h0Z"/>
    <path class="st0" d="M132.7,45c.4-.4,2.7-4.9,2.8-5.5.3-1.8-1.4-3.1-3.1-2.7-.7.2-1.2.8-1.6,1.4-.4.6-2.2,4-2.3,4.5-.4,2.5,2.4,4.1,4.1,2.3h0ZM129.9,42.9c.1-.4,1.9-3.8,2.2-4.2.9-1.3,2.4-.5,2.1.7-.3,1.3-1.9,3.2-2.4,4.6-.4.5-1.3.5-1.7,0-.3-.3-.3-.8-.2-1.1Z"/>
    <path class="st0" d="M168.1,43.3c-1.1.2-1.8,1.4-1.8,2.5s.8,4.7,1.2,5.5c1.1,2.5,4.9,1.7,4.7-1.4,0-.8-.9-4.9-1.3-5.5-.5-1-1.7-1.3-2.8-1.1h0ZM170,45.4c.2.6,1,4.2,1,4.8,0,1.2-1.5,1.7-2.1.6-.2-.4-1-4.3-1.1-4.9,0-.5,0-1.2.6-1.3.7-.2,1.3.2,1.6.9h0Z"/>
    <path class="st0" d="M129.8,47.6c-1.1,0-2.1,1.1-2.3,2.1-.5,3,3.2,4.4,4.8,2,1.3-1.9-.3-4.4-2.6-4.1h0ZM129.1,51.1c-1.1-1.5,1-2.8,2-1.8s-.8,3.3-2,1.8Z"/>
    <path class="st0" d="M147.1,51h-.6c-.5.2-.6.9,0,1.2.2,0,2.4,1,2.7,1.1,1,.2,1.3-.8.7-1.2-.2,0-2.5-1-2.7-1.1h-.1Z"/>
    <path class="st0" d="M155.1,51.5c-.2,0-.3,0-.4.3-.2.2-1.7,2-1.8,2.2-.3.6.3,1.2.9.9.3-.2,1.9-2.1,2-2.4.2-.6,0-1.1-.7-1Z"/>
    <path class="st0" d="M166.1,38.5c0,0,2,1.4,2.2,1.5.8.2,1.2-.5.6-1.2-.3-.3-2.1-1.6-2.5-1.5-.5,0-.6.8-.2,1.2h0Z"/>
    <path class="st0" d="M134,46.5c-1.5.4,1,2.7,1.7,2.7s.7-.6.5-1.1c0,0-1.5-1.5-1.6-1.6-.2,0-.4,0-.6,0Z"/>
    <path class="st0" d="M148.3,28.8h2.3c0,0,.5-.5.5-.7s-.4-.6-.5-.6h-2.3c-.5.2-.3,1.3,0,1.3Z"/>
    <path class="st0" d="M128.7,54.9c-.7.2-.2,2,0,2.5.3.8,1.2.7,1.3-.2,0-.7-.3-2.6-1.2-2.3h0Z"/>
    <path class="st0" d="M141.6,58.9c-5,.7-4.4,8.5.7,8.4,5.8,0,5.4-9.2-.7-8.4ZM142.9,65.9c-4.2.7-4.7-5.1-1.1-5.7,3.8-.6,4.5,5.1,1.1,5.7Z"/>
    <path class="st0" d="M163.9,57.7c0,.7-.2,3.9,1.2,2.9.4-.4,0-3.1,0-3.2-.3-.3-1-.2-1.1.3h0Z"/>
    <path class="st0" d="M158.5,64.2v2.3c0,.6.9.5,1.2,0,.2-.3.3-2.3.2-2.7,0-.9-1.3-.8-1.4.3Z"/>
  </g>
  <g>
    <path class="st0" d="M254.4,79.2c0-.6,0-3.2,0-3.4,5.4-.9,10.2-3.7,13.6-7.9,2.6-3.3,4.2-7.6,4.5-11.8,0-1.3,0-3.8,0-5,0-.3-.4-1-.8-1h-2.3v-2.2c0-.2-.4-1.3-.5-1.6-1.5-3.7-6-5.3-9.6-3.5-.5.2-1.5,1.2-1.8,1.2-.6.2-1.4,0-2.1.3-2.5.8-4.4,3-4.8,5.7h-2.1v-15.9h2v-2.1h-2v-2h29.1v-1.8l-.4-.2h-29.2c-.5,0-.7-.5-1.1-.6-1.1-.5-2.4-.3-3.3.4-1.2-1-2.8-1-4,0-1-.8-2.2-1-3.4-.4s-.7.6-.8.6h-3.8v2h2.9l.2.2v19.9h-11.3c-.4,0-.7.9-.8,1.2-.6,5,.7,10.9,3.4,15,3.3,5.1,8.5,8.6,14.6,9.5.5.3-.5,3.9.8,4.3h12.5c.3-.3.6-.3.7-.8h-.2ZM267.1,47c0,.2.3.9.3,1v1.8l-.2.2h-2.9c-.3-1.7-1.1-3.4-2.5-4.5-.5-.4-1.1-.6-1.6-1.1,2.6-1.2,5.7,0,6.8,2.6h0ZM262.4,49.9h-9.8c1.3-5.3,8.5-5.3,9.8,0ZM244.5,29.7c.2-1,1.8-1,2,0v11.7l-1.6,1.9,1.3,1.3.4-.2v5.5h-2v-20.2h-.1ZM240.5,29.7c0-.7,1.1-1,1.7-.5l.3.5v20.2h-2v-20.2ZM236.5,29.6c.3-1.2,2-.6,2,0v20.2h-2v-12.5l.4.2,1.3-1.3-1.6-1.8c0-1.4-.3-3.6,0-4.9h-.1ZM224.5,51.9h46.1v2h-46.1v-2ZM227.5,63.9c-.3,0-.5,0-.8,0-.2-.2-.9-1.8-1-2.2-.7-1.8-1-3.8-1.2-5.7h45.8c0,2.8-1,5.5-2.1,8h-2.8v-4h-6v4h-2v-4h-6v4h-2v-3.8l-.2-.2h-5.8v4h-2.1v-4h-5.8l-.2.2v3.8h-2v-4h-6v4h.2ZM252.5,77.9h-10v-2h10v2ZM252.3,74c-8.8.5-17.7.4-23.6-7.2,0,0-.6-.7-.5-.8h1.3v-4.1h2v3.9l.2.2h5.8v-3.9l.2-.2h1.8v3.9l.2.2h5.7l.2-.2v-3.9h1.8l.2.2v3.9h5.8l.2-.2v-3.9h2v4.1h6v-4.1h2v3.9l.2.2h3.2c-3.3,4.7-8.8,7.6-14.6,8h0Z"/>
    <path class="st0" d="M231.5,23.9v2c15.4-1.3,30.7-2.7,46.1-4v-2c0,0-46.1,4-46.1,4Z"/>
    <polygon class="st0" points="229.9 42.7 231.8 44.7 233.1 43.2 231.2 41.3 229.9 42.7"/>
  </g>
  <g>
    <path class="st0" d="M380,53.1c-.6-2.2-2.7-3.4-4.6-4.2-3.8-1.7-8.2-2.4-12.3-3l12.3-17c2.5-3.7-2.7-7-5.5-3.9l-7.3,9.9c1-3.3,2.4-6.6,3.4-9.9.8-2.6.2-4.3-2.5-5.1h-1.1c-1.1.4-1.9.9-2.3,2l-6.8,20.3c-.5,0-1.2.6-1.4-.2l.9-9.8c-.2-1.3-1.1-2.4-2.5-2.5h-9.9c-.8-1.3-.6-2.7-2.1-3.5-1.4-.8-2.5-.2-3.8.3-2.6,1-6,2.3-8.5,3.5-4.1,2-1.1,5.9-.6,9.1-.5.4-1,.7-1.4,1.2-.8,1-1.9,4.2-2,5.5-.1,1.5,0,3,.3,4.4-.8.7-1.8,1.5-2.1,2.5-.5,1.4,0,4.2.3,5.8,1.9,9.2,9.6,16.1,18.8,17.5,0,1.7-.3,3.8,1.9,4h17.7c2.1-.4,1.7-2.4,1.7-4,9.2-1.3,16.8-8.2,18.8-17.3.2-1,.5-2.4.5-3.4v-2.1h0ZM372.3,57.7l-1.5.4c-1.1-4.6-5.3-7.9-10.1-7.1l-.2-1.5c5.8-2,11.9,2.2,11.8,8.3h0ZM351.5,58.7l-1.1-1.6c4.3-4.1,11.7-3,14.6,2.2l-2,.3c-2.7-3.6-8.2-4.1-11.5-.9ZM360.4,59.9l-7.8.6c-.3-.2,1.4-1.3,1.6-1.4,2.1-1,4.4-.8,6.2.7h0ZM335.3,59.4l-2.1-.3,1.2-1.6c4.8-4.7,13.1-3.2,15.6,3.1h-2c-2.8-4.6-9.2-5.2-12.8-1.1h0ZM345.5,60.4l-7.6-.6c2.2-1.8,5.8-1.5,7.6.6ZM349,55.7c-2-1.7-4.5-2.8-7.2-3,.3-.5.3-1.1.4-1.7,0-.2,0-.3.2-.3.3,0,.6.7.9.9,1.1,1,2.8,1.3,4.2.7.7.7,1.2,1.1,2.1,1.2h.7l.4.6-1.8,1.3v.3ZM362,54c-.6-.3-1.3-.5-1.9-.7,0,0-.2,0-.2-.2,4.1-1.1,8.1,1.5,8.9,5.6l-1.9.3c-1-2.1-3-4-5-5h.1ZM371.8,25.9c.6-.4,1.5-.2,2,.3,1,1-.6,2.1-1,3-.3.2-2.1-1.2-2.4-1.5,0-.3,1.1-1.7,1.4-1.8ZM369.2,29.4l2.4,1.6-10.6,14.6c-.7.4-1.2-.7-1.7-1l1.2-3.4,8.7-11.8ZM363.5,21.9c1.6.3.9,2.2.4,3.2l-2.5-.8c.5-1.1.4-2.8,2-2.4h.1ZM360.8,26.2l2.6.7-6,17.1c-.2-.3-.5-.7-.8-.9-.3-.3-1-.4-1-.9l5.3-16h0ZM352.5,51.4c2.1,1.1,4.6-.6,4.3-2.9-.2-2.1-2.5-3.2-4.3-2.2-.3-.3.5-1.6.5-2.1,1.5-.6,2.7.3,3.2,1.7,2.8-.3,3.4,1.2,1.3,2.9,0,.3,1.1,1,1.2,1.4.5,1.6-1.4,1.6-2.4,1.5l-.5.9c-.7,0-2.6.8-3.1.5-.4-.2-.8-1.1-1-1.4-.4,0-2.6,0-2.3-.7.2-.6,1.4-.2,1.9-.7.5.2.7.7,1.2,1h0ZM353.5,48c1.4-.4,1.8,1.5.7,1.8-1.4.4-1.7-1.5-.7-1.8ZM350.9,48.1c-.2,1.1-1.8.7-2.5.8-.8,2.5-3.7,2.5-4.5,0h-1.7l-.6-1.8,1-1.2c-2.1-1.7-1.5-3.2,1.3-2.9.8-2.5,3.7-2.5,4.5,0,2.8-.3,3.4,1.2,1.3,2.9.4.8,1.5,1.1,1.3,2.2h0ZM350.3,31.4c0,0,.6.4.6.6l-.7,8.9c-.4.9-.9-.3-1.3-.6-1.1-1-2.6-1.3-4-.9-.5,0-.9.5-1.4.6l-2.6-8.6h9.4ZM326.9,31.7c3-1.5,6.6-2.5,9.7-4,.5-.2.9,0,1.2.4l4.2,13.2c-.7,0-1.2.4-1.7.9l-.9,1.6c-3-3.3-7.4-5.9-12-5.3l-1.4-4.8c-.2-1,0-1.5.9-1.9h0ZM328.5,40.1c4.9-.2,12.7,5.8,11.8,11.1-.3,2-2.2,1.8-3.7,2.4-4.4,0-9.2-3.5-11-7.4-1.3-2.9-.8-5.9,2.9-6.1ZM325.3,49.5c1.5,1.8,3.3,3.4,5.4,4.5l3.2,1.4c-5,1-9.8-3.1-10.1-8.1l1.4,2.2h.1ZM322.4,52.7c.1,0,.8-.9.9-.8,1.5,3.3,5,5.3,8.6,5.6l-.6,1c-2.4-.6-5-1.2-7.1-2.5-1.2-.7-2.9-1.9-1.8-3.4h0ZM358.7,77.8h-17.3v-1.9h17.3v1.9ZM359.8,74.1c-6.4.4-13.2-.3-19.7,0-7.1-.8-13.5-5.3-16.3-11.9,0-.2.2,0,.3,0,10.2,4.5,25.6,4.8,36.6,3.7,5.3-.5,10.7-1.6,15.5-3.7-2.5,6.3-9.6,11.5-16.5,12h0ZM376.1,59.8c-6.8,4.2-21.6,4.7-29.4,4.4-6.5-.2-17.1-1-22.7-4.4-1.2-.7-1.5-1.1-1.7-2.6l2.6,1.4c9.5,4.2,26.7,4.3,37,3.1,5.4-.6,11.2-1.7,15.9-4.6-.2,1.5-.4,1.9-1.6,2.6h0ZM374.2,56.9c0-2.2-1-4.4-2.4-6.1l-1.7-1.6c2,.5,6.9,1.9,7.8,3.9.9,1.9-2.3,3.4-3.7,3.9h0Z"/>
    <path class="st0" d="M338.2,38.9c0,0,.2,0,0-.2l-3.7-7.6-1.7.7,3.8,7.8c.5-.3,1-.5,1.5-.8h0Z"/>
    <polygon class="st0" points="332.4 36.8 330.5 33 328.8 33.8 330.7 37.7 332.4 36.8"/>
    <path class="st0" d="M332.1,49.8c4.9-.5,4.2-8.4-1.1-7.7-4.8.6-4,8.2,1.1,7.7ZM331.6,44c2.7,0,2.7,4.3-.4,3.8-2.1-.3-1.9-3.8.4-3.8Z"/>
    <rect class="st0" x="345.2" y="33.4" width="1.9" height="3.9"/>
    <path class="st0" d="M345.8,43.1c-4.1.6-2.7,7,1.3,5.7,3.3-1.1,2.1-6.1-1.3-5.7ZM346.4,46.9c-1.4.3-1.6-1.6-.5-1.8,1.4-.3,1.6,1.6.5,1.8Z"/>
  </g>
  <g>
    <path class="st0" d="M478,54.7c-.8-9.9-12.4-14.9-20.3-8.8-4.6-3.6-10.9-3.5-15.5,0-2.5-1.9-5.6-2.9-8.8-2.6-5.9.5-11,5.5-11.4,11.4-.2.3-1.8-.3-2,.9v4.4c.3,1,1.7.4,1.9.7.4,10.3,9,18.7,19.2,19.2,5.7-.2,11.7.3,17.4,0,10.3-.5,18.9-8.9,19.3-19.2.2-.3,1.6.3,1.9-.7,0-.5,0-3.7,0-4.3-.2-1.4-1.8-.7-2-1h.3ZM476.2,54.8h-2.1c-.5-6.4-8.3-10-13.5-6.2h-.3l-1.1-1.4c6.6-5,16.1-.6,16.9,7.5h0ZM464.3,51.1c-.8.2-1.3.6-2,1.1,0,0,0,.2-.2,0l-.6-1.8c4.1-3,10.1-.6,10.7,4.5h-1.9c-.5-2.7-3.2-4.4-5.9-3.7h0ZM468.2,54.8h-5.3c.8-2.6,4.5-2.6,5.3,0ZM444.3,46.8c6.8-4.4,15.5,0,16.4,8h-2.1c-.3-4.1-4-7.6-8.1-7.7-4.5-.2-8.7,3.2-9,7.7h-2.1c.4-3.3,2.1-6.2,4.9-8ZM445.4,54.8h-1.9c1.1-7.7,12.1-7.7,13.3,0h-1.9c-1.1-5.1-8.3-5.1-9.4,0h0ZM452.7,54.8h-5.3c.8-2.6,4.5-2.6,5.3,0ZM440.9,47.2l-1.1,1.4c-.2,0-.9-.4-1.1-.6-2.5-1.2-5.1-1.4-7.7-.2-2.6,1.2-4.8,4-4.9,6.9h-2.1c.8-8.1,10.3-12.6,16.9-7.5ZM435.9,51.1c-2.7-.7-5.4,1-5.9,3.7h-1.9c.6-5,6.6-7.5,10.7-4.5l-.6,1.8c-.2.2,0,0-.2,0-.7-.4-1.1-.8-2-1.1h-.1ZM437.3,54.8h-5.3c.8-2.6,4.5-2.6,5.3,0ZM475.6,64.2c-2,7.7-8.9,13.4-16.9,13.8-5.7.3-11.8-.2-17.5,0-8.5-.6-15.6-6.9-16.9-15.3-.1-.7-.1-1.4-.3-2.1h52.2c-.2,1.2-.3,2.4-.6,3.6ZM478.1,58.7h-56v-1.9h56v1.9Z"/>
    <path class="st0" d="M435.6,29.7v10c0,1.2,1.2,2.4,2.5,2.6,2.6.3,5.8-.2,8.4,0,1,0,2.6-1.4,2.6-2.4v-10.2h28.6c.2,0,1-.4,1.2-.6,1.4-1.1,1.5-2.9.4-4.3,1.5-1.8.5-4.3-1.7-4.8h-43.2c-2.4.2-3.5,2.9-2,4.8-1.9,2.4.3,5.3,3.2,4.8h0ZM449.1,21.9h28.3c.8,0,.8,1.9,0,1.9h-28.3s0-1.9,0-1.9ZM449.1,25.8h28.3c.8,0,.8,1.9,0,1.9h-28.3s0-1.9,0-1.9ZM445.3,21.9h1.9v17.7c0,.7-1.4.8-1.9.7v-18.4ZM441.4,21.9h1.9v18.4h-1.9s0-18.4,0-18.4ZM437.5,21.9h1.9v18.4c-.5,0-1.9,0-1.9-.7,0,0,0-17.7,0-17.7ZM435.6,21.9v1.9c-2.6.5-2.6-2.4,0-1.9ZM435.6,25.8v1.9c-2.6.5-2.6-2.4,0-1.9Z"/>
    <path class="st0" d="M459.1,31.6c-2.7.3-4.9,2.6-5.2,5.3-.2,2.2.2,2.6,2.4,2.4,2.9-.3,5.2-2.6,5.4-5.5.2-2.3-.4-2.5-2.6-2.2ZM455.9,37.4c0-2.1,1.8-3.8,3.9-3.9,0,2.1-1.8,3.8-3.9,3.9Z"/>
    <path class="st0" d="M429.7,42.2c.6,0,.9-.3,1-.9.3-2.2-.7-4.6-2.6-5.8-1.1-.7-3.1-1.3-4.4-1-1.4.3-.5,3.5,0,4.5,1.1,2.3,3.6,3.5,6.1,3.2h-.1ZM428.8,40.3c-2.1,0-3.8-1.8-3.9-3.9,2.1,0,3.8,1.8,3.9,3.9Z"/>
    <path class="st0" d="M469.1,35.5c-1.4.3-.5,3.5,0,4.5,1.1,2.3,3.6,3.5,6.1,3.2.6,0,.9-.3,1-.9.3-2.2-.7-4.6-2.6-5.8-1.1-.7-3.1-1.3-4.4-1h0ZM470.4,37.4c2.1,0,3.8,1.8,3.9,3.9-2.1,0-3.8-1.8-3.9-3.9Z"/>
  </g>
  <g>
    <path class="st0" d="M63.3,140c-3-4.2-8.3-7.4-13.5-7.7-3.9-.2-6.4,1.9-6.8,5.8-1.9.5-3.7,1.3-5.5,2.2-1.7-2.1-3.4-3.3-5.9-4.1-.8-.2-2.1-.8-2.7,0s-.3,4.5,0,5.6c-3.5.9-8.4,3.2-8.8,7.3-.9,9.3,6.3,16.9,15.3,17.9,9.3,1,19,1,28.3,0,9.7-.9,17.3-8.1,16.2-18.3-.6-6.1-11.6-8.1-16.5-8.7h0ZM30.5,138.1c2.1.3,3.6,1.6,5,3.1.4.5.8,1.4,1.6,1.4s3.7-1.7,4.6-2c5-1.9,10.2-2.5,15.4-1.1,4.9,1.3,9.2,4.5,12.2,8.5,0,.3-5,3.1-5.7,3.4-3.4,1.2-4-2-3.6-4.6,0-.9,1.2-2.9,0-3.3-1.2-.3-1.4.5-1.7,1.4-.8,2.6-.9,5.9,1.2,7.9,0,.2-1.6.5-1.9.5-7.3,1.4-13.1-1.1-18.5-5.7-.5-.4-2.3-2.3-2.7-2.4-1-.2-1.4,1.2-2,1.9-.9,1.2-2.5,2.2-4,2.4.1-1.5,0-2.8.6-4.2.3-.8,1-1.3.7-2.2-.2-.7-1.4-1.9-1.4-2.8v-2.1h.2ZM70.7,151.9c.4-.2.8-.8,1.2-.9,1.2-.3,1.7,1,.9,1.9-.7.8-3.5,2.3-3.7.5,0-1.2.9-1,1.6-1.5ZM67.8,155.4c-.7.4-2.4.8-2.6-.3s.8-1.4,1.8-1.6c1.5-.2,1.8,1.3.8,1.9ZM45.9,155.9c0,1.5-2.8,1.1-3.1,0,0-.5,0-1.1.6-1.3.7-.2,2.5.2,2.5,1.2h0ZM40.4,155.8c-1.2,0-5.1-1.5-5.9-2.4-.5-.6-.5-1.5.4-1.7.8-.2,2,.8,2.9,1.2s2.5.5,3.2.9c1,.5.6,2-.5,2h-.1ZM30.5,152.5c.4,0,1.8.2,2,.5.8.7,0,1.8-.9,1.8s-1.3-.3-1.6-.5c-.6-.5-.4-1.6.4-1.8h.1ZM29.7,143.4l-1.1,2.8c-2.5,1-5.1,2.5-6.2,5.1-2.1-4.6,3.8-6.9,7.3-7.9ZM64.8,164.7c-9.4,1.1-20.2,1-29.6,0-5.8-.6-10.7-4.3-12.5-9.9l1.7,1c8.1,4.3,25.6,4.4,34.7,3.7,6-.5,12.9-1.4,17.9-4.8-1.7,5.5-6.5,9.3-12.2,10ZM77.4,151.3c-.3,0-.2,0-.3-.2-1-1.9-2.2-3-4-4-.8-.5-2.2-.8-2.9-1.3-.3-.2-.6-.7-.8-1-.7-.7-1.5-1.4-2.2-2.1,3,.4,9.7,2.4,10.4,5.8.2.9,0,1.8-.2,2.7h0Z"/>
    <path class="st0" d="M55.5,149.7c1.2-.6.6-2.2-.7-1.9v-1.2c1.1.5,2.2-.4,1.6-1.4-.4-.7-2.6-1.3-3.4-1.5-1-.2-2.4-.6-3.1.3-.8,1-1.5,4.9-.6,5.8.9.9,5.1.4,6.2,0Z"/>
    <path class="st0" d="M64.5,145.6c-1.1-1-2.4.7-1.4,1.5,1,.9,2.4-.6,1.4-1.5Z"/>
  </g>
  <g>
    <path class="st0" d="M180.1,129.6c-.2-.9-.4-1.8-1-2.6-.6-1-5-5.4-6-6-.8-.5-1.6-.7-2.5-1h-1.6c-.5,0-1.6.4-2,.6-1.5.7-2.6,2.2-3.8,3.3-13.5-6.8-29.9-2-37.8,10.7-3.3,5.3-4.6,11.3-4.3,17.5,0,.6.1,2.4.8,2.6,1.7.5,1-1.9,1-2.7-.7-18,14.1-32.2,32.2-29,16.4,2.9,26.5,20.3,20.8,36.1,0,.9,1.2,1.2,1.7.5.2-.3.4-1,.5-1.4,2.2-6.9,1.4-15-1.9-21.4,1.1-1.2,2.6-2.3,3.3-3.8.2-.4.6-1.5.6-2v-1.5h0ZM175.2,135.2c-2.6-4.2-6.1-7.8-10.4-10.4,1.3-1.2,2.3-2.8,4.3-3.1,1.3-.1,2.4.2,3.4,1s4.9,4.7,5.3,5.7c1.4,3-.7,4.9-2.7,6.8h0Z"/>
    <path class="st0" d="M167,164.2c12.6-15.2.7-37.7-18.9-36.2-15,1.2-24.2,17.3-18.1,31.1,6.6,14.8,26.7,17.6,37.1,5.1h0ZM144.8,130.4c15.8-4.2,29.8,10.9,24.5,26.3-4.8,14-23,18.2-33.6,7.7-11-11-5.9-30,9.1-34Z"/>
    <path class="st0" d="M174.6,162.3c-2.5,4.5-5.9,8.4-10.3,11.1-15.6,9.4-35.5,1.2-40.6-16-.2-.3-.7-.4-1.1-.3-.2,0-.4.3-.5.5-.2.4.4,2,.6,2.6.4,1,.8,1.9,1.2,2.8-1.4,1.5-3.1,2.7-3.7,4.7-.6,2.1-.2,4.2,1.2,5.9,1.1,1.4,5.1,5.3,6.6,5.9,3.9,1.5,6.4-.9,8.8-3.5,13.3,6.7,30.1,2,37.8-10.7.6-1,2.3-3.6-.2-3h.2ZM127.4,177.1c-1-.8-4.6-4.4-5.1-5.4-1.5-3.1.5-5,2.6-7,2.6,4.3,6.1,7.8,10.4,10.4-2.1,2.5-4.8,4.5-7.9,1.9h0Z"/>
    <path class="st0" d="M145.8,166.8c10,.8,8.2-12.2,0-11.4-6.7.7-8,10.8,0,11.4ZM142.9,163.6c.5-1.1,1.9-1.9,3.1-2.1,1.8-.2,3.4.5,4.3,2-1.7,2-5.6,2-7.4,0h0ZM148.9,157.8c1.3.8,1.9,2.2,2.1,3.7l-1.7-1.1c-2.2-1-4.5-.8-6.5.6,0,0-.7.8-.7.3.2-3.4,3.9-5.4,6.8-3.6h0Z"/>
    <path class="st0" d="M144.9,151c2.8-4.4-.7-10.1-5.9-9.5-1.5.2-3.1,1.1-4.1,2.3-4.4,5.4,5.6,14.1,10,7.3h0ZM143.5,145.4c.9,1.6.8,4.2-.7,5.4,0-3.4-2.8-6.2-6.2-6.1,1.8-2.2,5.5-1.7,6.9.7ZM135.7,146.6h0c1.4-.4,2.9,0,3.9,1s1.7,2.8,1.1,4.2c-2.1.4-5.9-3.2-5.2-5.2h.2Z"/>
    <path class="st0" d="M153.6,145.6c9.9.7,8.5-11.4.8-11.4s-8.8,10.8-.8,11.4ZM157.8,142.9c-1.6,1.4-5.4,1.3-6.9-.4-.2-.4,1.2-1.5,1.5-1.7.5-.2,1.2-.5,1.7-.5,1.2,0,2.7.4,3.6,1.3s.7.8.1,1.3ZM158.9,140.3c-2.5-2.3-6.4-2.4-8.7,0,0-5.9,8.6-6,8.7,0Z"/>
    <path class="st0" d="M159.3,148.2c-4.8.5-7,6.4-4,10.1,4.6,5.7,13.8-2.6,9.5-8-1.3-1.6-3.5-2.4-5.5-2.1ZM155.9,155.6c-1.1-3.8,2.7-7,6.2-5.3,0,0,1.3.8,1.1,1-3.3-.2-6.2,2.8-6.1,6.1-.3.3-1.2-1.5-1.2-1.8ZM164.1,154.6c-.4,1.5-2.2,3.2-3.7,3.7-.3,0-1.3.3-1.4,0-.5-2.4,1-4.6,3.3-5.3h1.9c.4,0,0,1.3,0,1.5h0Z"/>
    <path class="st0" d="M164.6,147.3c2.2.3,3.8-1.6,3-3.7-.5-1.2-2.4-2.2-3.6-2.1-3,.3-1.8,5.4.7,5.7h0ZM163.9,143.3c.9,0,2.8,1.1,1.8,2-1.1,1-2.2-1.1-1.8-2Z"/>
    <path class="st0" d="M141.2,139.3c1.2.8,3.7,0,4.5-1.3,1.2-2-.5-4.4-2.7-4-2,.3-3.6,4.1-1.7,5.3h0ZM144,135.9c1.2,1-.9,2.2-1.9,1.9-.2-.9.9-2.7,1.9-1.9Z"/>
    <path class="st0" d="M138.7,156c-.5-1.3-2.6-2.3-4-2-2.4.5-1.4,4.7.5,5.5,2.2.9,4.3-1.3,3.5-3.5ZM135.6,157.5c-.3-.3-.8-1.7-.4-1.8.5,0,1.5.4,1.8.7.6.8-.5,2.1-1.4,1.1Z"/>
    <path class="st0" d="M152.7,151c.2-1.7-1-4.3-3-3.9-1,.2-2,2-2.2,2.9-.6,3.9,4.8,4.3,5.2,1ZM150.2,148.9c.5,0,1.5,2.4,0,2.6-1.6,0-1-2,0-2.6Z"/>
  </g>
  <g>
    <path class="st0" d="M278,154.7c-.8-9.9-12.4-14.9-20.3-8.8-4.6-3.6-10.9-3.5-15.5,0-2.5-1.9-5.6-2.9-8.8-2.6-5.9.5-11,5.5-11.4,11.4-.2.3-1.8-.3-2,.9v4.4c.3,1,1.7.4,1.9.7.4,10.3,9,18.7,19.2,19.2,5.7-.2,11.7.3,17.4,0,10.3-.5,18.9-8.9,19.3-19.2.2-.3,1.6.3,1.9-.7,0-.5,0-3.7,0-4.3-.2-1.4-1.8-.7-2-1h.3ZM276.2,154.8h-2.1c-.5-6.4-8.3-10-13.5-6.2h-.3l-1.1-1.4c6.6-5,16.1-.6,16.9,7.5h0ZM264.3,151.1c-.8.2-1.3.6-2,1.1,0,0,0,.2-.2,0l-.6-1.8c4.1-3,10.1-.6,10.7,4.5h-1.9c-.5-2.7-3.2-4.4-5.9-3.7h0ZM268.2,154.8h-5.3c.8-2.6,4.5-2.6,5.3,0ZM244.3,146.8c6.8-4.4,15.5,0,16.4,8h-2.1c-.3-4.1-4-7.6-8.1-7.7-4.5-.2-8.7,3.2-9,7.7h-2.1c.4-3.3,2.1-6.2,4.9-8ZM245.4,154.8h-1.9c1.1-7.7,12.1-7.7,13.3,0h-1.9c-1.1-5.1-8.3-5.1-9.4,0h0ZM252.7,154.8h-5.3c.8-2.6,4.5-2.6,5.3,0ZM240.9,147.2l-1.1,1.4c-.2,0-.9-.4-1.1-.6-2.5-1.2-5.1-1.4-7.7-.2-2.6,1.2-4.8,4-4.9,6.9h-2.1c.8-8.1,10.3-12.6,16.9-7.5ZM235.9,151.1c-2.7-.7-5.4,1-5.9,3.7h-1.9c.6-5,6.6-7.5,10.7-4.5l-.6,1.8c-.2.2,0,0-.2,0-.7-.4-1.1-.8-2-1.1h-.1ZM237.3,154.8h-5.3c.8-2.6,4.5-2.6,5.3,0ZM275.6,164.2c-2,7.7-8.9,13.4-16.9,13.8-5.7.3-11.8-.2-17.5,0-8.5-.6-15.6-6.9-16.9-15.3-.1-.7-.1-1.4-.3-2.1h52.2c-.2,1.2-.3,2.4-.6,3.6ZM278.1,158.7h-56v-1.9h56v1.9Z"/>
    <path class="st0" d="M235.6,129.7v10c0,1.2,1.2,2.4,2.5,2.6,2.6.3,5.8-.2,8.4,0,1,0,2.6-1.4,2.6-2.4v-10.2h28.6c.2,0,1-.4,1.2-.6,1.4-1.1,1.5-2.9.4-4.3,1.5-1.8.5-4.3-1.7-4.8h-43.2c-2.4.2-3.5,2.9-2,4.8-1.9,2.4.3,5.3,3.2,4.8h0ZM249.1,121.9h28.3c.8,0,.8,1.9,0,1.9h-28.3s0-1.9,0-1.9ZM249.1,125.8h28.3c.8,0,.8,1.9,0,1.9h-28.3s0-1.9,0-1.9ZM245.3,121.9h1.9v17.7c0,.7-1.4.8-1.9.7v-18.4ZM241.4,121.9h1.9v18.4h-1.9s0-18.4,0-18.4ZM237.5,121.9h1.9v18.4c-.5,0-1.9,0-1.9-.7,0,0,0-17.7,0-17.7ZM235.6,121.9v1.9c-2.6.5-2.6-2.4,0-1.9ZM235.6,125.8v1.9c-2.6.5-2.6-2.4,0-1.9Z"/>
    <path class="st0" d="M259.1,131.6c-2.7.3-4.9,2.6-5.2,5.3-.2,2.2.2,2.6,2.4,2.4,2.9-.3,5.2-2.6,5.4-5.5.2-2.3-.4-2.5-2.6-2.2ZM255.9,137.4c0-2.1,1.8-3.8,3.9-3.9,0,2.1-1.8,3.8-3.9,3.9Z"/>
    <path class="st0" d="M229.7,142.2c.6,0,.9-.3,1-.9.3-2.2-.7-4.6-2.6-5.8-1.1-.7-3.1-1.3-4.4-1-1.4.3-.5,3.5,0,4.5,1.1,2.3,3.6,3.5,6.1,3.2h-.1ZM228.8,140.3c-2.1,0-3.8-1.8-3.9-3.9,2.1,0,3.8,1.8,3.9,3.9Z"/>
    <path class="st0" d="M269.1,135.5c-1.4.3-.5,3.5,0,4.5,1.1,2.3,3.6,3.5,6.1,3.2.6,0,.9-.3,1-.9.3-2.2-.7-4.6-2.6-5.8-1.1-.7-3.1-1.3-4.4-1h0ZM270.4,137.4c2.1,0,3.8,1.8,3.9,3.9-2.1,0-3.8-1.8-3.9-3.9Z"/>
  </g>
  <g>
    <path class="st0" d="M378,154.7c-.8-9.9-12.4-14.9-20.3-8.8-4.6-3.6-10.9-3.5-15.5,0-2.5-1.9-5.6-2.9-8.8-2.6-5.9.5-11,5.5-11.4,11.4-.2.3-1.8-.3-2,.9v4.4c.3,1,1.7.4,1.9.7.4,10.3,9,18.7,19.2,19.2,5.7-.2,11.7.3,17.4,0,10.3-.5,18.9-8.9,19.3-19.2.2-.3,1.6.3,1.9-.7,0-.5,0-3.7,0-4.3-.2-1.4-1.8-.7-2-1h.3ZM376.2,154.8h-2.1c-.5-6.4-8.3-10-13.5-6.2h-.3l-1.1-1.4c6.6-5,16.1-.6,16.9,7.5h0ZM364.3,151.1c-.8.2-1.3.6-2,1.1,0,0,0,.2-.2,0l-.6-1.8c4.1-3,10.1-.6,10.7,4.5h-1.9c-.5-2.7-3.2-4.4-5.9-3.7h0ZM368.2,154.8h-5.3c.8-2.6,4.5-2.6,5.3,0ZM344.3,146.8c6.8-4.4,15.5,0,16.4,8h-2.1c-.3-4.1-4-7.6-8.1-7.7-4.5-.2-8.7,3.2-9,7.7h-2.1c.4-3.3,2.1-6.2,4.9-8ZM345.4,154.8h-1.9c1.1-7.7,12.1-7.7,13.3,0h-1.9c-1.1-5.1-8.3-5.1-9.4,0h0ZM352.7,154.8h-5.3c.8-2.6,4.5-2.6,5.3,0ZM340.9,147.2l-1.1,1.4c-.2,0-.9-.4-1.1-.6-2.5-1.2-5.1-1.4-7.7-.2-2.6,1.2-4.8,4-4.9,6.9h-2.1c.8-8.1,10.3-12.6,16.9-7.5ZM335.9,151.1c-2.7-.7-5.4,1-5.9,3.7h-1.9c.6-5,6.6-7.5,10.7-4.5l-.6,1.8c-.2.2,0,0-.2,0-.7-.4-1.1-.8-2-1.1h-.1ZM337.3,154.8h-5.3c.8-2.6,4.5-2.6,5.3,0ZM375.6,164.2c-2,7.7-8.9,13.4-16.9,13.8-5.7.3-11.8-.2-17.5,0-8.5-.6-15.6-6.9-16.9-15.3-.1-.7-.1-1.4-.3-2.1h52.2c-.2,1.2-.3,2.4-.6,3.6ZM378.1,158.7h-56v-1.9h56v1.9Z"/>
    <path class="st0" d="M335.6,129.7v10c0,1.2,1.2,2.4,2.5,2.6,2.6.3,5.8-.2,8.4,0,1,0,2.6-1.4,2.6-2.4v-10.2h28.6c.2,0,1-.4,1.2-.6,1.4-1.1,1.5-2.9.4-4.3,1.5-1.8.5-4.3-1.7-4.8h-43.2c-2.4.2-3.5,2.9-2,4.8-1.9,2.4.3,5.3,3.2,4.8h0ZM349.1,121.9h28.3c.8,0,.8,1.9,0,1.9h-28.3s0-1.9,0-1.9ZM349.1,125.8h28.3c.8,0,.8,1.9,0,1.9h-28.3s0-1.9,0-1.9ZM345.3,121.9h1.9v17.7c0,.7-1.4.8-1.9.7v-18.4ZM341.4,121.9h1.9v18.4h-1.9s0-18.4,0-18.4ZM337.5,121.9h1.9v18.4c-.5,0-1.9,0-1.9-.7,0,0,0-17.7,0-17.7ZM335.6,121.9v1.9c-2.6.5-2.6-2.4,0-1.9ZM335.6,125.8v1.9c-2.6.5-2.6-2.4,0-1.9Z"/>
    <path class="st0" d="M359.1,131.6c-2.7.3-4.9,2.6-5.2,5.3-.2,2.2.2,2.6,2.4,2.4,2.9-.3,5.2-2.6,5.4-5.5.2-2.3-.4-2.5-2.6-2.2ZM355.9,137.4c0-2.1,1.8-3.8,3.9-3.9,0,2.1-1.8,3.8-3.9,3.9Z"/>
    <path class="st0" d="M329.7,142.2c.6,0,.9-.3,1-.9.3-2.2-.7-4.6-2.6-5.8-1.1-.7-3.1-1.3-4.4-1-1.4.3-.5,3.5,0,4.5,1.1,2.3,3.6,3.5,6.1,3.2h-.1ZM328.8,140.3c-2.1,0-3.8-1.8-3.9-3.9,2.1,0,3.8,1.8,3.9,3.9Z"/>
    <path class="st0" d="M369.1,135.5c-1.4.3-.5,3.5,0,4.5,1.1,2.3,3.6,3.5,6.1,3.2.6,0,.9-.3,1-.9.3-2.2-.7-4.6-2.6-5.8-1.1-.7-3.1-1.3-4.4-1h0ZM370.4,137.4c2.1,0,3.8,1.8,3.9,3.9-2.1,0-3.8-1.8-3.9-3.9Z"/>
  </g>
  <g>
    <path class="st0" d="M467.1,121.7c-3.6-1-11.7-1-15.4,0-10.1,2.6-15.9,13.5-12.5,23.4-5.1.3-10.7,1.2-14.9,4.3-2.1,1.5-3.8,3.5-4.1,6.2.7,5.9-2.1,13.8,2.8,18.3,7.4,6.7,24.5,6.7,32.6,1.3,1.8-1.2,4.5-4,4.5-6.2v-11.8c7.4.6,14.5-3,17.9-9.6,5.3-10.1,0-22.6-11-25.7v-.2ZM441.9,164.9c-5.2.2-18.9-1.7-19.5-8.5-.6-6.5,11.3-9.1,16.1-9.4,5.3-.3,19.1,1.5,19.8,8.4.7,6.7-11.6,9.3-16.4,9.5ZM455.2,129c7.7-.7,13.3,7.1,10.1,14.2-1.4,3.1-4.8,5.5-8.2,5.7-1.7,0-2.3-.7-3.7-1.4s-3.7-1.1-4.2-1.5c-.6-.4-1.7-2.3-2-3-2.7-6.2,1.4-13.4,8.1-14h0ZM460,154.5c-.2-1.4-1-2.6-2-3.6,10.5-1.7,14-15.1,5.4-21.5-9.3-6.9-22.1,2.4-18.4,13.5.3.9.8,1.8,1.3,2.7l-4.7-.5c-4.8-12.2,6.1-24.7,18.9-21.4,4.6,1.2,8.6,4.6,10.5,8.9,4.1,9.1-1.2,19.8-10.8,22h-.2Z"/>
    <path class="st0" d="M445.8,151.6c-.4.4-.6,1-1.1,1.4-.4-1.2,0-3.9-1.6-4-.8,0-3.6,0-4.2,0-1.3.3-.4,2.3-.3,3.2-.7-.4-1.4-2.2-2.2-2.2s-4.1.9-4.5,1.1c-1.6.7.2,2.2.1,2.3-4.8-1.6-6.3,3.3-2.9,6.3,4.3,3.8,13.1,4,18.3,2.2.6-.2,2.1-.8,2.5-1.2s2.5-3.3,2.7-3.8c2.3-4.8-3.2-9.4-6.9-5.2h0ZM434.3,159.9q0,.2-.2.2c-1.6-.4-5.2-2.4-4.8-4.4.3-1.3,2.6-.3,3.3,0,.8.4,1.5,1,2.4,1.4-.5.9-.6,1.6-.7,2.7h0ZM440.5,159.5c0,.5-.2,1-.2,1.5-.6,0-3.7,0-3.9-.5-.3-.6.2-1.8.6-2.3.9-1.1,2.3-1.5,3.6-.9s.3,1.2,0,2.2h0ZM442.6,156.2l-1.4-1-.7-4.3h1.9l.7,4.3-.6.9h0ZM451.2,155.3c-.2.9-1.3,2-1.8,2.8-.9-1.3-2.5-2.1-4.1-2.1l2.2-3.3c2-1.8,4.2.3,3.7,2.7h0Z"/>
    <path class="st0" d="M452,142c.3.2,1.2.5,1.2.5,0,0,0,1.3.4,1.9,1.3,2.6,5.1,1.9,5.7-.9v-.9s1-.4,1.2-.5c2.3-1.3,2.3-4.6,0-5.9-.3-.2-1.2-.5-1.2-.5,0-.2,0-1.6,0-2-.3-1.6-1.9-2.7-3.5-2.4-1.2.2-2.3,1.4-2.5,2.5v1.9s-1,.4-1.2.5c-2.3,1.3-2.3,4.6,0,5.9h-.1ZM455.3,143v-.9s.8-.6.9-.6c.3,0,1,.6,1,.9.2,2-1.8,2-2,.6h0ZM458.5,137.5c2.1-.3,2.4,2.8.5,3s-2.2-2.7-.5-3ZM456,133c.6,0,1.2.2,1.3.8v2l-.9.7c0,0-1-.6-1-.8,0-.7-.2-2.5.7-2.7h0ZM453.5,137.5c2.1-.3,2.4,2.8.5,3s-2.2-2.7-.5-3Z"/>
  </g>
  <g>
    <path class="st0" d="M80,248.2l-.7-4.5c-2.6-12.3-12.9-21.8-25.3-23.4-.7,0-1.5,0-2.2-.3h-3.7c-25.7,1.6-37.7,33.3-19.1,51.5,18.4,17.9,49.5,5.7,51-19.7v-3.5h0ZM73.9,264.7c-11.1,18.1-37.7,17.7-48.3-.7-10.5-18.1,1.9-41,22.7-42.2,22.6-1.3,37.5,23.5,25.6,42.9Z"/>
    <path class="st0" d="M64.9,231.7c-.8-.4-1.5-1.1-2.3-1.5-.4-.3-2.1-1.1-2.3-1.3-.2-.2-.3-.9-.5-1.2-.5-1.1-1.7-1.5-2.8-1-.3.1-.7.6-.9.6-.3,0-2-.5-2.5-.6-11.9-1.8-23.5,5.7-26.4,17.4-4.1,16.6,10.1,31.8,27,28.8,3.6-.6,6.9-2.2,9.8-4.3,0,.5.3.9.8.9h3.1c.5,0,.7-.4.8-.9.2-1.5-.2-3.3,0-4.8,4.4-5.9,5.8-13.6,3.7-20.7-.5-1.9-1.4-3.3-2.1-5-.7-1.8-1.2-3.9-2-5.7-.7-1.5-2.1-1.8-3.4-.8h0ZM55.6,234.6l2.3-6.2c.2,0,.2.2.3.3.9,1.8,1.3,4.2,2.1,6,0,.5-.3,1.1-.8,1.2h-3.1c-.5,0-.9-.8-.8-1.3ZM58.4,237.7v25.3h-.9v-25.3h.9ZM64,252.3c-.4-.5-1.2-.7-1.7,0-.8,1.1,1.3,2.1,1.7,3v11.1c-6.6,5.8-16.2,6.8-24,2.8-10.5-5.4-14.7-18.5-9.2-29.1,4.6-8.8,15-13.5,24.7-10.9-.4,2.7-3.7,6.8,0,8.4v10.1c-.4-.5-1.2-.7-1.7,0-.8,1.2,1.3,2.1,1.7,3v13.8c.2.4.4.6.9.7.5,0,3,0,3.4,0,.3-.2.4-.5.4-.9v-21c.4-.9,2.5-1.8,1.7-3-.4-.6-1.2-.4-1.7,0v-2.6c2.9-1.1,1.7-3.8.9-6l2.8,2v.4c-.3,1.6-1.8,4.1-1.8,5.7s.7,2.4,1.9,2.6v10.1h-.1ZM66.9,267.8h-.9v-25.3h.9v25.3ZM70.1,257.8l-1.3,2.7v-13c.6-.7,2.4-1.8,1.7-2.9-.4-.6-1.3-.4-1.7,0v-2.6l1.2-.6c2.1,5.2,2.2,10.9.2,16.2h0ZM67.9,240.5h-3.1c-.3,0-.7-.5-.8-.8l2.3-6.7c.2,0,.2.2.3.3.9,1.8,1.3,4.2,2.1,6,0,.5-.3,1.1-.8,1.2Z"/>
    <path class="st0" d="M48.6,250.2c5.9-2.1,7.9-9.3,4.2-14.3-3.9-5.3-12.3-4.8-15.6.9-2.3,4-1.4,8.9,2,11.9-6.8,2.5-8.2,11.5-2.6,16.1,4.6,3.8,11.6,2.2,14.3-3.1,2-4,.9-8.4-2.3-11.5ZM44.3,234c9-1,11.6,11.5,3.6,14.5-1.6.6-1.5.2-3-.2s-2.9,0-4.1-.8c-5.5-3.8-3.1-12.8,3.5-13.5ZM42.8,264.9c-9.6.4-10.5-14-1.3-15,10.5-1.1,11.3,14.5,1.3,15Z"/>
    <path class="st0" d="M51.7,232.1c1.5.2,1.4-2.2,0-1.8-.9.2-.8,1.7,0,1.8Z"/>
    <path class="st0" d="M32.9,244.3c1.5.2,1.4-2.2,0-1.8-.9.2-.8,1.7,0,1.8Z"/>
    <path class="st0" d="M31.9,249c-.9.2-.8,1.7,0,1.8,1.5.2,1.4-2.2,0-1.8Z"/>
    <path class="st0" d="M52.5,250.9c-.9.2-.8,1.7,0,1.8,1.5.2,1.4-2.2,0-1.8Z"/>
    <path class="st0" d="M53.5,265.9c-.9.2-.8,1.7,0,1.8,1.5.2,1.4-2.2,0-1.8Z"/>
    <path class="st0" d="M47.8,266.8c-.9.2-.8,1.7,0,1.8,1.5.2,1.4-2.2,0-1.8Z"/>
    <path class="st0" d="M47.7,245.3c.6.5,1.3,1.3,2,.7.4-.3.4-1,0-1.3-2.5-2.1-4.9-5.5-7.4-7.4-1.1-.9-2.2.2-1.5,1.2,2.4,2.1,4.5,4.8,6.9,6.9h0Z"/>
    <path class="st0" d="M43.5,246.7c.5.4,1,.7,1.5.2s.4-.9,0-1.2c-1.6-1.3-3.1-3.6-4.7-4.8-1.1-.8-2.1.2-1.5,1.2,1.6,1.3,3,3.3,4.6,4.6h.1Z"/>
    <path class="st0" d="M48.7,240.7c.6.5,1.2,1.2,1.9.5s.4-.9,0-1.2c-1.6-1.3-3.1-3.6-4.7-4.8-1.1-.8-2.1.2-1.5,1.2,1.4,1.3,2.8,3,4.2,4.2h0Z"/>
    <path class="st0" d="M39.2,252.8c-1-.4-1.8.6-1.1,1.5,2.5,2.1,4.8,5.3,7.3,7.3.5.4,1,.7,1.6.2.3-.3.4-1,0-1.3l-7.8-7.7Z"/>
    <path class="st0" d="M37.6,256.8c-.9-.8-2.1.2-1.5,1.2,1.9,1.6,3.6,4,5.5,5.5.5.4,1,.7,1.6.2.3-.3.4-1,0-1.3l-5.7-5.7h.1Z"/>
    <path class="st0" d="M43.2,251.2c-1.1-.8-2.1.2-1.5,1.2,1.6,1.3,3,3.3,4.6,4.6.5.4,1,.7,1.6.2.3-.3.4-1,0-1.3-1.6-1.3-3.1-3.6-4.7-4.8h0Z"/>
  </g>
  <g>
    <path class="st0" d="M163.8,278.2v-6.7c5.4-3,9.6-8,11.6-13.7.6-1.8,1.8-6.5,1.2-8.2-.2-.5-1-1.2-1.6-1.2h-3.1v-10.2c0-.3-.6-.5-.9-.5s-.9.2-.9.5v10.2h-2.9v-16.9h2.9v3.2c0,.3.6.5.9.5s.9-.2.9-.5v-3.2h4c0,0,.7-.4.9-.5.2-.3.3-.9.4-1.3,0-1.3,0-3.8,0-5.1-.2-3-3.2-1.6-5.3-2-.3-1.3-1.3-2.2-2.6-2.6h-1.2c-.6.2-1.2.4-1.7.9l-1.8-.9h-1.2l-1.8.9c-.5-.5-1.1-.7-1.7-.9h-1.2c-.7.2-1.1.5-1.7.9-.5-.4-1-.7-1.7-.9h-1.3c-1.3.4-2.2,1.3-2.5,2.7h-27c-1.2,0-1.6.8-1.7,1.9,0,1.1-.1,5,.2,5.9.1.4.3.7.8.9.9.4,5.3,0,5.5.1v1.2c-1.1,0-2.6-.4-3.7.4-2.1,1.5,0,4.2,1.6,5.2l.4,2.1c-1.5,0-4.2.3-4.3,2.2-.3,3,5.2,4.7,7.6,4.7l.4,1.2h-3.8c-.5,0-1.5.9-1.6,1.4-.3,1,.1,3.3.4,4.4,1.4,7.3,6.1,13.7,12.6,17.3v6.5c.2.9,1,1.7,1.9,1.7,4.2-.2,8.6,0,12.9,0h6c.7,0,1.4,0,2.1,0,1,0,1.7-.5,2-1.5h0ZM172,224.3h3.4v1.9h-3.4v-1.9ZM167.3,223c0-.8,1-1.5,1.8-1.3.4,0,1.1.7,1.1,1.1v3.4h-2.7l-.2-.2s0-3,0-3ZM162.7,222.6c.2-.9,1.6-1.3,2.4-.6l.4.6v3.6h-2.8c.2-1-.2-2.6,0-3.6ZM158.1,222.8c0-.4.8-1,1.1-1.1.7-.1,1.8.5,1.8,1.2v3.2l-.2.2h-2.7v-3.4h0ZM153.4,223c0-.8,1-1.5,1.8-1.3.4,0,1.1.7,1.1,1.1v3.4h-2.7l-.2-.2s0-3,0-3ZM124.8,224.3h26.8v1.9h-26.8s0-1.9,0-1.9ZM124.8,229.7v-1.8h50.5v1.8h-50.5ZM136.4,236.8c.4,0,.7.2,1.2,0,.9,0,1.1-.5,2,.2.5.4.6,1.2,1,1.4.8.4,1.5-.6,2.5.2.9.6.6,1.9,1.3,2.1,1.1.3,1.3-1.1,2.8-.7,1.5.4,1,3.1,2.6,2,.6-.4.8-.9,1.8-.7v2h-1.7c-.2,0-1.1.6-1.3.6-.9-.9-1.9-1.3-3.2-1.1-.4,0-1.2.5-1.4.4-.2,0-1-.9-1.6-1.1-1-.3-1.8,0-2.4,0s-.9-.6-1.3-.8c-1.6-.7-2.3,0-3.9.2l-1.4-2.7c.4-1.1,1.7-1.9,2.8-1.9l.2-.2ZM135.3,231.5h16.4v8.2c-.7,0-1.3,0-1.9.3-1-1.5-2.7-2.1-4.4-1.5-.9-1.2-2.2-2.2-3.8-1.8-.5-1-1.8-1.7-2.9-1.8-.7,0-1.4.5-2.1,0-.2-1.3-.6-2.5-1.2-3.6h0ZM134.4,243.5c.7-.3,1.1,0,1.7-.3.5,0,.8-.5,1.4-.5,1.3,0,1.4,1.3,2.1,1.5.7.2,1.1-.8,2.4-.3,1,.4.9,2.4,2.2,1.8.8-.4.8-1.5,2.3-1.1,1.2.3.9,1.8,1.9,1.8s.8-.6,1.2-.9c.6-.5,1.5-.5,2.2,0,.4.3.3.6,1,.5.9,0,.8-1.5,2.3-1.5s1.3,1,2,1,.7-.4,1.1-.8c.9-.8,2.4-.4,2.8.8,0,.2,0,.5,0,.7.3.7.9.5,1.5.7.8.2,1.5.7,1.5,1.6h-30.7c-1.6-1.4-1-4.1.9-4.9h0ZM153.4,243.2v-11.7h2.9v11.5c-1-.3-1.9-.2-2.9.2ZM158.1,242.8v-11.3h2.9v11.3c-1-.2-1.9-.4-2.9,0ZM162.7,245.1v-13.7h2.8v15.5c-.2,0-.2-.3-.3-.5-.6-.7-1.5-1.3-2.5-1.3ZM126.6,234.5c.7-.4,1.5-.3,2.2,0,.8.2,2.1,1.1,2.6,0,.3-.7-.4-2.2-.3-3h2.1c.4.9,1.6,2.8,1.4,3.8,0,.3-.6.4-.9.6-.6.4-1,.8-1.4,1.3-1.4-1-2.9-2.2-4.5-.7-.4-.3-1.5-1.5-1.2-2ZM130.7,245.5c-1.6-.2-4.1-.7-5.2-2-1.2-1.4,1-1.5,2-1.4.7,0,1.7.6,2.2,0,.4-.6-.2-1.4-.3-2-.2-.7-.6-1.8,0-2.4,2,.4,3.1,2.7,3.9,4.5-.6.5-1.2.9-1.6,1.5l-.9,1.9h-.1ZM129.1,257.6h8.4c1,0,1.3-1.4.3-1.8h-9.3c-.3-.2-.7-2.9-.8-3.4,0-.7-.3-1.8,0-2.4h47.1c.3,0,.2,1.2.2,1.5,0,.5-.6,4.2-.9,4.3h-33c-.7.5-.4,1.7.5,1.7h32c-2,5.2-5.8,9.8-10.8,12.4h-23.2c-4.8-2.7-8.9-7.2-10.6-12.4h.1ZM140.6,277.9v-1.4c0,0,14.2,0,14.2,0,.7,0,.8-1.8-.2-1.8h-14.1v-2.9h21.5v2.9h-3.3c-1,0-1,1.8-.2,1.8h3.6v1.2l-.3.2h-21.2Z"/>
    <path class="st0" d="M129.8,252.3c-.6.2-.6,1.4,0,1.6,1.7.5,1.7-2.1,0-1.6Z"/>
    <path class="st0" d="M134.5,252.3c-.6.2-.6,1.4,0,1.6,1.7.5,1.7-2.1,0-1.6Z"/>
    <path class="st0" d="M139.2,252.3c-.6.2-.6,1.4,0,1.6,1.7.5,1.7-2.1,0-1.6Z"/>
    <path class="st0" d="M143.9,253.9c1.7.5,1.7-2.1,0-1.6-.6.2-.6,1.4,0,1.6Z"/>
    <path class="st0" d="M148.6,253.9c1.7.5,1.7-2.1,0-1.6-.6.2-.6,1.4,0,1.6Z"/>
    <path class="st0" d="M153.2,253.9c1.7.5,1.7-2.1,0-1.6-.6.2-.6,1.4,0,1.6Z"/>
    <path class="st0" d="M157.9,253.9c1.7.5,1.7-2.1,0-1.6-.6.2-.6,1.4,0,1.6Z"/>
    <path class="st0" d="M162.6,253.9c1.7.5,1.7-2.1,0-1.6-.6.2-.6,1.4,0,1.6Z"/>
    <path class="st0" d="M167.3,253.9c1.7.5,1.7-2.1,0-1.6-.6.2-.6,1.4,0,1.6Z"/>
    <path class="st0" d="M171.9,253.9c1.7.5,1.7-2.1,0-1.6-.6.2-.6,1.4,0,1.6Z"/>
  </g>
  <g>
    <path class="st0" d="M278.9,251.2c-.4,0-1.2,0-1.3-.2,0,0-.5-.9-.7-1.1-3.1-4.4-7.7-6.9-13.1-7.1l-2.6-2.7,1.3-4.5c1.2-.2,2.2-.8,2.6-1.9.4-1,1.2-4.2,1.3-5.3,0-.8,0-1.3-.4-1.9,0-.2-.4-.4-.5-.6,0-.5.7-2,.7-2.7,0-2.8-4.4-4.2-6.1-2.2-.9,1-.6,2.7-1,3.2,0,.2-1.2.6-1.7,1.2-.4.6-1.6,5.2-1.6,6,0,1.2.3,2.1,1.3,2.7l-.6,3.3c-3.4-1.4-7.2-1.2-10.7-.2l-.6-3c.7-.5,1.4-1.5,1.4-2.4s-1.2-5.4-1.6-6.1c-.5-1.1-1.7-1.2-1.9-1.5s-.3-2-.6-2.6c-1.2-2.7-6-1.6-6.4.9-.2,1.3.8,3,.7,3.4,0,.1-.3.3-.4.5-.2.4-.5,1-.5,1.4,0,.7,1.2,5.5,1.5,6.2.5,1,1.4,1.4,2.5,1.7l1.3,4.2c-1.6,1.1-2.9,2.7-3.9,4.3-5.3.2-10.2,2.6-13.3,6.9-3,0-4.4,0-3.9,3.4,1.1,7.2,6.2,13.6,12.3,17.2,1.2.7,2.6,1.3,3.8,2v4.6h-4.3c-.6,0-1.2,1.6.4,1.7h36.8c1.3-.2.8-1.7.2-1.7h-5.7v-4.6c7.5-3.5,14-9.6,15.9-17.9.3-1.5,1.1-3.8-.8-4.4l.2-.2ZM263.8,221.9c1.4.7.2,2,0,3.1l-3-.7c.2-2.1.5-3.5,2.9-2.4ZM257.6,231.2c0-1,.9-3.7,1.2-4.6,0-.2.2-.4.3-.5.3-.3.7-.3,1.1-.3.8,0,3.1.7,3.8,1,.9.3.9.8.8,1.6,0,.6-1.1,4.5-1.3,4.9-.3.4-.7.5-1.1.4-.5,0-3.8-.9-4.2-1.1-.5-.3-.5-.7-.5-1.3h-.1ZM260.8,235l-1.1,3.8-1.6-.7.7-3.4c0-.2.2,0,.3,0,.6,0,1.1.4,1.7.4h0ZM238.5,221.9c.2-.1,1.4-.4,1.6-.4,1.3,0,1.2,1.7,1.4,2.6l-3,.8c-.3-.9-1.1-2.4,0-3ZM240.4,233.6c-.7,0-1.2,0-1.5-.8s-1.1-3.9-1.2-4.7c0-.7,0-1.1.8-1.3.6-.3,3.1-.9,3.8-1,.6,0,1.1,0,1.3.5.4.7,1,3.7,1.2,4.6,0,.7.2,1.3-.6,1.7-.6.3-3.2.9-3.9,1h.1ZM244.3,237.7l-1.6.9-1.1-3.5c0-.3,1.7-.5,2-.7l.6,3.2h0ZM238.2,245.7c.8-1,1.4-2.2,2.3-3.2,5.4-5.9,14.7-6.1,20.4-.6.5.5,1.8,2.3,2.2,2.4.5.2,1.3,0,1.9,0,4.3.4,8.3,2.9,10.6,6.6h-49.3c2.8-3.7,7.4-5.3,11.9-5.3h0ZM224.1,260.5l-.4-1.1h.5v1.1ZM262.1,278.1h-24.1v-3.9c1.8.5,3.7,1.1,5.6,1.4,6.2,1.1,12.5.6,18.5-1.4v3.9ZM230.3,267.8h39.6c-11,9-28.6,9-39.6,0ZM277.3,257.7c-.9,0-3.7-.4-4.1.5-.4.8,0,3.1,0,4.1.2.8,1.7.5,1.7,0v-2.9h1.7c-.4,1.5-1.4,2.8-2.3,4.1h-5v-2.8s-.4-.5-.5-.5c-.4-.2-1.1,0-1.2.5v3.9c0,.2.5.7.5.7h4.6c-.3.3-.4.9-.9.9h-43.2c-.6,0-.8-.5-1-.9h3.1c.3,0,.6-.6.7-.9v-3.4c-.2-1.2-1.7-.8-1.7-.3v2.9h-3.6s-.5-.6-.5-.7.3-.5.4-.8v-3.8c-.4-.8-2.2-.4-2.9-.5l-.3-.8h55l-.3.9-.2-.2ZM278,255.2h-55.8c-.1-.3-.7-2.4-.3-2.4h56.3c.4,0,0,2.1-.3,2.4h.1Z"/>
    <path class="st0" d="M244.3,246.5c-.9,0-1.9,0-2.8.2-.8.2-3.8,1.7-2.6,2.8.7.6,1.4-.3,2-.6,1-.6,2-.9,3.2-.7.7,0,1.5.8,2,0,.6-1-1-1.5-1.8-1.6h0Z"/>
    <path class="st0" d="M254.7,241.7c-1-.3-3.7-.7-4.4,0-.3.3-.3.8,0,1.1.5.4,1.4,0,2,0s1.9.3,2.6.7c.6.3,1.3,1.3,2,.7,1.2-1-1.4-2.4-2.2-2.7h0Z"/>
    <path class="st0" d="M266.9,247.9c-1.1-.9-2.7-.9-4-.8-.6,0-1.5.3-1.3,1.2.3.9,1.1.5,1.7.5s1.6,0,2.2.2c.4.2.5.6.9.6,1.2,0,1.3-1,.4-1.8h0Z"/>
    <path class="st0" d="M240.4,262.4v-2.8c0-.2.2-.2.4-.2,1.2,0,4.7,0,6,0,.2,0,.3,0,.4.2v2.7c0,.6,1.4,1,1.7,0v-4c-.2-.4-.6-.5-1.1-.5-1.9-.2-5.9-.2-7.8,0-.5,0-1,0-1.2.6s0,2.9,0,3.6c0,1.3,1.5,1.1,1.7.5h-.1Z"/>
    <path class="st0" d="M263.2,262.3c.2-.7,0-1.9,0-2.7,0-.2.2-.2.4-.2,1.2,0,4.7,0,6,0,.2,0,.3,0,.4.2v2.8s.4.3.5.4c.7.3,1.2-.2,1.2-.9v-3.4c0-.7-.6-.8-1.2-.8-2-.2-5.8-.2-7.8,0-.4,0-.9,0-1.1.5,0,.3-.2,3.6,0,4,.2.9,1.5.8,1.7,0h-.1Z"/>
    <path class="st0" d="M251.3,262.8c0,0,.5-.3.5-.4v-2.8l.2-.2h6.6v2.9c0,.6,1.4,1,1.7,0v-4c-.2-.4-.6-.5-1.1-.5-2-.2-5.8-.2-7.8,0-.6,0-1.1.2-1.2.8,0,.7,0,2.7,0,3.4,0,.7.6,1.2,1.2.9h-.1Z"/>
    <path class="st0" d="M228.7,262.7l.3-.6v-2.6h6.7v2.9c0,.6,1.5,1,1.7,0v-3.7c0-.6-.6-.7-1.1-.7-1.9-.2-5.9-.2-7.8,0-.4,0-.9,0-1.1.5s-.1,3.9,0,4.2c.1.5,1,.7,1.4.3v-.2Z"/>
    <path class="st0" d="M242.1,260.2s-.4.5-.4.6v2.7h-6.8v-3c0-.3-1.1-.7-1.5,0-.3.5-.3,3.1-.2,3.8,0,.6.2.9.9.9h8.8c.2-.2.4-.4.5-.7v-3.9c0-.5-.8-.7-1.3-.5h0Z"/>
    <path class="st0" d="M264.9,260.2s-.4.5-.4.6v2.7h-6.8v-3c0-.3-1.1-.7-1.5,0-.3.5-.3,3.1-.2,3.8,0,.6.2.9.9.9h8.8c.2-.2.4-.4.5-.7v-3.9c0-.5-.8-.7-1.3-.5h0Z"/>
    <path class="st0" d="M252.9,261v2.5h-6.7v-2.7s-.3-.5-.4-.6c-.5-.3-1.2,0-1.3.6v3.8c0,.4.3.7.8.7,2.7-.2,5.7.2,8.4,0,.4,0,.8,0,.9-.6v-4.1c-.2-.7-1.7-.5-1.7.5h0Z"/>
  </g>
  <path class="st0" d="M359.1,274.7c5.4-.3,10.4-4.2,11.9-9.5.9-3.4.2-7.3.5-10.8,0-.4-.7-1.2-1-1.2h-4.4c.2-.4.5-.8.7-1.2,1.6-3.2.5-7.9.8-11.5-.7-2.3-3.4-1.2-2.9,1-1.7,0-3.2.7-4.5,1.8-1.8-7.7-11.5-10.6-17.4-5.3l-6.4-12c-.2-.4-.6-.6-1-.7h-.7c-.8.3-1.2,1-1,1.9l6.8,13.3c-.3.5-.6,1.4-.8,1.8,0,0-.2.2-.2,0l-7-13.4c-1.1-1.5-3.1-.4-2.6,1.3l6.8,12.9c-.8.6-1.6,1-2.4,1.6-2.3,2-3.7,5-3.7,8.2-.5.2-1,0-1.6.2-.2.2-.7.6-.7.9.2,4.1-.7,8.5.9,12.4,1.8,4.5,6.4,7.8,11.3,8.1.7,0,1.5,0,2.3,0h4.3c4,0,8-.2,12,0h-.2ZM358.4,247c0,.7,0,1.3.2,2,.4,1.2,2.1,1.2,2.6,0,.2-.5,0-1.1.2-1.6.2-1.7,1.6-3,3.3-3.1v4.8c0,1.7-2.2,3.6-3.9,3.9-2.5.3-5.5-1.6-5.5-4.2v-4.5c1.5,0,3,1.1,3.2,2.6h0ZM344.6,240.2c3.5-3.1,9-2.6,11.6,1.3-.7,0-1.6-.2-2.4,0-.3,0-.7.2-1,.2-.2,0-1.2-.6-1.5-.7-2.3-.7-4.5.2-6,2.1-.7-.3-1.6-.6-2.4-.7-.2-.2,1.3-2,1.6-2.2h0ZM353,253.2h-6.4c0-4.4,6.4-4.4,6.4,0ZM348.1,244.6c.8-1.3,2.8-1.2,3.7,0,0,.2.5.9.5,1v1.8l-2.1-.4c-.7-.8-1.3-1.6-2.2-2.3h0ZM336.7,246.7c3.2-2.3,7.6-2,10.2.9l-1.9,1.6c-.7-.5-1.3-1-2.2-1.2-3.2-.9-6.4,1.2-6.8,4.5,0,.2,0,.7-.2.8h-2.4c-.2-2.5,1.2-5,3.1-6.4h.2ZM343.6,253.2h-4.7c-.2-2.4,3-3.5,4.4-1.6.2.2.7,1.6.3,1.6ZM331.3,256.1h37.2v2.5h-37.2v-2.5ZM341,271.8c-4-.2-7.6-2.7-9-6.4-.2-.5-.7-2-.7-2.5v-1.4h37.2v1.4c0,.2-.2,1.2-.3,1.4-1.1,4.2-4.9,7.3-9.2,7.5-5.9-.2-12,.3-18,0Z"/>
  <g>
    <path class="st0" d="M480,248.2c-.2-.7-.2-1.4-.3-2.2-1.7-12.9-12-23.5-24.8-25.6l-3.1-.4h-3.6l-4.4.6c-4.8,1-9.3,3.2-13,6.3l-6.1-6.1-1.4-.8h-1.1c-1.8.5-2.7,2.2-1.9,4,2,2.5,4.5,4.5,6.6,6.9-3,3.7-5.3,8.2-6.2,12.9-4.5,21.5,14.7,40.3,36.1,35.4,12.7-2.9,22.4-14.3,23.2-27.4v-3.7h0ZM422.3,223.8c-1.2-1.1,0-2.7,1.3-1.6,4.6,4.1,8.7,9.4,13.3,13.4,2.1,1.8,3.4,1.7,6,2,.6,0,1.6.2,1.9.6-3.1,1.2-5.5,3.8-6.9,6.8-.7-1.4-.4-3-.7-4.5-.3-1.2-1-2.5-1.8-3.5-3.9-4.6-9.2-8.6-13.2-13.2h.1ZM477.7,255.6c-2.1,11-11.1,20.1-22.2,22.2-22.2,4.3-40.2-17.6-31.6-38.6,1-2.5,2.6-4.8,4.2-7,1.9,2,4.2,3.9,6,5.9,2.3,2.7,1.2,4.6,2.3,7.6.3.7,1,2.6,1.9,2.5.9,0,.9-1.3,1.2-2,1.3-3.3,3.5-5.4,6.7-6.7.7-.3,2.1-.3,2-1.4,0-.8-1.9-1.5-2.5-1.7-2.8-1-4.9,0-7.5-2.1l-6-6c3.8-3,8.4-5.2,13.2-6,19.6-3.2,36.2,13.9,32.4,33.4h-.1Z"/>
    <path class="st0" d="M448.6,233.9c1.8.8,1.2-2.4,1.3-3.4.2-1.7,1.9-1.6,2.1-.1v39.7c.6,3.4,5.2,3.1,5.5-.4v-38c.8-.9,1.9-.5,2,.6v34.1c.7,3.5,5.5,3,5.5-.6v-28.2c.3-.8,1.2-1.1,1.8-.4.6.8,0,2.9.3,3.8.2.7,1.5.6,1.7-.3v-2.9c-.3-3.3-4.6-3.7-5.5-.6v28.7c0,.9-1.1,1.5-1.7.8,0,0-.2-.3-.2-.4v-34c0-3.4-4.6-4.1-5.5-.8v38.3c-.3,1.2-2,1.1-2,0v-39.1c-.2-3.9-5.3-4.1-5.6,0,0,.7-.2,3.1.5,3.4h-.2Z"/>
    <path class="st0" d="M441.5,225.2c-1.2.4-4.8,1.9-5.7,2.8-.7.7,0,1.6.7,1.6,11.5-7.4,26.8-4.1,34.1,7.4,9.1,14.4,1,33.6-15.6,37.1-19.6,4-35.6-15.8-27.3-34.1.3-.6,1.7-3,1.8-3.3,0-.8-.9-1.3-1.5-.8-.2,0-.8,1.2-.9,1.5-8,14.1-1.1,32.1,14.1,37.5,15.6,5.5,32.6-4.7,34.8-21,2.6-19.4-15.9-34.8-34.5-28.5v-.2Z"/>
    <path class="st0" d="M432.3,260c-.3,1.7,0,3.3,1.1,4.7,1.3,1.6,3.5,2.5,5.5,2.1.6,4.3,5.8,6.3,9.1,3.5,2.8-2.4,2.5-6.9-.6-8.9,4.8-3.6,2.2-10.9-3.9-10.3-.8,0-2.1.4-1.9,1.4.2,1.2,1.4.4,2,.4,2.8-.4,4.9,1.7,4.5,4.5-.3,2.1-2.8,3.6-4.8,2.9-.5-2-1.9-3.7-3.9-4.3,1.1-4.9-4.3-8.7-8.5-5.9-3.9,2.5-3,8.6,1.4,9.9ZM441.8,265.3c.7-.7,1.3-1.9,1.5-2.9,3.3-1,6,2.3,4.5,5.4-1.5,3-6.1,2.6-7-.6-.4-1.4.3-1.1,1-1.8h0ZM438.8,257.7c.3-.2,1.2.4,1.5.7,1.9,1.5,1.8,4.4,0,5.9-2.9,2.3-6.9-.4-6.1-3.9,1.4-.2,2.8-.6,3.8-1.6s.7-1,.8-1h0ZM433.2,251c5.7-.9,6.1,7.3,1,7.6-4.8.2-5.4-6.9-1-7.6Z"/>
    <path class="st0" d="M467,244.2v11.1c.8,3.2,5.2,2.9,5.5-.5.2-2.3.2-6.9,0-9.3,0-.2,0-.7-.3-.8-.4-.4-1.4-.2-1.5.4v9.7c-.2,1.2-1.9,1.3-2,0v-10.5c-.3-.9-1.4-1.1-1.7-.1Z"/>
    <path class="st0" d="M445.6,247.6c.9.3,1.6-.7.9-1.5-.2-.2-2.8-1.9-2.9-2-.3,0-.6,0-.8,0-.6.2-.6,1-.2,1.4.2.2,2.8,2,3.1,2.1h0Z"/>
    <path class="st0" d="M430.3,247.4c.3,0,2.6-.7,2.9-.9.8-.5.4-1.7-.7-1.5-.4,0-2.5.7-2.8.9-.7.5-.3,1.6.6,1.6h0Z"/>
    <path class="st0" d="M448.2,245.6c2,.2.5-3.2-.7-2.9-.4,0-.7.5-.7,1s.8,1.9,1.4,1.9Z"/>
    <path class="st0" d="M443.6,231.7s-1.1.7-1.3.9c-.8.7,0,1.9.9,1.5.2,0,1.3-.9,1.4-1.1.4-.8-.2-1.5-1.1-1.3h0Z"/>
    <path class="st0" d="M432.3,242.4c.3-.6-.3-1.7-.7-2.1-.6-.6-1.5-.2-1.5.6s1.5,2.9,2.2,1.5Z"/>
    <path class="st0" d="M445.2,228.5c-1,.2-.8,2,.4,1.7,1.1-.2.8-2-.4-1.7Z"/>
    <path class="st0" d="M450.3,241.7c.7-.9-.5-2.1-1.3-1.3s.6,2.1,1.3,1.3Z"/>
    <path class="st0" d="M441.8,249.6c1.4.2,1.3-2,0-1.7-.9.2-.9,1.6,0,1.7Z"/>
    <path class="st0" d="M439.3,230.7c-.8.7.4,2.2,1.3,1.3.8-.8-.4-2.1-1.3-1.3Z"/>
    <path class="st0" d="M448.7,249c-.7.2-.8,1.2-.2,1.5,1.4.9,2-2,.2-1.5Z"/>
  </g>
  <g>
    <path class="st0" d="M71.2,340.3c-.7-.3-1.6-.2-1.4.6,0,.4,2,1.4,2.4,1.7,7,5,5.7,11.3-1.2,15.5-10.3,6.3-29.8,6.3-39.8-.7-4.7-3.3-6.7-8.1-2.4-12.8.4-.4,1.6-1.5,2-1.8.3,0,1.1.8,1,1-10.6,8.4,2.5,14.9,10.4,16.6,8.8,1.9,21.7,1.2,29.2-4.2,6.9-5,4-10.5-2.4-13.8-7.6-4-18.5-4.5-26.8-2.8-1.5.3-3,.8-4.5,1.3-.2,0-1.1-1.1-1-1.2,8-2.7,16.8-3.2,25.1-1.4.9.2,2.5.8,3.3.9.5,0,1-.3.9-.9,0-.5-.6-.5-1-.7-5.1-1.8-12.7-2.2-18.1-1.7-3.8.4-7.6,1.3-11.2,2.6,0,0-.5-.4-.6-.6-2-2.1-3.7-4.6-5.7-6.7-4.3-4.5-10.2,1-6.5,5.5.5.7,1.5,1.6,2.2,2,1.6,1,3.6,1.2,4.9,2.7-2.5,1.9-4.7,4.5-5,7.8-.8,9.9,5.9,19.9,14.5,24.4.5.3,2.1.8,2.4,1.1.3.2,1,1.7,1.4,2.3,2.7,3.1,7.2,3.1,11,2.8,2.6-.2,4.9-1.6,6.4-3.7.2-.3.6-1.2.7-1.3.3-.2,2.1-.9,2.6-1.2,8.1-4.3,13.8-12.8,14.3-22.1.2-5-2.6-9.3-7.2-11.4v.2ZM33,345l1,1.3c-1.8.8-3.3,2.1-4.6,3.6.3-2.1,1.9-3.8,3.6-4.9ZM41.9,358.9c0,0-2-.5-2.3-.6-.6-.2-2.9-.9-3.3-1.3s0,0,0-.3.6-1.6.7-1.7l2.4-1,2.2.9s.9,2,1,2.1c0,.6-.5,1.2-.6,1.7v.2ZM72.5,353.5c-2,2.2-5.8,3.9-8.6,4.8-6.6,2-13.8,2.1-20.5.9.2-.8.7-1.4.6-2.3,0-.4-1-2.6-1.3-2.9-.5-.5-2.9-1.4-3.6-1.4s-2.8,1-3,1.4c-.5.5-.6,1.5-.9,2.1,0,0,0,.2-.2.2-.6,0-3.1-2-3.6-2.5-.3-.3-1.2-1.5-1.3-1.8,0-.3.3-.7.4-1,1.1-1.6,2.9-2.7,4.6-3.6.5,0,2,2.5,2.8,2.7,1.1.3,3.6.2,4.9,0,.3,0,1.7,0,1.9-.3.3-.2.4-.6.2-.9l-3.5-4c4.8-1.1,9.7-1.6,14.6-1.1-.2.7-.8,1.4-.7,2.2,0,.5.7,2.2,1.2,2.4,2.3.4,4.7.4,7,0,.4-.2,1-1.6,1.1-2,0-.3,0-1,.2-1,2.5.7,8,3.5,9,6,.2.6-.6,1.5-1,1.9h-.3ZM56.5,346c0,0,.7-1.9.8-2.1.2-.4,1.9-.9,2.5-1.1.2,0,2.2.9,2.3,1,0,0,.8,1.9.8,2,0,.4-.2,1-.5,1.3-1.8.3-3.6.2-5.4,0,0-.4-.5-.8-.5-1.2h0ZM38.8,342.1c1-.3,2-.6,3-.9,8.2-2,19.6-1.5,27,2.6,2.2,1.2,4.9,3.2,5.3,6-2.7-3.1-6.5-4.8-10.4-6-.3-.4-.4-.9-.9-1.3-.4-.3-2.3-1.1-2.7-1.2-1.3-.2-2.3.9-3.4,1-.7,0-2.5,0-3.3,0-1.6,0-3.2,0-4.9,0-2.8.2-5.5.7-8.2,1.4-.2,0-1.5-1.5-1.5-1.6h0ZM29.3,339.3c-2.2-1.2-3.4-1.1-5.2-3.3-2.5-3.1,1.2-6.3,3.8-4.2l14.4,16.6.2.4c-1.5,0-2.9,0-4.4-.2-2.1-2.2-3.9-4.7-6-7-.8-.9-1.8-1.8-2.8-2.4h0ZM55.5,378.4c-1.6.4-6.1.3-7.6,0-1.4-.4-2.8-1.3-3.7-2.6,5,1.4,10.2,1.4,15.2,0-.8,1.3-2.4,2.3-3.9,2.7h0ZM44.7,374.4c-8.5-2.5-15.6-9.8-17.4-18.6,3.9,4.4,9.9,6.6,15.5,7.7,10.2,1.9,26,.7,33.2-7.6,0,0,.3-.3.3-.2-3.3,14.1-17.6,22.7-31.7,18.6h0Z"/>
    <path class="st0" d="M53.9,328.7c2.5.2,2.3,3.2,0,3.5-1,0-3.1-.2-3.9,0-.6.2-.6,1.1,0,1.3.4.2,3.6,0,4.2,0,3.8-.4,3.9-5.9,0-6.3-1.3-.1-3.1.2-4.2,0-1.2-.2-1.6-1.9-.8-2.8,1.1-1.1,3.9,0,4.4-.8.2-.3.3-2.7,0-3.1-.2-.7-1.2-.5-1.4,0,0,.5,0,1.3,0,1.8h-2.4s-.6.2-.7.3c-1.9.8-2.5,3-1.4,4.7,1.4,2,4,1.1,6,1.3h0Z"/>
    <path class="st0" d="M68.1,340.2c1,0,.6-1.5-.2-1.4-.8,0-.9,1.5.2,1.4Z"/>
    <path class="st0" d="M57,353.7c-1.7.2-2.3.9-1.5,2.5s2.8,2.2,4.4,1.6c1.2-.4,1.1-1.1.7-2.1-.6-1.3-2.1-2.2-3.5-2h-.1ZM56.6,355.2c1.1-.3,2.2.2,2.6,1.2-.9.6-2.5,0-2.6-1.2Z"/>
    <path class="st0" d="M49.8,348.6c-2.5.5-1.9,4.7.9,4.2,2.7-.4,2.1-4.8-.9-4.2ZM50.5,351.4c-.9.2-1.2-1.2-.3-1.4,1-.2,1.1,1.2.3,1.4Z"/>
    <path class="st0" d="M67,349.3c-2.5.5-1.9,4.7.9,4.2,2.7-.4,2.1-4.8-.9-4.2ZM67.6,352.1c-.9.2-1.2-1.2-.3-1.4,1-.2,1.1,1.2.3,1.4Z"/>
    <path class="st0" d="M49.2,346.4c.8-.3.5-1.7-.5-1.4-.7.2-.5,1.7.5,1.4Z"/>
    <path class="st0" d="M58.9,351.3c.8-.3.5-1.7-.5-1.4-.7.2-.5,1.7.5,1.4Z"/>
    <path class="st0" d="M35.1,350.7c-.7.2-.5,1.7.5,1.4.8-.3.5-1.7-.5-1.4Z"/>
    <path class="st0" d="M48.8,356.1c-.7.2-.5,1.7.5,1.4.8-.3.5-1.7-.5-1.4Z"/>
  </g>
  <g>
    <path class="st0" d="M147.4,320.2c-9,.6-17.6,5.9-22.5,13.4-7.2,11-6.5,25.8,2.1,35.8l-6.7,6.8c-1.2,2.4,1.2,4.7,3.6,3.4l6.7-6.7c11.2,9.6,28.2,9.3,39.2-.5,21.5-19.2,6.3-54.3-22.4-52.3h0ZM123.2,378.5c-1.4,1-2.7-.8-1.6-2l13.7-13.7c2-2.3,1.3-5.3,2.2-8,.2,0,.6,1,.6,1.1,1.6,2.9,4,5.1,7,6.3l-1.9.6c-2.2,0-4.4.4-6.2,1.8l-13.9,13.9h.1ZM176.8,359.9c-6.7,18.6-30.2,24.9-45.3,12.1,1.9-1.7,3.7-3.9,5.6-5.6,3.6-3.2,6.3-1.3,9.7-3.4,2.2-1.3,0-1.5-1-2-2.7-1.1-4.9-2.9-6.3-5.6-.3-.5-1-2.9-1.2-3-.9-.7-1.7,1.2-2,1.8-1.2,3.1,0,5.3-2.5,8.3-1.7,2-4.1,3.9-5.9,5.9-10.8-12.6-8.2-32,5.2-41.6,4.2-3,9.4-5,14.6-5.3,20.7-1.4,36.2,18.8,29,38.4h0Z"/>
    <path class="st0" d="M147.6,324c-18.5,1.3-29.6,21.8-21,38.2.3.5,1.2,2.3,1.7,2.3s.8-.4.7-.9c-.2-.6-1.3-2.2-1.7-3-5.7-12.3-.4-26.9,11.7-32.7,14.6-7.1,32.2,1.7,35.1,17.7,3.8,20.8-17.6,36.1-36.3,26.4-.5-.3-2-1.6-2.3-.5-.2.8,1.2,1.4,1.8,1.8,15.1,8.3,34.3-.5,38-17.2,3.9-17.5-10-33.2-27.8-31.9v-.2Z"/>
    <path class="st0" d="M144.5,332.5c-1,.2-2,1.4-2.2,2.3-.3,1.5-.2,6.4,0,8,.3,3.9,4.5,2.4,6.8,2.8.4,0,3.4,1.3,3.7,1.5s2.5,2.4,2.6,2.7c1.2,2,1.2,5.4,4.4,5.4s6-2.1,7.2-2.7,2.6-1.6,2.4-3.6c0-.9-1.7-4.6-2.3-5.2-.3-.3-1.2-.6-1.2-.7s-.2-1.2-.3-1.6c-.4-1.1-3.6-4.3-4.8-4.5h-1.2s-.3-.9-.5-1.1c-.7-1-5-2.7-6.1-2.6-.4,0-1.1.4-1.4.4-.4,0-.9-1-2-1.2-.9,0-4.1,0-5,0h0ZM161.5,338.9c.7.6,2.7,2.5,2.9,3.4.3,1.3-1.1.5-1.1,1.5s.9.6,1.4.6c.8,0,1.2,0,1.8.7.4.5,1.4,3,1.6,3.6.3,1,0,1.8-.9,2.4-1,.6-5.5,2.4-6.5,2.7-1.1.3-1.8,0-2.4-.9-.3-.5-1.3-2.9-1.4-3.4-.2-1,0-1.8.9-2.3.8-.4,3.2-1.1,3.6-1.6.5-.5,0-1.2-.6-1.1-1.8,1-4.7,1.2-5.2,3.5,0,0-1.3-1.1-1.4-1.2-1-1.2-1.1-1.9,0-3.1.9-1.1,3.5-3.8,4.6-4.6,1.2-.9,1.8-.9,3,0l-.2-.2ZM151.5,335.6c.4-.6,1.1-1.1,1.8-1.1s3.6,1.3,4,1.6.9.8,1,1.3l-5.7,5.6c-.5.7-.8,1.5-.7,2.4-1.4-.6-3.5-.9-3.2-2.9,0-.7,2.4-6.2,2.8-6.9ZM149.9,333.9c.2,0,.6.4.6.6l-3.1,7.5c0,.8,0,1.6.2,2.4h-2.7c-.6,0-1.3-1.1-1.4-1.6-.2-1.5-.2-5.5,0-7.2,0-.9.6-1.7,1.5-1.9.8,0,4.2,0,4.8.2h.1Z"/>
    <path class="st0" d="M145.9,372.2c7.1,1.7,15.9-1.8,20.7-7.1.4-.5,2.2-2.7,2.4-3.2.2-.8-.5-1.3-1.1-.8-.3.2-1.3,2-1.7,2.5-4.1,5-10.7,7.9-17.2,7.6-.7,0-2.1,0-2.8-.4-.9-.3-1.4-1-.9-1.9.6-1,2.3-.3,3.2-.3,4.4.2,8.5-.8,12.1-3.4.8-.6,2.5-1.9,3-2.8,1.3-2.4-1.5-5.1-3.9-3.3-1.1.8-1.8,1.7-3.1,2.5-.4.3-1.7.7-2,1s-.2,1,.3,1.2c.5,0,3.1-1.5,3.6-1.8.7-.5,2.3-2.2,3-2.2,1,0,1.4,1.2.8,2.1-2.2,3.1-8.3,5.2-12,5.3-1.5,0-3.8-.6-5-.2-2.4.9-2,4.3.6,4.9v.3Z"/>
    <path class="st0" d="M139.1,342.6c1.4-2.2.7-5.2-2.3-4.9-1.2,0-2.1,1.4-2.7,2.4-2.4,3.7-3,7.2-2.9,11.6,0,.9.5,2.1-.9,2.4-1.3.2-1.5-1.5-1.6-2.4-.2-2.4.2-4.4.6-6.7,1.1-5.5,5.6-10.9,10.4-13.5.6-.3,2.6-1,2.9-1.3.6-.5,0-1.3-.6-1.2-1.1.2-4.1,2-5.1,2.7-6.3,4.4-11,13.7-9.3,21.5.5,2,2.7,3,4.3,1.5,1.2-1.1.6-2.4.6-3.7,0-3.4.6-6.6,2.3-9.6.6-1,2.1-3.7,3.4-2,1,1.3-1.3,2.9,0,3.5.5.2.7,0,.9-.3Z"/>
    <path class="st0" d="M148,350.2c-.4-1.9-2.8-2.3-4.4-2-1.8.3-3.4,2.1-2,3.8,1.7,2.2,7,1.3,6.4-1.8ZM145.3,351.8c-.8.2-2.1,0-2.7-.5-.9-1,.7-1.7,1.5-1.8,2.2-.3,3.9,1.6,1.3,2.3h0Z"/>
    <path class="st0" d="M154.5,359.9c1.4-2.1-1.3-5.5-3.6-5.4-.8,0-1.6.5-1.9,1.3-1.2,3,3.7,6.8,5.5,4.2h0ZM150.6,355.9c1.5-.5,3.8,2.6,2.6,3.4-1.5,1.1-4.3-2.9-2.6-3.4Z"/>
    <path class="st0" d="M166,336.9c.8.4,1.3-.3.9-1-.3-.4-1.6-1.6-2.1-1.5-.5.2-.5.7-.2,1.1,0,.2,1.3,1.4,1.4,1.4Z"/>
    <path class="st0" d="M152.4,352.2c1.1-.5-.6-2.6-1.3-2.4-1.2.4.5,2.7,1.3,2.4Z"/>
    <path class="st0" d="M145.5,355.7c-.6,0-1.8,1.7-.8,2,.6.2,1.9-1,1.4-1.7-.2-.3-.4-.4-.7-.3h0Z"/>
    <path class="st0" d="M149.6,327.7c-.6.2-1.6,2.1-.4,2.2.9,0,2-2.6.4-2.2Z"/>
    <path class="st0" d="M139.8,346.3c-.3,0-.7,0-.9,0-.3.3-.9,1.3-.6,1.7.8,1,2.3-1.4,1.4-1.8h0Z"/>
    <path class="st0" d="M156.7,330c-.7-.7-1.6.6-.9,1.1.8.5,1.4-.5.9-1.1Z"/>
    <path class="st0" d="M135.5,349.1c-.7,0-.7,1.1,0,1.3,1.3.4,1.1-1.4,0-1.3Z"/>
    <path class="st0" d="M150,364c-.7.6.5,1.5,1.1.9s-.4-1.5-1.1-.9Z"/>
    <path class="st0" d="M167.1,357.6c1.3.4,1.1-1.4.3-1.3-.7,0-.9,1.1-.3,1.3Z"/>
    <path class="st0" d="M160.8,350.2c.6.9,1.7-.3,1.1-.8-.5-.5-1.7,0-1.1.8Z"/>
    <path class="st0" d="M153.1,338.5c1.2.4,1.2-1.4,0-1.3-.7,0-.7,1.1,0,1.3Z"/>
  </g>
  <g>
    <path class="st0" d="M246.4,327.8c.8,2.3,1.8,2.9,2,5.9,0,.4-.3,1,.2,1.5,1.9.6,3.9-1.7,4.6-3.2,1.8-4-1.1-6.2-2-9.8-.2-.8,0-1.8-.8-2.2h-.6c-3,1.5-4.7,4.6-3.5,7.9h0ZM249.6,321.8c.3,1.2.6,2.3,1.1,3.4.6,1.3,1.6,2.3,1.6,3.9s-.9,3.4-2.4,4c0-.8-.2-1.6-.4-2.4-.7-2.4-2.5-3.7-1.7-6.5.3-1,1-1.9,1.8-2.4Z"/>
    <path class="st0" d="M277.3,348c-1.4-1.1-3-.8-4.7-.8-1-1.3-2.3-2.3-3.7-3.2-.3-.2-1.6-.9-1.8-.9-.8,0-1.2.9-.7,1.4s1.7.8,2,1.1c5.4,3.3,5.1,7.2-.3,10.3-9,5.2-28.2,5.3-37.1-.4-6.2-4-3.3-8.3,2.1-10.8,6.6-3,15.7-3.6,22.9-2.8.8,0,3.1.7,3.6.6.5,0,.9-.9.5-1.3-.3-.4-3.1-.7-3.8-.8-7.4-.9-16.6-.3-23.4,2.7-2.2,1-4.3,2.3-5.8,4.2-1.7,0-3.3-.3-4.7.9-2.3,1.9-1.7,5.7,1.2,6.6,1.1.4,2.2,0,3.3.3,1.1,2.7,2.6,5.3,4.7,7.4-.8,1.3-1.7,2.6-1.3,4.2,0,.3.4.7.4,1,.2,2-.3,4.6,0,6.7.2,2.4,4,3.7,6,4.2,7.3,2,23,2.3,29.8-1.3,4-2.1,2-5.1,2.5-8.8,0-.5.5-1,.6-1.6.3-1.8-.6-2.9-1.6-4.3,2.1-2.1,3.8-4.7,4.8-7.5h2.6c3.5-.4,4.8-4.7,2-6.9v-.2ZM224.8,353.4s-.8-.2-.9-.3c-1.7-.9-1.8-3.4,0-4.1.1,0,.6-.2.7-.2h1.7c-.6,1.6-.2,3.1.2,4.7h-1.8,0ZM251,373.1c1.5-.7,2.6-2.6,2.1-4.2,2.8-.3,5.7-.9,8.3-2,.2,1.1.9,2,1.9,2.5.2,0,1.1.5,1.2.5h1.7c-2.7,2.3-6.9,3.2-10.4,3.6-5.8.7-18.2.5-22.7-3.6,0,0-.5-.5-.4-.6,2.2.9,4.6-.2,5.6-2.3,2.2,1,4.6,1.5,7,1.8-.6,3.3,2.7,5.7,5.7,4.4h0ZM249.2,365.7c1.3,1.5,3.9,4.1,1.5,5.8-1.1.8-2.7.5-3.5-.6-1.3-1.8,1-3.9,2-5.2ZM236,367.5c-1.7,1.2-4.3.2-4.2-2.1,0-.7.8-1.7,1.2-2.3.2-.2,1.3-1.8,1.5-1.6,1.1,1.6,3.9,4.1,1.5,6ZM267.4,374.3c0,.2-.7.8-.8.9-3.5,2.7-14.1,3.2-18.5,3.1-3.5,0-12.9-.9-15.3-3.4,0,0-.5-.7-.5-.8v-3.1c.4.3.8.6,1.2.9,7.2,4.6,25.8,4.7,33,0,.4-.2.7-.5,1-.8v3.2h0ZM267.9,365.5c.5,2.5-2.9,3.9-4.5,1.9-1.5-1.9.8-4,2-5.4,0,0,.6.6.8.8.5.6,1.6,2,1.7,2.7ZM267,361.1c0,0-.2,0-.3,0-.4-.3-.8-1.4-1.6-1-.4.2-1.9,2-2.2,2.5-.6.8-1.1,1.7-1.5,2.6-2.8,1.3-5.9,1.9-8.9,2.1h-.2c-.3-.8-2.3-3.5-3-3.6-.5,0-1,.6-1.3.9-.7.7-1.3,1.6-1.8,2.4-.4.3-2.8-.2-3.5-.3-1.4-.3-2.8-.8-4.1-1.3-.4-1.4-1.1-2.6-2-3.7-.4-.5-1.6-2-2.1-2.1-.7,0-1.6,1.5-1.7,1.5-1.4-1.4-2.6-3.2-3.5-5l3.2,1.8c9.4,4.4,26.3,4.4,35.5-.4.8-.4,1.6-1,2.4-1.4-.8,1.9-2.1,3.4-3.4,5ZM275.8,353.1c0,0-.8.3-.9.3h-1.7c.4-1.6.8-3.1.2-4.7h1.7s.6.2.8.3c1.8.8,1.7,3.4,0,4.1h0Z"/>
    <path class="st0" d="M247.7,343.5c-.4,0-1.1-.2-1.5-.3-1.7-.2-2.6,1-2.5,2.6-.5,0-1,.7-1.5.7s-1-.2-1.4-.2c-2.7,0-5.4,0-6.7,2.8-2.5,5.3,4.8,9.6,8.5,4.5,1.2-1.6,2.8-4.3,1.3-6.2,0-.2,1.6-.6,1.5-1.4,0-.3-.6-1,.2-1.2.4,0,.6.3.9.3.5,0,1.1-.4,1.5.4.4.9-.4,1-.5,1.5,0,.4.2,1.2-.6,1.2s-1.6-1-1.7.3c-.2,1.5,3.1,1.7,3.7-.2v-.7c0-.3.4-.6.5-1,.3-1.4-.5-2.8-1.9-3h.2ZM238.5,354.4c-4.1,0-4.9-6.1.3-6.5,1.1,0,4.3-.3,4.3,1.4s-2.5,5.1-4.5,5.1h0Z"/>
    <path class="st0" d="M263.7,349.7c-.6.5-1.3-.7-1.9,0-.4.5,0,1.1.5,1.4,1.2.6,2.7,0,3.1-1.3v-.6c0-.4.5-.7.5-1.2.2-1.6-.8-2.5-2.3-2.9-.3,0-1-.2-1.3-.2-.9,0-1.9.4-2.2,1.3,0,.4,0,1.1-.2,1.3,0,0-1.3.7-1.6.7-1,0-1.8-.3-2.9-.2-8.1.3-6.6,10.2-.2,9.6,2.7-.2,5.5-3.9,5.6-6.5,0-.9,0-1.3-.6-2.1.5-.2,1.5-.7,1.5-1.2s-.3-.6-.2-1c.3-.8,1,0,1.3,0,.5,0,.8-.3,1.3.2.8.8-.2,1.2-.3,1.6,0,.3,0,.9-.2,1.1h.1ZM257,355.2c-2.2,2.2-6.3.2-5.5-3.1.5-2,2-2.5,3.9-2.6.8,0,3.4,0,3.8.8.5,1.1-1.4,4.1-2.2,4.8h0Z"/>
    <path class="st0" d="M236.2,340.1c1.8,0,3.6-2.1,4.3-3.6,1.7-4-1.1-5.8-2-9.4-.2-.9,0-2.6-1.4-2.3-1.3.3-3.1,2.3-3.6,3.6-1.5,4.1,1.6,5.7,2,9.5,0,.8-.4,2.2.8,2.3h0ZM235.1,328.5c.2-.3,1.5-2.1,1.8-1.8,0,.7.2,1.4.5,2.1.8,2.4,2.7,3.8,1.9,6.6-.3,1.1-1.2,2.3-2.2,2.7,0-.7-.2-1.5-.4-2.2-.7-2.7-3-4.2-1.6-7.4Z"/>
    <path class="st0" d="M264.1,339.9c3.1-1,4.6-5.2,3.4-8.2-.8-1.9-1.6-2.8-2.2-5.1-.2-.9,0-2.1-1.3-1.9-.9.2-2.5,1.6-3,2.4-2.8,4.3.9,6.7,1.4,10.9,0,1.3-.4,2.5,1.6,1.9h0ZM263.5,326.8c.3,0,.4,1,.5,1.3.2.7.4,1.4.7,2,.6,1.4,1.6,2.3,1.7,4,0,1.7-.9,3.5-2.5,4.2,0-1.5-.5-2.9-1.1-4.2-.2-.4-.6-.9-.8-1.3-1-2.2-.4-4.4,1.5-5.8v-.2Z"/>
    <path class="st0" d="M244.5,353.4c-2.7,2.6,1.3,6.6,3.9,4,2.5-2.5-1.3-6.6-3.9-4ZM246.9,356.6c-2,.5-2.2-2.2-.6-2.4,1.6-.3,2,2.1.6,2.4Z"/>
    <path class="st0" d="M267.4,351.5c-2.1,0-4,1.8-3.9,3.9,2.1,0,3.9-1.8,3.9-3.9Z"/>
    <path class="st0" d="M229.9,351.8c1.5,1,3-1.1,1.8-2.3-1.4-1.4-3.5,1.2-1.8,2.3Z"/>
    <path class="st0" d="M255.6,345.6c1.1-1.5-1-3.1-2.2-1.9-1.4,1.5,1,3.5,2.2,1.9Z"/>
    <path class="st0" d="M264.3,343.6c1-.3.7-2-.6-1.7-1,.2-.6,2.1.6,1.7Z"/>
  </g>
  <g>
    <path class="st0" d="M380.1,329.6c-.2-.9-.4-1.8-1-2.6-.6-1-5-5.4-6-6-.8-.5-1.6-.7-2.5-1h-1.6c-.5,0-1.6.4-2,.6-1.5.7-2.6,2.2-3.8,3.3-13.5-6.8-29.9-2-37.8,10.7-3.3,5.3-4.6,11.3-4.3,17.5,0,.6.1,2.4.8,2.6,1.7.5,1-1.9,1-2.7-.7-18,14.1-32.2,32.2-29,16.4,2.9,26.5,20.3,20.8,36.1,0,.9,1.2,1.2,1.7.5.2-.3.4-1,.5-1.4,2.2-6.9,1.4-15-1.9-21.4,1.1-1.2,2.6-2.3,3.3-3.8.2-.4.6-1.5.6-2v-1.5h0ZM375.2,335.2c-2.6-4.2-6.1-7.8-10.4-10.4,1.3-1.2,2.3-2.8,4.3-3.1,1.3-.1,2.4.2,3.4,1s4.9,4.7,5.3,5.7c1.4,3-.7,4.9-2.7,6.8h0Z"/>
    <path class="st0" d="M367,364.2c12.6-15.2.7-37.7-18.9-36.2-15,1.2-24.2,17.3-18.1,31.1,6.6,14.8,26.7,17.6,37.1,5.1h0ZM344.8,330.4c15.8-4.2,29.8,10.9,24.5,26.3-4.8,14-23,18.2-33.6,7.7-11-11-5.9-30,9.1-34Z"/>
    <path class="st0" d="M374.6,362.3c-2.5,4.5-5.9,8.4-10.3,11.1-15.6,9.4-35.5,1.2-40.6-16-.2-.3-.7-.4-1.1-.3-.2,0-.4.3-.5.5-.2.4.4,2,.6,2.6.4,1,.8,1.9,1.2,2.8-1.4,1.5-3.1,2.7-3.7,4.7-.6,2.1-.2,4.2,1.2,5.9,1.1,1.4,5.1,5.3,6.6,5.9,3.9,1.5,6.4-.9,8.8-3.5,13.3,6.7,30.1,2,37.8-10.7.6-1,2.3-3.6-.2-3h.2ZM327.4,377.1c-1-.8-4.6-4.4-5.1-5.4-1.5-3.1.5-5,2.6-7,2.6,4.3,6.1,7.8,10.4,10.4-2.1,2.5-4.8,4.5-7.9,1.9h0Z"/>
    <path class="st0" d="M345.8,366.8c10,.8,8.2-12.2,0-11.4-6.7.7-8,10.8,0,11.4ZM342.9,363.6c.5-1.1,1.9-1.9,3.1-2.1,1.8-.2,3.4.5,4.3,2-1.7,2-5.6,2-7.4,0h0ZM348.9,357.8c1.3.8,1.9,2.2,2.1,3.7l-1.7-1.1c-2.2-1-4.5-.8-6.5.6,0,0-.7.8-.7.3.2-3.4,3.9-5.4,6.8-3.6h0Z"/>
    <path class="st0" d="M344.9,351c2.8-4.4-.7-10.1-5.9-9.5-1.5.2-3.1,1.1-4.1,2.3-4.4,5.4,5.6,14.1,10,7.3h0ZM343.5,345.4c.9,1.6.8,4.2-.7,5.4,0-3.4-2.8-6.2-6.2-6.1,1.8-2.2,5.5-1.7,6.9.7ZM335.7,346.6h0c1.4-.4,2.9,0,3.9,1s1.7,2.8,1.1,4.2c-2.1.4-5.9-3.2-5.2-5.2h.2Z"/>
    <path class="st0" d="M353.6,345.6c9.9.7,8.5-11.4.8-11.4s-8.8,10.8-.8,11.4ZM357.8,342.9c-1.6,1.4-5.4,1.3-6.9-.4-.2-.4,1.2-1.5,1.5-1.7.5-.2,1.2-.5,1.7-.5,1.2,0,2.7.4,3.6,1.3s.7.8.1,1.3ZM358.9,340.3c-2.5-2.3-6.4-2.4-8.7,0,0-5.9,8.6-6,8.7,0Z"/>
    <path class="st0" d="M359.3,348.2c-4.8.5-7,6.4-4,10.1,4.6,5.7,13.8-2.6,9.5-8-1.3-1.6-3.5-2.4-5.5-2.1ZM355.9,355.6c-1.1-3.8,2.7-7,6.2-5.3,0,0,1.3.8,1.1,1-3.3-.2-6.2,2.8-6.1,6.1-.3.3-1.2-1.5-1.2-1.8ZM364.1,354.6c-.4,1.5-2.2,3.2-3.7,3.7-.3,0-1.3.3-1.4,0-.5-2.4,1-4.6,3.3-5.3h1.9c.4,0,0,1.3,0,1.5h0Z"/>
    <path class="st0" d="M364.6,347.3c2.2.3,3.8-1.6,3-3.7-.5-1.2-2.4-2.2-3.6-2.1-3,.3-1.8,5.4.7,5.7h0ZM363.9,343.3c.9,0,2.8,1.1,1.8,2-1.1,1-2.2-1.1-1.8-2Z"/>
    <path class="st0" d="M341.2,339.3c1.2.8,3.7,0,4.5-1.3,1.2-2-.5-4.4-2.7-4-2,.3-3.6,4.1-1.7,5.3h0ZM344,335.9c1.2,1-.9,2.2-1.9,1.9-.2-.9.9-2.7,1.9-1.9Z"/>
    <path class="st0" d="M338.7,356c-.5-1.3-2.6-2.3-4-2-2.4.5-1.4,4.7.5,5.5,2.2.9,4.3-1.3,3.5-3.5ZM335.6,357.5c-.3-.3-.8-1.7-.4-1.8.5,0,1.5.4,1.8.7.6.8-.5,2.1-1.4,1.1Z"/>
    <path class="st0" d="M352.7,351c.2-1.7-1-4.3-3-3.9-1,.2-2,2-2.2,2.9-.6,3.9,4.8,4.3,5.2,1ZM350.2,348.9c.5,0,1.5,2.4,0,2.6-1.6,0-1-2,0-2.6Z"/>
  </g>
  <g>
    <path class="st0" d="M480.1,329.6c-.2-.9-.4-1.8-1-2.6-.6-1-5-5.4-6-6-.8-.5-1.6-.7-2.5-1h-1.6c-.5,0-1.6.4-2,.6-1.5.7-2.6,2.2-3.8,3.3-13.5-6.8-29.9-2-37.8,10.7-3.3,5.3-4.6,11.3-4.3,17.5,0,.6.1,2.4.8,2.6,1.7.5,1-1.9,1-2.7-.7-18,14.1-32.2,32.2-29,16.4,2.9,26.5,20.3,20.8,36.1,0,.9,1.2,1.2,1.7.5.2-.3.4-1,.5-1.4,2.2-6.9,1.4-15-1.9-21.4,1.1-1.2,2.6-2.3,3.3-3.8.2-.4.6-1.5.6-2v-1.5h0ZM475.2,335.2c-2.6-4.2-6.1-7.8-10.4-10.4,1.3-1.2,2.3-2.8,4.3-3.1,1.3-.1,2.4.2,3.4,1s4.9,4.7,5.3,5.7c1.4,3-.7,4.9-2.7,6.8h0Z"/>
    <path class="st0" d="M467,364.2c12.6-15.2.7-37.7-18.9-36.2-15,1.2-24.2,17.3-18.1,31.1,6.6,14.8,26.7,17.6,37.1,5.1h0ZM444.8,330.4c15.8-4.2,29.8,10.9,24.5,26.3-4.8,14-23,18.2-33.6,7.7-11-11-5.9-30,9.1-34Z"/>
    <path class="st0" d="M474.6,362.3c-2.5,4.5-5.9,8.4-10.3,11.1-15.6,9.4-35.5,1.2-40.6-16-.2-.3-.7-.4-1.1-.3-.2,0-.4.3-.5.5-.2.4.4,2,.6,2.6.4,1,.8,1.9,1.2,2.8-1.4,1.5-3.1,2.7-3.7,4.7-.6,2.1-.2,4.2,1.2,5.9,1.1,1.4,5.1,5.3,6.6,5.9,3.9,1.5,6.4-.9,8.8-3.5,13.4,6.8,30.1,2,37.9-10.8.6-1,2.2-3.5-.3-3h.2ZM428.3,377.7c-1-.5-4.5-4-5.3-5-2.6-3.1-.6-5.8,1.9-7.9,2.6,4.3,6.1,7.8,10.4,10.4-2,2.1-3.9,4.2-7,2.6h0Z"/>
    <path class="st0" d="M435,344.3c.8.8,4.3,3.2,5.4,3.9,1.9,1.2,4,1.4,6,.2,1.8-1.1,2.7-3.3,1-4.9-.8-.8-4.9-3.7-6-4.3-1-.5-2.1-.8-3.2-.7-2.4.3-5.1,2.4-3.8,5,0,.2.3.5.5.7h0ZM436,342c0-.9,1.6-1.6,2.4-1.7.8,0,1.6,0,2.3.5,1.2.7,4.1,2.7,5.1,3.7,1.1,1,.7,1.8-.4,2.5-.9.5-2,.6-3,.3-.8-.2-4.9-3.2-5.7-3.9-.5-.5-.8-.6-.7-1.4Z"/>
    <path class="st0" d="M462.5,343.9c-.9,0-1.6.5-2.1,1.1-.9,1-4.1,5.5-4.5,6.7-1.1,3.7,2.4,8.6,5.5,5.4.9-.9,3.6-4.7,4.2-5.9,1.4-2.6.3-7.5-3.1-7.3ZM460.2,355.9c-1.6,1.3-2.8-1.2-2.8-2.6s0-.8.2-1.2c.3-.8,3.4-5.3,4.1-6,.2-.2.5-.5.9-.5,1,0,1.8,1.6,1.9,2.5.2,2.7-3.1,5.4-4.3,7.7h0Z"/>
    <path class="st0" d="M447.3,339c.9.7,5.2,3.1,6.3,3.5,2.2.8,4.7.4,6.2-1.4,1.7-2,.7-3.8-1.3-4.9-2-1.2-5.8-3.6-8.1-3.3-2,.2-4.5,1.9-4.3,4.1,0,.8.5,1.6,1.1,2.1h.1ZM450.6,334.6c.8,0,1.3,0,2,.4,1.3.5,4.4,2.2,5.5,3,1.6,1.1,0,2.6-1.3,3-.7.2-1.3.3-2.1,0-1-.3-5.2-2.6-6.2-3.3-1.9-1.3.5-3,2-3.2h0Z"/>
    <path class="st0" d="M444.9,360c1.7-.6,3.1-2.4,3.3-4.2.2-1.7-1-3.2-2.7-3.3-1.7-.2-5.6-.2-7.2,0-4.5.6-6.7,7.5-1.6,7.9,1.8.2,6.6.2,8.2-.5h0ZM435.7,356.3c.5-1.1,1.6-1.9,2.7-2.1,2.2-.3,4.8,0,7,0,2.3,1,0,3.8-1.6,4.3-1.2.3-5.9.3-7.2.2-1.4-.2-1.4-1.2-.9-2.3h0Z"/>
    <path class="st0" d="M453.1,359.8c-3.3.6-2.5,5.8,1,5.2,3.3-.6,2.6-5.8-1-5.2ZM454.2,363.1c-.8.7-1.9-.5-1.2-1.3.7-.9,2.3.4,1.2,1.3Z"/>
    <path class="st0" d="M452.3,350c4,.6,4.1-5.9,0-5.2-2.7.5-2.7,4.8,0,5.2ZM452.5,346.5c1.3-.3,1.5,1.5.4,1.7-1.2.2-1.5-1.5-.4-1.7Z"/>
    <path class="st0" d="M442.9,363.2c-2.1,2.1.6,5.7,3.3,4.1,3.3-2-.5-6.9-3.3-4.1ZM444.4,365.8c-.7-.4-.7-1.4,0-1.6,1.8-.5,1.4,2.3,0,1.6Z"/>
    <path class="st0" d="M435,349.4c.2-.7-1.2-2.1-1.7-2.1s-.8.4-.9.9c0,.7,2.1,2.8,2.6,1.2Z"/>
    <path class="st0" d="M443.2,335.8c.4,0,1.4-1,1.5-1.4.2-.7-.4-1.3-1.1-1.1-.2,0-1.4,1.3-1.4,1.5-.2.7.4,1.2,1.1,1.1h0Z"/>
    <path class="st0" d="M452.4,356.9c.4-.3.4-.8,0-1.2,0,0-1.1-1.1-1.2-1.2-.2,0-.5,0-.7,0-1.5.5.6,3.3,1.8,2.4Z"/>
    <path class="st0" d="M463.8,359c0,0-.3-.2-.5-.2-.7,0-2.7,2.1-1.1,2.6.9.3,2.8-1.7,1.6-2.5h0Z"/>
    <path class="st0" d="M463.8,341.9c.2,0,1.1-1.1,1.2-1.3.2-.8-.4-1.4-1.2-1.2,0,0-1.3,1.2-1.3,1.3-.3.9.5,1.5,1.3,1.1h0Z"/>
  </g>
  <g>
    <path class="st0" d="M77.8,438.3c0,3.1-3.6,5.3-6.5,4.5-1.4-.4-3.5-2.3-3.5-3.8v-9.9h-2v3l-2.8-2c-8.6-5.7-19.6-5.2-27.8,1-.6.5-1.3,1.2-1.9,1.7,0,0,0,.2-.3,0-.5-1.2-1.5-2.1-2.6-2.8,10.7-10.7,29-10.5,39.4.5v8.5h2v-10h-.7c-.2-.1-2-1.9-2.4-2.3-11.7-9.6-28-8.5-39.1,1.3-.3.2-.9,1-1.1,1.1-.2,0-1.7-.1-2.2,0-5.8.5-7.5,7-5.7,11.7.1.3.5.9.6,1.1,0,.4-.6,2.4-.7,3-1.2,7.1.2,14.3,3.8,20.4.5,2.7-1.7,9.5,2.6,9.6,1.8,0,2.5-1,3-2.5,0,0,0-.2.2-.2,11,10.2,28.8,10,39.8,0,.3.4.3.8.5,1.2,1.3,2.3,5.1,1.5,5.4-1.1.3-2.1-.3-4.9-.2-7.1,3.6-6,5-13,4-20,0-.9-.8-2.9-.7-3.5,0-.8,1.1-2.3,1.1-3.5v-9.4h-2v9.3h-.2ZM35.4,433.3c0,0,.2-.3.4-.2l-1.2,1.5-.8,1.8v-1.4c.5-.5,1-1.2,1.6-1.6h0ZM33.4,440.6c.7-.6,2-.5,2.4-1.1.5-.6-.2-1.5,0-2.2,0-3.4,5-4.6,6.6-1.5.3.6.3,1.7.8,2,.4.2,1.2,0,1.7.2,2.5.4,3.6,3.1,2.4,5.3-.3.6-.8.7-.7,1.5,0,.6.7.7,1.1,1.1s1.2,1.5,1.2,2.3-.4,1.9-.6,2.3c-.4.9-1.8,1.1-1.9,2,0,.7.8,1,1.2,1.4,1.5,1.4,1.7,3.7.2,5.2s-1.6.6-1.7,1.6l.6,7.5h-1c0,0-4.9-27.2-4.9-27.2l-2,.2,4.9,27.4-1.1.2-2.2-7.4c-.3-.5-1.4-.5-2-.9-1.4-.9-1.8-2.6-1.3-4.2.2-.7.9-1.1.4-1.9-.3-.5-1.6-.4-2.3-.7-2-.8-2.8-3.2-1.7-5,.3-.6.8-.7.7-1.5,0-.6-1.4-1.2-1.8-2.1-1.1-2.2.2-2.7,1.1-4.5ZM57.6,437.7c1.3.7,2,2.3,1.6,3.7-2.8,1.3-4.5,3.5-4.9,6.6v1.1c0,0-1,1.1-1.2,1.4-.8,1.1-1.5,3.2-1.3,4.6.2,1.1,1.7.8,2.5.8-.3,1-1.2,2-2.2,2.3-.6.2-1.2,0-1.8.4.6-1.4.7-2.8,0-4.3-.2-.4-.7-1-.7-1.3,0-.8.7-2.5.9-3.3.2-.7,0-1.4.2-2,.6-3,1.4-5.9,2.1-8.9l-2-.4-1.5,6.4-.4-.4c1.8-3,.6-6.6-2.6-7.9-.4-.2-.8-.2-1.1-.4.6-.2,1.3-.4,1.9-.3.6,0,1.1.5,1.7,0,.4-.3.3-1.1.5-1.6.8-2.7,4.4-3.3,6.1-1,1,1.3.5,1.9.5,3.2s.9,1,1.5,1.3h.2ZM48.8,469.3c.5,0,2.5.4,3.3.4,2.4.2,4.8,0,7.2,0l-2.1,1c-4.6,1.6-9.5,1.7-14.1.2l5-.9c.3,0,.6-.5.8-.5h-.1ZM48.3,461.1l1.7-1.7-1.4,4.5c-.2.2-.2,0-.2-.2,0-.8,0-1.8,0-2.6ZM49.5,467.4l1.1-2.9,3.7.4c2.3,0,4.6-.2,6.8-.7,1.6-.3,3.1-.9,4.7-1.3,0,3.2-2,3.8-4.6,4.3-3.9.8-7.9.8-11.8.2h0ZM58.7,449.1v3.6c-.4-.3-2.8-2.1-2.7-2.4.8-.6,1.8-1.1,2.7-1.2ZM56.3,447.7l.9-2.1c.2,0,1.4,1.3,1.6,1.5-.9,0-1.7.4-2.5.6ZM57,453.9h-3c0-.3.5-2,.7-2l2.3,2ZM56.3,455.9h3.7c-2.4,2.6-5.5,4.4-8.7,5.7l.4-1.2c2.3-.4,4.3-2.1,4.6-4.5ZM62.6,460.5c-.4.5-2,1.7-2.6,1.9-1.8.5-4.2.4-6.1.5.7-.6,1.6-.9,2.4-1.4,1.5-.9,3.1-2.1,4.5-3.3.6-.5,1.3-1.4,1.8-1.8,0,0,0-.2.3,0,.7,1.3.8,3-.2,4.2h-.1ZM63.1,453.9l-.7-.3,2.2-2.2c.6.7.9,1.6,1.1,2.5,0,0-2.6,0-2.6,0ZM60.8,452.4v-3.4c.8,0,1.6.4,2.3.9l-2.3,2.5ZM61.2,446.4l-2.4-2.4c0-.2,2-1.1,2.4-.9v3.4h0ZM24.8,449.4c-.1,3.5-.1,7.3-.4,10.9,0,.2,0,.7-.3.8-2.2-5.5-3-11.6-1.5-17.5l2.2,1c0,1.6,0,3.2-.1,4.8h0ZM27.7,472.3c-.2.7-1.6.8-1.7-.3-.1-1.4.1-2.9.1-4.2.2-6,.5-12,.6-18v-3.2c.2,0,.2.7.3.9.2,3.4.1,7,.2,10.4.1,4,.4,8.1.5,12.1v2.3ZM21.9,438.4c-.3-3.3.5-6.9,4.3-7.4,4.8-.6,6.5,4.4,5.4,8.4-1.5,5.2-9.3,4.4-9.7-1ZM29,449.7c0-1.7,0-3.5-.1-5.2l1-.4c.1,1.3.8,2.4,1.7,3.3-1.8,3.3-.1,7.3,3.5,8.3-.8,3,.8,6,3.8,6.9.7,2.3,1.2,4.7,2,7,0,.2,0,.2,0,0-.7,0-3-1.6-3.6-2.1-2.8-2-7.5-7.2-7.8-10.7-.2-2.3-.2-4.9-.3-7.2h-.1ZM70.2,463c0,2.1-.2,4.2-.3,6.2,0,.2-1.6,1.6-1.9,1.9-10.6,9.2-27.1,9-37.3-.7-.8-.8-1-.9-1.1-2.1-.1-1.8,0-3.7-.1-5.6,2.1,3,4.5,5.6,7.6,7.5,11.2,7,26.2,3.6,32.9-7.7.2,0,0,.3,0,.4h.1ZM70.3,457.6c-.5,1.8-1.5,3.4-2.6,4.9-.5-2.1-1.1-2.4-3.1-1.5.8-1.7.9-3.4,0-5.1.6,0,1.6,0,2.2,0,1.1-.2.8-1.7.6-2.4-.3-1.6-1-3-2.1-4.2l-1.2-1.1,3.7-3.7c.7-1-.4-1.7-1.1-2.2-1.6-1.1-3.6-1.5-5.5-1.4,0-2.2-1.2-4.1-3.1-5.1,0-2-.5-3.8-2.1-5-3.1-2.5-7.6-.9-8.7,2.9-1.2-.2-2.5.2-3.6.8-1.4-2-3.5-2.9-6-2.3-.7.2-1.3.5-2,.8,8.5-7.4,22.3-6.4,29.8,2,0,3.1-.2,5.9,2.3,8.2.8.8,1.8,1.1,2.7,1.6l-.5,12.8h.2ZM63.3,446.3v-3.2c.8,0,1.7.4,2.4.9l-2.4,2.3ZM72.7,472.8c-1.3,0-.8-1.5-.8-2.2.2-8.3.6-16.5.7-24.8l.3,2.6c0,7,.4,14,.6,21,0,1,.7,3.5-.8,3.4ZM76,459.6c-.2.5-.4,1.1-.7,1.5l-.5-16.4,2.3-1.1c1.1,5.3.9,10.9-1,16h-.1Z"/>
    <rect class="st0" x="73.8" y="429" width="2" height="10"/>
  </g>
  <g>
    <path class="st0" d="M180,448.2c-.2-.7-.2-1.4-.3-2.2-1.7-12.9-12-23.5-24.8-25.6l-3.1-.4h-3.6l-4.4.6c-4.8,1-9.3,3.2-13,6.3l-6.1-6.1-1.4-.8h-1.1c-1.8.5-2.7,2.2-1.9,4,2,2.5,4.5,4.5,6.6,6.9-3,3.7-5.3,8.2-6.2,12.9-4.5,21.5,14.7,40.3,36.1,35.4,12.7-2.9,22.4-14.3,23.2-27.4v-3.7h0ZM122.3,423.8c-1.2-1.1,0-2.7,1.3-1.6,4.6,4.1,8.7,9.4,13.3,13.4,2.1,1.8,3.4,1.7,6,2,.6,0,1.6.2,1.9.6-3.1,1.2-5.5,3.8-6.9,6.8-.7-1.4-.4-3-.7-4.5-.3-1.2-1-2.5-1.8-3.5-3.9-4.6-9.2-8.6-13.2-13.2h.1ZM177.7,455.6c-2.1,11-11.1,20.1-22.2,22.2-22.2,4.3-40.2-17.6-31.6-38.6,1-2.5,2.6-4.8,4.2-7,1.9,2,4.2,3.9,6,5.9,2.3,2.7,1.2,4.6,2.3,7.6.3.7,1,2.6,1.9,2.5.9,0,.9-1.3,1.2-2,1.3-3.3,3.5-5.4,6.7-6.7.7-.3,2.1-.3,2-1.4,0-.8-1.9-1.5-2.5-1.7-2.8-1-4.9,0-7.5-2.1l-6-6c3.8-3,8.4-5.2,13.2-6,19.6-3.2,36.2,13.9,32.4,33.4h-.1Z"/>
    <path class="st0" d="M148.6,433.9c1.8.8,1.2-2.4,1.3-3.4.2-1.7,1.9-1.6,2.1-.1v39.7c.6,3.4,5.2,3.1,5.5-.4v-38c.8-.9,1.9-.5,2,.6v34.1c.7,3.5,5.5,3,5.5-.6v-28.2c.3-.8,1.2-1.1,1.8-.4.6.8,0,2.9.3,3.8.2.7,1.5.6,1.7-.3v-2.9c-.3-3.3-4.6-3.7-5.5-.6v28.7c0,.9-1.1,1.5-1.7.8,0,0-.2-.3-.2-.4v-34c0-3.4-4.6-4.1-5.5-.8v38.3c-.3,1.2-2,1.1-2,0v-39.1c-.2-3.9-5.3-4.1-5.6,0,0,.7-.2,3.1.5,3.4h-.2Z"/>
    <path class="st0" d="M141.5,425.2c-1.2.4-4.8,1.9-5.7,2.8-.7.7,0,1.6.7,1.6,11.5-7.4,26.8-4.1,34.1,7.4,9.1,14.4,1,33.6-15.6,37.1-19.6,4-35.6-15.8-27.3-34.1.3-.6,1.7-3,1.8-3.3,0-.8-.9-1.3-1.5-.8-.2,0-.8,1.2-.9,1.5-8,14.1-1.1,32.1,14.1,37.5,15.6,5.5,32.6-4.7,34.8-21,2.6-19.4-15.9-34.8-34.5-28.5v-.2Z"/>
    <path class="st0" d="M132.3,460c-.3,1.7,0,3.3,1.1,4.7,1.3,1.6,3.5,2.5,5.5,2.1.6,4.3,5.8,6.3,9.1,3.5,2.8-2.4,2.5-6.9-.6-8.9,4.8-3.6,2.2-10.9-3.9-10.3-.8,0-2.1.4-1.9,1.4.2,1.2,1.4.4,2,.4,2.8-.4,4.9,1.7,4.5,4.5-.3,2.1-2.8,3.6-4.8,2.9-.5-2-1.9-3.7-3.9-4.3,1.1-4.9-4.3-8.7-8.5-5.9-3.9,2.5-3,8.6,1.4,9.9ZM141.8,465.3c.7-.7,1.3-1.9,1.5-2.9,3.3-1,6,2.3,4.5,5.4-1.5,3-6.1,2.6-7-.6-.4-1.4.3-1.1,1-1.8h0ZM138.8,457.7c.3-.2,1.2.4,1.5.7,1.9,1.5,1.8,4.4,0,5.9-2.9,2.3-6.9-.4-6.1-3.9,1.4-.2,2.8-.6,3.8-1.6s.7-1,.8-1h0ZM133.2,451c5.7-.9,6.1,7.3,1,7.6-4.8.2-5.4-6.9-1-7.6Z"/>
    <path class="st0" d="M167,444.2v11.1c.8,3.2,5.2,2.9,5.5-.5.2-2.3.2-6.9,0-9.3,0-.2,0-.7-.3-.8-.4-.4-1.4-.2-1.5.4v9.7c-.2,1.2-1.9,1.3-2,0v-10.5c-.3-.9-1.4-1.1-1.7-.1Z"/>
    <path class="st0" d="M145.6,447.6c.9.3,1.6-.7.9-1.5-.2-.2-2.8-1.9-2.9-2-.3,0-.6,0-.8,0-.6.2-.6,1-.2,1.4.2.2,2.8,2,3.1,2.1h0Z"/>
    <path class="st0" d="M130.3,447.4c.3,0,2.6-.7,2.9-.9.8-.5.4-1.7-.7-1.5-.4,0-2.5.7-2.8.9-.7.5-.3,1.6.6,1.6h0Z"/>
    <path class="st0" d="M148.2,445.6c2,.2.5-3.2-.7-2.9-.4,0-.7.5-.7,1s.8,1.9,1.4,1.9Z"/>
    <path class="st0" d="M143.6,431.7s-1.1.7-1.3.9c-.8.7,0,1.9.9,1.5.2,0,1.3-.9,1.4-1.1.4-.8-.2-1.5-1.1-1.3h0Z"/>
    <path class="st0" d="M132.3,442.4c.3-.6-.3-1.7-.7-2.1-.6-.6-1.5-.2-1.5.6s1.5,2.9,2.2,1.5Z"/>
    <path class="st0" d="M145.2,428.5c-1,.2-.8,2,.4,1.7,1.1-.2.8-2-.4-1.7Z"/>
    <path class="st0" d="M150.3,441.7c.7-.9-.5-2.1-1.3-1.3s.6,2.1,1.3,1.3Z"/>
    <path class="st0" d="M141.8,449.6c1.4.2,1.3-2,0-1.7-.9.2-.9,1.6,0,1.7Z"/>
    <path class="st0" d="M139.3,430.7c-.8.7.4,2.2,1.3,1.3.8-.8-.4-2.1-1.3-1.3Z"/>
    <path class="st0" d="M148.7,449c-.7.2-.8,1.2-.2,1.5,1.4.9,2-2,.2-1.5Z"/>
  </g>
  <g>
    <path class="st0" d="M277.8,468.6c.7-.7-.2-2.2,0-2.6,0,0,1-.7,1.2-1,1.3-1.5,1.5-3.6.3-5.3-.2-.3-1.1-1-1.2-1.3,0-.5,0-1.9-.2-2.6-.9-6.4-6.3-11.2-12.7-11.6-2.7-.2-6.5-.2-9.2,0-.8,0-1.7.3-2.5.4l.2-3.3h2.4c.2,0,.7-.5.7-.8,0-1.9.2-4,0-5.9,0-.3-.3-1-.7-1h-15.8v-7.7h7.1c.3,0,.6-.5.7-.8,0-.8,0-3.1,0-4s-.2-.8-.7-1h-10.3c-.9,0-2.5,1.5-2.5,2.3v11.2h-13.8c-.4,0-.6.7-.7,1-.2,1.9.1,4,0,5.9,0,.3.5.8.7.8h2.4l3.8,37.8c0,.5.5.8,1,.8h44.8c1.9-.2,3.3-1.3,4.1-3.1,0-.2.2-.8.2-.8h.9c1.1-.2,2-1.1,2.1-2.2v-3.1c-.2-1-1.1-2-2.1-2.3v.2ZM277.3,464.1c-.2.2-1,.6-1.2.6h-11l5.9-4.3c.2,0,.5-.4.6-.4.5-.2,3.7,0,4.4,0,2,.2,2.9,2.8,1.3,4.2h0ZM241.4,461.8c0,1.3.4,2.7,1.3,3.6-3.7,2.3-8.6,1.2-10.8-2.5-3.7-6.2,2.3-13.6,9.1-11.3.6.2,3,1.5,3,2-.3.8-.3,1.7-.7,2.4h-10.7v1.9h10.6c.4.4-1.1,1.9-1.3,1.9h-7.4v1.9h6.9ZM245.4,459.8c.6,0,3.9,0,4.4,0,.2,0,.4.4.6.4l5.9,4.3h-11c-2.6-.4-2.7-4.5,0-4.8h0ZM253.1,459.8h15.2l-7.6,5.5s-7.6-5.5-7.6-5.5ZM245.9,466.6h12.9c.7,0,1.2,1,1.9.9.6,0,1.2-.9,1.8-1h12.7c1.2,0,1.2,1.8,0,1.9h-29.1c-1.1,0-1.3-1.6-.2-1.9h0ZM256.2,446.3c2.9-.2,8.9-.3,11.5.4,4.9,1.3,8.5,6.1,8.5,11.2h-30.9c0-6.1,4.8-11.2,10.9-11.6ZM236.5,422.8c0-.1.5-.7.7-.7h9v1.9h-7.1c0,0-.7.5-.7.7v9h-1.9s0-10.9,0-10.9ZM222.1,439.5v-3.9h32.8v3.9h-32.8ZM228.7,478.2l-3.6-36.7h26.8l-.4,4c-2.9,1.3-5.1,3.4-6.6,6.2-4.6-4.1-11.9-2.8-14.9,2.7-4,7.4,2.7,16,10.8,14,.9-.2,1.7-.6,2.5-.9-.2.3.3,1.3.2,1.3,0,0-1,.4-1.5.9-.9,1-.9,3.4-.7,4.7.2.9,1.1,1.8,2,2h1s.5,1.7.9,1.9h-16.5ZM272.6,478.2h-23.8c-1.1,0-2.6-1.4-2.6-2.5s1.4-1.3,1.9-1.3h2.1c.8.2,1.2.8,1.8,1.2,1.5.9,4.2,1,5.7,0,.9-.5,1.1-1.2,2.3-1.3h1.9c.8.2,1.3.9,2,1.3,1.5.8,4,.8,5.5,0,.8-.5,1.1-1.2,2.2-1.3.6,0,1.5,0,2.1,0,.4,0,1.6,1,1.6,1.2,0,1.1-1.5,2.5-2.6,2.5h0ZM277.9,474.2c-.8.8-2.2-.8-2.8-1.2-1.5-.9-4.2-.9-5.7,0-.6.4-1,1-1.7,1.2-.5,0-1.5,0-2.1,0-1,0-1.3-.9-2.1-1.3-1-.6-2.3-.7-3.5-.6-2.8.2-2.8,2.3-5.9,1.9-1.1,0-1.4-.8-2.2-1.3-1.5-.9-4.2-.9-5.7,0-.7.4-1.8,1.7-2.7,1.1-.3-.2-.3-2.4-.2-2.8,0-.5.4-.9.9-.9h33c.4,0,.8.3.9.7,0,.4,0,2.8,0,3v.2Z"/>
    <rect class="st0" x="256.8" y="448.2" width="1.9" height="1.9"/>
    <rect class="st0" x="262.6" y="448.2" width="1.9" height="1.9"/>
    <rect class="st0" x="253.9" y="452.1" width="1.9" height="1.9"/>
    <rect class="st0" x="259.7" y="452.1" width="1.9" height="1.9"/>
    <rect class="st0" x="265.5" y="452.1" width="1.9" height="1.9"/>
  </g>
</svg>