<?xml version="1.0" encoding="UTF-8"?>
<svg id="_레이어_1" data-name="레이어_1" xmlns="http://www.w3.org/2000/svg" version="1.1" viewBox="0 0 100 100">
  <!-- Generator: Adobe Illustrator 29.1.0, SVG Export Plug-In . SVG Version: 2.1.0 Build 142)  -->
  <defs>
    <style>
      .st0 {
        fill: #00549e;
      }
    </style>
  </defs>
  <path class="st0" d="M66.8,21.8c-3.6-1-11.7-1-15.4,0-10.1,2.6-15.9,13.5-12.5,23.4-5.1.3-10.7,1.2-14.9,4.3-2.1,1.5-3.8,3.5-4.1,6.2.7,5.9-2.1,13.8,2.8,18.3,7.4,6.7,24.5,6.7,32.6,1.3,1.8-1.2,4.5-4,4.5-6.2v-11.8c7.4.6,14.5-3,17.9-9.6,5.3-10.1,0-22.6-11-25.7ZM41.6,65c-5.2.2-18.9-1.7-19.5-8.5-.6-6.5,11.3-9.1,16.1-9.4,5.3-.3,19.1,1.5,19.8,8.4.7,6.7-11.6,9.3-16.4,9.5ZM54.9,29.1c7.7-.7,13.3,7.1,10.1,14.2-1.4,3.1-4.8,5.5-8.2,5.7-1.7.1-2.3-.7-3.7-1.4-1-.5-3.7-1.1-4.2-1.5-.6-.4-1.7-2.3-2-3-2.7-6.2,1.4-13.4,8.1-14ZM59.7,54.6c-.2-1.4-1-2.6-2-3.6,10.5-1.7,14-15.1,5.4-21.5-9.3-6.9-22.1,2.4-18.4,13.5.3.9.8,1.8,1.3,2.7l-4.7-.5c-4.8-12.2,6.1-24.7,18.9-21.4,4.6,1.2,8.6,4.6,10.5,8.9,4.1,9.1-1.2,19.8-10.8,22Z"/>
  <path class="st0" d="M45.5,51.7c-.4.4-.6,1-1.1,1.4-.4-1.2,0-3.9-1.6-4-.8,0-3.6-.1-4.2,0-1.3.3-.4,2.3-.3,3.2-.7-.4-1.4-2.2-2.2-2.2-.4,0-4.1.9-4.5,1.1-1.6.7.2,2.2.1,2.3-4.8-1.6-6.3,3.3-2.9,6.3,4.3,3.8,13.1,4,18.3,2.2.6-.2,2.1-.8,2.5-1.2.3-.3,2.5-3.3,2.7-3.8,2.3-4.8-3.2-9.4-6.9-5.2ZM34,60c0,.2,0,.2-.2.2-1.6-.4-5.2-2.4-4.8-4.4.3-1.3,2.6-.3,3.3,0,.8.4,1.5,1,2.4,1.4-.5.9-.6,1.6-.7,2.7ZM40.2,59.6c-.1.5-.2,1-.2,1.5-.6,0-3.7,0-3.9-.5-.3-.6.2-1.8.6-2.3.9-1.1,2.3-1.5,3.6-.9,1.3.6.3,1.2,0,2.2ZM42.3,56.3l-1.4-1-.7-4.3h1.9l.7,4.3-.6.9ZM50.9,55.4c-.2.9-1.3,2-1.8,2.8-.9-1.3-2.5-2.1-4.1-2.1l2.2-3.3c2-1.8,4.2.3,3.7,2.7Z"/>
  <path class="st0" d="M51.7,42.1c.3.2,1.2.5,1.2.5,0,.1,0,1.3.4,1.9,1.3,2.6,5.1,1.9,5.7-.9,0-.3,0-.7,0-.9,0,0,1-.4,1.2-.5,2.3-1.3,2.3-4.6,0-5.9-.3-.2-1.2-.5-1.2-.5-.1-.2,0-1.6,0-2-.3-1.6-1.9-2.7-3.5-2.4-1.2.2-2.3,1.4-2.5,2.5,0,.4,0,1.7,0,1.9,0,0-1,.4-1.2.5-2.3,1.3-2.3,4.6,0,5.9ZM55,43.1c0-.2,0-.8,0-.9,0,0,.8-.6.9-.6.3,0,1,.6,1,.9.2,2-1.8,2-2,.6ZM58.2,37.6c2.1-.3,2.4,2.8.5,3-1.9.2-2.2-2.7-.5-3ZM55.7,33.1c.6-.1,1.2.2,1.3.8,0,.3,0,1.7,0,2,0,0-.9.7-.9.7-.1,0-1-.6-1-.8-.1-.7-.2-2.5.7-2.7ZM53.2,37.6c2.1-.3,2.4,2.8.5,3-1.9.2-2.2-2.7-.5-3Z"/>
</svg>