<?xml version="1.0" encoding="UTF-8"?>
<svg id="_레이어_1" data-name="레이어_1" xmlns="http://www.w3.org/2000/svg" version="1.1" viewBox="0 0 100 100">
  <!-- Generator: Adobe Illustrator 29.1.0, SVG Export Plug-In . SVG Version: 2.1.0 Build 142)  -->
  <defs>
    <style>
      .st0 {
        fill: #00549e;
      }
    </style>
  </defs>
  <path class="st0" d="M64.1,78.3v-6.7c5.4-3,9.6-8,11.6-13.7.6-1.8,1.8-6.5,1.2-8.2-.2-.5-1-1.2-1.6-1.2h-3.1v-10.2c0-.3-.6-.5-.9-.5s-.9.2-.9.5v10.2h-2.9v-16.9h2.9v3.2c0,.3.6.5.9.5s.9-.2.9-.5v-3.2h4c.1,0,.7-.4.9-.5.2-.3.3-.9.4-1.3.1-1.3.1-3.8,0-5.1-.2-3-3.2-1.6-5.3-2-.3-1.3-1.3-2.2-2.6-2.6h-1.2c-.6.2-1.2.4-1.7.9l-1.8-.9h-1.2l-1.8.9c-.5-.5-1.1-.7-1.7-.9h-1.2c-.7.2-1.1.5-1.7.9-.5-.4-1-.7-1.7-.9h-1.3c-1.3.4-2.2,1.3-2.5,2.7h-27c-1.2,0-1.6.8-1.7,1.9,0,1.1-.1,5,.2,5.9.1.4.3.7.8.9.9.4,5.3,0,5.5.1v1.2c-1.1,0-2.6-.4-3.7.4-2.1,1.5,0,4.2,1.6,5.2l.4,2.1c-1.5-.1-4.2.3-4.3,2.2-.3,3,5.2,4.7,7.6,4.7l.4,1.2h-3.8c-.5,0-1.5.9-1.6,1.4-.3,1,.1,3.3.4,4.4,1.4,7.3,6.1,13.7,12.6,17.3v6.5c.2.9,1,1.7,1.9,1.7,4.2-.2,8.6,0,12.9.1,2,0,4,0,6,0,.7,0,1.4,0,2.1-.1,1,0,1.7-.5,2-1.5ZM72.3,24.4h3.4v1.9h-3.4v-1.9ZM67.6,23.1c0-.8,1-1.5,1.8-1.3.4,0,1.1.7,1.1,1.1v3.4h-2.7l-.2-.2v-3ZM63,22.7c.2-.9,1.6-1.3,2.4-.6,0,0,.4.6.4.6v3.6h-2.8c.2-1-.2-2.6,0-3.6ZM58.4,22.9c0-.4.8-1,1.1-1.1.7-.1,1.8.5,1.8,1.2v3.2l-.2.2h-2.7v-3.4ZM53.7,23.1c0-.8,1-1.5,1.8-1.3.4,0,1.1.7,1.1,1.1v3.4h-2.7l-.2-.2v-3ZM25.1,24.4h26.8v1.9h-26.8v-1.9ZM25.1,29.8v-1.8h50.5v1.8H25.1ZM36.7,36.9c.4,0,.7.2,1.2.1.9,0,1.1-.5,2,.2.5.4.6,1.2,1,1.4.8.4,1.5-.6,2.5.2.9.6.6,1.9,1.3,2.1,1.1.3,1.3-1.1,2.8-.7,1.5.4,1,3.1,2.6,2,.6-.4.8-.9,1.8-.7v2h-1.7c-.2,0-1.1.6-1.3.6-.9-.9-1.9-1.3-3.2-1.1-.4,0-1.2.5-1.4.4-.2,0-1-.9-1.6-1.1-1-.3-1.8,0-2.4,0-.2,0-.9-.6-1.3-.8-1.6-.7-2.3,0-3.9.2l-1.4-2.7c.4-1.1,1.7-1.9,2.8-1.9ZM35.6,31.6h16.4v8.2c-.7,0-1.3,0-1.9.3-1-1.5-2.7-2.1-4.4-1.5-.9-1.2-2.2-2.2-3.8-1.8-.5-1-1.8-1.7-2.9-1.8-.7,0-1.4.5-2.1.1-.2-1.3-.6-2.5-1.2-3.6ZM34.7,43.6c.7-.3,1.1-.1,1.7-.3.5,0,.8-.5,1.4-.5,1.3,0,1.4,1.3,2.1,1.5.7.2,1.1-.8,2.4-.3,1,.4.9,2.4,2.2,1.8.8-.4.8-1.5,2.3-1.1,1.2.3.9,1.8,1.9,1.8.7,0,.8-.6,1.2-.9.6-.5,1.5-.5,2.2,0,.4.3.3.6,1,.5.9,0,.8-1.5,2.3-1.5,1,0,1.3,1,2,1,.7,0,.7-.4,1.1-.8.9-.8,2.4-.4,2.8.8,0,.2,0,.5.1.7.3.7.9.5,1.5.7.8.2,1.5.7,1.5,1.6h-30.7c-1.6-1.4-1-4.1.9-4.9ZM53.7,43.3v-11.7h2.9v11.5c-1-.3-1.9-.2-2.9.2ZM58.4,42.9v-11.3h2.9v11.3c-1-.2-1.9-.4-2.9,0ZM63,45.2v-13.7h2.8v15.5c-.2,0-.2-.3-.3-.5-.6-.7-1.5-1.3-2.5-1.3ZM26.9,34.6c.7-.4,1.5-.3,2.2,0,.8.2,2.1,1.1,2.6,0,.3-.7-.4-2.2-.3-3h2.1c.4.9,1.6,2.8,1.4,3.8,0,.3-.6.4-.9.6-.6.4-1,.8-1.4,1.3-1.4-1-2.9-2.2-4.5-.7-.4-.3-1.5-1.5-1.2-2ZM31,45.6c-1.6-.2-4.1-.7-5.2-2-1.2-1.4,1-1.5,2-1.4.7,0,1.7.6,2.2-.1.4-.6-.2-1.4-.3-2-.2-.7-.6-1.8,0-2.4,2,.4,3.1,2.7,3.9,4.5-.6.5-1.2.9-1.6,1.5l-.9,1.9ZM29.4,57.7h8.4c1,0,1.3-1.4.3-1.8h-9.3c-.3-.2-.7-2.9-.8-3.4,0-.7-.3-1.8,0-2.4h47.1c.3,0,.2,1.2.2,1.5,0,.5-.6,4.2-.9,4.3h-33c-.7.5-.4,1.7.5,1.7h32c-2,5.2-5.8,9.8-10.8,12.4h-23.2c-4.8-2.7-8.9-7.2-10.6-12.4ZM40.9,78v-1.4c-.1,0,14.2,0,14.2,0,.7,0,.8-1.8-.2-1.8h-14.1v-2.9h21.5v2.9h-3.3c-1,0-1,1.8-.2,1.8h3.6v1.2s-.3.2-.3.2h-21.1Z"/>
  <path class="st0" d="M30.1,52.4c-.6.2-.6,1.4,0,1.6,1.7.5,1.7-2.1,0-1.6Z"/>
  <path class="st0" d="M34.8,52.4c-.6.2-.6,1.4,0,1.6,1.7.5,1.7-2.1,0-1.6Z"/>
  <path class="st0" d="M39.5,52.4c-.6.2-.6,1.4,0,1.6,1.7.5,1.7-2.1,0-1.6Z"/>
  <path class="st0" d="M44.2,54c1.7.5,1.7-2.1,0-1.6-.6.2-.6,1.4,0,1.6Z"/>
  <path class="st0" d="M48.9,54c1.7.5,1.7-2.1,0-1.6-.6.2-.6,1.4,0,1.6Z"/>
  <path class="st0" d="M53.5,54c1.7.5,1.7-2.1,0-1.6-.6.2-.6,1.4,0,1.6Z"/>
  <path class="st0" d="M58.2,54c1.7.5,1.7-2.1,0-1.6-.6.2-.6,1.4,0,1.6Z"/>
  <path class="st0" d="M62.9,54c1.7.5,1.7-2.1,0-1.6-.6.2-.6,1.4,0,1.6Z"/>
  <path class="st0" d="M67.6,54c1.7.5,1.7-2.1,0-1.6-.6.2-.6,1.4,0,1.6Z"/>
  <path class="st0" d="M72.2,54c1.7.5,1.7-2.1,0-1.6-.6.2-.6,1.4,0,1.6Z"/>
</svg>