<?xml version="1.0" encoding="UTF-8"?>
<svg id="_레이어_1" data-name="레이어_1" xmlns="http://www.w3.org/2000/svg" version="1.1" viewBox="0 0 100 100">
  <!-- Generator: Adobe Illustrator 29.1.0, SVG Export Plug-In . SVG Version: 2.1.0 Build 142)  -->
  <defs>
    <style>
      .st0 {
        fill: #00549e;
      }
    </style>
  </defs>
  <path class="st0" d="M79.3,51.2c-.4-.1-1.2-.1-1.3-.2-.1,0-.5-.9-.7-1.1-3.1-4.4-7.7-6.9-13.1-7.1l-2.6-2.7,1.3-4.5c1.2-.2,2.2-.8,2.6-1.9.4-1,1.2-4.2,1.3-5.3,0-.8,0-1.3-.4-1.9-.1-.2-.4-.4-.5-.6,0-.5.7-2,.7-2.7,0-2.8-4.4-4.2-6.1-2.2-.9,1-.6,2.7-1,3.2-.1.2-1.2.6-1.7,1.2-.4.6-1.6,5.2-1.6,6-.1,1.2.3,2.1,1.3,2.7l-.6,3.3c-3.4-1.4-7.2-1.2-10.7-.2l-.6-3c.7-.5,1.4-1.5,1.4-2.4,0-.7-1.2-5.4-1.6-6.1-.5-1.1-1.7-1.2-1.9-1.5-.2-.3-.3-2-.6-2.6-1.2-2.7-6-1.6-6.4.9-.2,1.3.8,3,.7,3.4,0,.1-.3.3-.4.5-.2.4-.5,1-.5,1.4,0,.7,1.2,5.5,1.5,6.2.5,1,1.4,1.4,2.5,1.7l1.3,4.2c-1.6,1.1-2.9,2.7-3.9,4.3-5.3.2-10.2,2.6-13.3,6.9-3,0-4.4,0-3.9,3.4,1.1,7.2,6.2,13.6,12.3,17.2,1.2.7,2.6,1.3,3.8,2v4.6h-4.3c-.6,0-1.2,1.6.4,1.7h36.8c1.3-.2.8-1.7.2-1.7h-5.7v-4.6c7.5-3.5,14-9.6,15.9-17.9.3-1.5,1.1-3.8-.8-4.4ZM64.2,21.9c1.4.7.2,2,.1,3.1l-3-.7c.2-2.1.5-3.5,2.9-2.4ZM58,31.2c.1-1,.9-3.7,1.2-4.6,0-.2.2-.4.3-.5.3-.3.7-.3,1.1-.3.8,0,3.1.7,3.8,1,.9.3.9.8.8,1.6,0,.6-1.1,4.5-1.3,4.9-.3.4-.7.5-1.1.4-.5,0-3.8-.9-4.2-1.1-.5-.3-.5-.7-.5-1.3ZM61.2,35l-1.1,3.8-1.6-.7.7-3.4c.1-.2.2,0,.3,0,.6.1,1.1.4,1.7.4ZM38.9,21.9c.2-.1,1.4-.4,1.6-.4,1.3,0,1.2,1.7,1.4,2.6l-3,.8c-.3-.9-1.1-2.4,0-3ZM40.8,33.6c-.7.1-1.2,0-1.5-.8-.3-.8-1.1-3.9-1.2-4.7,0-.7.1-1.1.8-1.3.6-.3,3.1-.9,3.8-1,.6,0,1.1,0,1.3.5.4.7,1,3.7,1.2,4.6.1.7.2,1.3-.6,1.7-.6.3-3.2.9-3.9,1ZM44.7,37.7l-1.6.9-1.1-3.5c0-.3,1.7-.5,2-.7l.6,3.2ZM38.6,45.7c.8-1,1.4-2.2,2.3-3.2,5.4-5.9,14.7-6.1,20.4-.6.5.5,1.8,2.3,2.2,2.4.5.2,1.3,0,1.9,0,4.3.4,8.3,2.9,10.6,6.6H26.7c2.8-3.7,7.4-5.3,11.9-5.3ZM24.5,60.5l-.4-1.1h.5s-.1,1.1-.1,1.1ZM62.5,78.1h-24.1v-3.9c1.8.5,3.7,1.1,5.6,1.4,6.2,1.1,12.5.6,18.5-1.4v3.9ZM30.7,67.8h39.6c-11,9-28.6,9-39.6,0ZM77.7,57.7c-.9.1-3.7-.4-4.1.5-.4.8,0,3.1,0,4.1.2.8,1.7.5,1.7,0v-2.9h1.7c-.4,1.5-1.4,2.8-2.3,4.1h-5c0,0,0-2.8,0-2.8,0,0-.4-.5-.5-.5-.4-.2-1.1,0-1.2.5,0,.3,0,3.5,0,3.9,0,.2.5.7.5.7h4.6c-.3.3-.4.9-.9.9H29c-.6,0-.8-.5-1-.9h3.1c.3,0,.6-.6.7-.9,0-.7,0-2.7,0-3.4-.2-1.2-1.7-.8-1.7-.3v2.9h-3.6s-.5-.6-.5-.7c0-.1.3-.5.4-.8,0-.5,0-3.4,0-3.8-.4-.8-2.2-.4-2.9-.5l-.3-.8h55l-.3.9ZM78.4,55.2H22.6c-.1-.3-.7-2.4-.3-2.4h56.3c.4.1-.1,2.1-.3,2.4Z"/>
  <path class="st0" d="M44.7,46.5c-.9-.1-1.9,0-2.8.2-.8.2-3.8,1.7-2.6,2.8.7.6,1.4-.3,2-.6,1-.6,2-.9,3.2-.7.7,0,1.5.8,2,0,.6-1-1-1.5-1.8-1.6Z"/>
  <path class="st0" d="M55.1,41.7c-1-.3-3.7-.7-4.4.1-.3.3-.3.8,0,1.1.5.4,1.4,0,2,0,.8,0,1.9.3,2.6.7.6.3,1.3,1.3,2,.7,1.2-1-1.4-2.4-2.2-2.7Z"/>
  <path class="st0" d="M67.3,47.9c-1.1-.9-2.7-.9-4-.8-.6,0-1.5.3-1.3,1.2.3.9,1.1.5,1.7.5.7,0,1.6,0,2.2.2.4.2.5.6.9.6,1.2.1,1.3-1,.4-1.8Z"/>
  <path class="st0" d="M40.8,62.4v-2.8c.1-.2.2-.2.4-.2,1.2-.1,4.7-.1,6,0,.2,0,.3,0,.4.2v2.7c0,.6,1.4,1,1.7,0,0-.5,0-3.7,0-4-.2-.4-.6-.5-1.1-.5-1.9-.2-5.9-.2-7.8,0-.5,0-1,.1-1.2.6-.2.5-.1,2.9,0,3.6.1,1.3,1.5,1.1,1.7.5Z"/>
  <path class="st0" d="M63.6,62.3c.2-.7-.1-1.9,0-2.7.1-.2.2-.2.4-.2,1.2-.1,4.7-.1,6,0,.2,0,.3,0,.4.2v2.8c0,0,.4.3.5.4.7.3,1.2-.2,1.2-.9,0-.7,0-2.7,0-3.4-.1-.7-.6-.8-1.2-.8-2-.2-5.8-.2-7.8,0-.4,0-.9,0-1.1.5-.1.3-.2,3.6,0,4,.2.9,1.5.8,1.7,0Z"/>
  <path class="st0" d="M51.7,62.8c.1,0,.5-.3.5-.4v-2.8l.2-.2h6.6v2.9c0,.6,1.4,1,1.7,0,0-.5,0-3.7,0-4-.2-.4-.6-.5-1.1-.5-2-.2-5.8-.2-7.8,0-.6,0-1.1.2-1.2.8-.1.7-.1,2.7,0,3.4,0,.7.6,1.2,1.2.9Z"/>
  <path class="st0" d="M29.1,62.7s.3-.6.3-.6v-2.6h6.7v2.9c0,.6,1.5,1,1.7-.1,0-.6,0-3.2,0-3.7-.1-.6-.6-.7-1.1-.7-1.9-.2-5.9-.2-7.8,0-.4,0-.9.1-1.1.5-.1.2-.1,3.9,0,4.2.1.5,1,.7,1.4.3Z"/>
  <path class="st0" d="M42.5,60.2c0,0-.4.5-.4.6v2.7h-6.8v-3c0-.3-1.1-.7-1.5,0-.3.5-.3,3.1-.2,3.8,0,.6.2.9.9.9h8.8c.2-.2.4-.4.5-.7,0-.4,0-3.6,0-3.9-.1-.5-.8-.7-1.3-.5Z"/>
  <path class="st0" d="M65.3,60.2c0,0-.4.5-.4.6v2.7h-6.8v-3c0-.3-1.1-.7-1.5,0-.3.5-.3,3.1-.2,3.8,0,.6.2.9.9.9h8.8c.2-.2.4-.4.5-.7,0-.4,0-3.6,0-3.9-.1-.5-.8-.7-1.3-.5Z"/>
  <path class="st0" d="M53.3,61v2.5h-6.7v-2.7c0,0-.3-.5-.4-.6-.5-.3-1.2,0-1.3.6,0,.5,0,3.2,0,3.8,0,.4.3.7.8.7,2.7-.2,5.7.2,8.4,0,.4,0,.8-.1.9-.6,0-.4,0-3.8,0-4.1-.2-.7-1.7-.5-1.7.5Z"/>
</svg>