<?xml version="1.0" encoding="UTF-8"?>
<svg id="_레이어_1" xmlns="http://www.w3.org/2000/svg" version="1.1" viewBox="0 0 100 100">
  <!-- Generator: Adobe Illustrator 29.1.0, SVG Export Plug-In . SVG Version: 2.1.0 Build 142)  -->
  <defs>
    <style>
      .st0 {
        fill: #00549e;
      }
    </style>
  </defs>
  <path class="st0" d="M43.9,58v-4.2c0-3.8.6-6.1,3.4-7.8,2.2-1.3,4-2.3,5-3.3,1.6-1.4,2-2.5,2-4.2s-1.8-3.7-4.1-3.7-4.3,1.1-4.9,3.2c-.7,2.4-2.8,3.7-5.5,3.5-2.3-.1-4.3-1.7-4.2-4.8.2-6,6.7-10.7,14.6-10.7s14.2,4,14.2,12.5-.7,5.7-2.5,7.8c-1.5,1.7-3.9,3.5-6.3,5.1-1.4.9-1.6,1.9-1.6,3.2v3.4h-10ZM48.9,63.9c3.3,0,5.3,2,5.3,5s-2,5-5.3,5-5.3-1.9-5.3-5,2-5,5.3-5Z"/>
</svg>