<?xml version="1.0" encoding="UTF-8"?>
<svg id="_레이어_1" data-name="레이어_1" xmlns="http://www.w3.org/2000/svg" version="1.1" viewBox="0 0 100 100">
  <!-- Generator: Adobe Illustrator 29.1.0, SVG Export Plug-In . SVG Version: 2.1.0 Build 142)  -->
  <defs>
    <style>
      .st0 {
        fill: #00549e;
      }
    </style>
  </defs>
  <path class="st0" d="M61.6,79.9c6.6-.4,12.6-5.1,14.4-11.5,1.1-4.1.3-8.9.6-13.1,0-.5-.8-1.5-1.2-1.5h-5.3c.2-.5.6-1,.9-1.5,2-3.9.6-9.6,1-13.9-.8-2.8-4.1-1.4-3.5,1.2-2.1,0-3.9.8-5.4,2.2-2.2-9.3-14-12.8-21.1-6.4l-7.7-14.5c-.3-.5-.7-.7-1.2-.9h-.8c-1,.4-1.5,1.2-1.2,2.3l8.3,16.1c-.4.6-.7,1.7-1,2.2,0,.1-.2.3-.3.1l-8.5-16.2c-1.3-1.8-3.8-.5-3.1,1.6l8.2,15.6c-1,.7-2,1.2-2.9,2-2.8,2.4-4.5,6.1-4.5,9.9-.6.3-1.2,0-1.9.3-.3.2-.8.7-.9,1.1.3,5-.8,10.3,1.1,15,2.2,5.5,7.7,9.4,13.7,9.8.9,0,1.8,0,2.8.1,1.7,0,3.5,0,5.2,0,4.8,0,9.7-.3,14.5-.1ZM60.7,46.3c.1.8,0,1.6.2,2.4.5,1.4,2.6,1.4,3.2,0,.3-.6.1-1.3.2-1.9.2-2.1,1.9-3.6,4-3.7v5.8c0,2.1-2.7,4.4-4.7,4.7-3,.4-6.7-1.9-6.7-5.1v-5.4c1.8,0,3.6,1.3,3.9,3.2ZM44,38.1c4.2-3.8,10.9-3.1,14.1,1.6-.9,0-1.9-.2-2.9-.1-.4,0-.9.3-1.2.2-.2,0-1.4-.7-1.8-.8-2.8-.8-5.5.3-7.3,2.6-.9-.4-1.9-.7-2.9-.8-.3-.3,1.6-2.4,1.9-2.7ZM54.2,53.8h-7.7c0-5.3,7.7-5.3,7.7,0ZM48.2,43.4c1-1.6,3.4-1.5,4.5,0,.1.2.6,1.1.6,1.2v2.2l-2.5-.5c-.8-1-1.6-2-2.7-2.8ZM34.4,46c3.9-2.8,9.2-2.4,12.4,1.1l-2.3,1.9c-.8-.6-1.6-1.2-2.7-1.5-3.9-1.1-7.7,1.4-8.3,5.4,0,.3.1.8-.2,1h-2.9c-.2-3,1.4-6.1,3.8-7.8ZM42.8,53.8h-5.7c-.2-2.9,3.6-4.2,5.3-1.9.2.3.9,1.9.4,1.9ZM27.8,57.3h45.1v3H27.8v-3ZM39.6,76.4c-4.8-.3-9.2-3.3-10.9-7.8-.2-.6-.8-2.4-.8-3v-1.7h45.1v1.7c0,.3-.3,1.4-.4,1.7-1.3,5.1-6,8.8-11.2,9.1-7.2-.3-14.6.4-21.8,0Z"/>
</svg>