<?xml version="1.0" encoding="UTF-8"?>
<svg id="_레이어_1" data-name="레이어_1" xmlns="http://www.w3.org/2000/svg" version="1.1" viewBox="0 0 100 100">
  <!-- Generator: Adobe Illustrator 29.1.0, SVG Export Plug-In . SVG Version: 2.1.0 Build 142)  -->
  <defs>
    <style>
      .st0 {
        fill: #00549e;
      }
    </style>
  </defs>
  <path class="st0" d="M80.3,47.8c-.2-.7-.2-1.4-.3-2.2-1.7-12.9-12-23.5-24.8-25.6l-3.1-.4h-3.6l-4.4.6c-4.8,1-9.3,3.2-13,6.3l-6.1-6.1-1.4-.8h-1.1c-1.8.5-2.7,2.2-1.9,4,2,2.5,4.5,4.5,6.6,6.9-3,3.7-5.3,8.2-6.2,12.9-4.5,21.5,14.7,40.3,36.1,35.4,12.7-2.9,22.4-14.3,23.2-27.4,0-1.2,0-2.5,0-3.7ZM22.6,23.4c-1.2-1.1,0-2.7,1.3-1.6,4.6,4.1,8.7,9.4,13.3,13.4,2.1,1.8,3.4,1.7,6,2,.6,0,1.6.2,1.9.6-3.1,1.2-5.5,3.8-6.9,6.8-.7-1.4-.4-3-.7-4.5-.3-1.2-1-2.5-1.8-3.5-3.9-4.6-9.2-8.6-13.2-13.2ZM78,55.2c-2.1,11-11.1,20.1-22.2,22.2-22.2,4.3-40.2-17.6-31.6-38.6,1-2.5,2.6-4.8,4.2-7,1.9,2,4.2,3.9,6,5.9,2.3,2.7,1.2,4.6,2.3,7.6.3.7,1,2.6,1.9,2.5.9,0,.9-1.3,1.2-2,1.3-3.3,3.5-5.4,6.7-6.7.7-.3,2.1-.3,2-1.4,0-.8-1.9-1.5-2.5-1.7-2.8-1-4.9,0-7.5-2.1l-6-6c3.8-3,8.4-5.2,13.2-6,19.6-3.2,36.2,13.9,32.4,33.4Z"/>
  <path class="st0" d="M48.9,33.5c1.8.8,1.2-2.4,1.3-3.4.2-1.7,1.9-1.6,2.1-.1v39.7c.6,3.4,5.2,3.1,5.5-.4V31.3c.8-.9,1.9-.5,2,.6v34.1c.7,3.5,5.5,3,5.5-.6v-28.2c.3-.8,1.2-1.1,1.8-.4.6.8,0,2.9.3,3.8.2.7,1.5.6,1.7-.3,0-.6,0-2.3,0-2.9-.3-3.3-4.6-3.7-5.5-.6v28.7c0,.9-1.1,1.5-1.7.8-.1,0-.2-.3-.2-.4v-34c0-3.4-4.6-4.1-5.5-.8v38.3c-.3,1.2-2,1.1-2-.1V30.2c-.2-3.9-5.3-4.1-5.6,0,0,.7-.2,3.1.5,3.4Z"/>
  <path class="st0" d="M41.8,24.8c-1.2.4-4.8,1.9-5.7,2.8-.7.7-.1,1.6.7,1.6,11.5-7.4,26.8-4.1,34.1,7.4,9.1,14.4,1,33.6-15.6,37.1-19.6,4-35.6-15.8-27.3-34.1.3-.6,1.7-3,1.8-3.3,0-.8-.9-1.3-1.5-.8-.2.1-.8,1.2-.9,1.5-8,14.1-1.1,32.1,14.1,37.5,15.6,5.5,32.6-4.7,34.8-21,2.6-19.4-15.9-34.8-34.5-28.5Z"/>
  <path class="st0" d="M32.6,59.6c-.3,1.7,0,3.3,1.1,4.7,1.3,1.6,3.5,2.5,5.5,2.1.6,4.3,5.8,6.3,9.1,3.5,2.8-2.4,2.5-6.9-.6-8.9,4.8-3.6,2.2-10.9-3.9-10.3-.8,0-2.1.4-1.9,1.4.2,1.2,1.4.4,2,.4,2.8-.4,4.9,1.7,4.5,4.5-.3,2.1-2.8,3.6-4.8,2.9-.5-2-1.9-3.7-3.9-4.3,1.1-4.9-4.3-8.7-8.5-5.9-3.9,2.5-3,8.6,1.4,9.9ZM42.1,64.9c.7-.7,1.3-1.9,1.5-2.9,3.3-1,6,2.3,4.5,5.4-1.5,3-6.1,2.6-7-.6-.4-1.4.3-1.1,1-1.8ZM39.1,57.3c.3-.2,1.2.4,1.5.7,1.9,1.5,1.8,4.4,0,5.9-2.9,2.3-6.9-.4-6.1-3.9,1.4-.2,2.8-.6,3.8-1.6.2-.2.7-1,.8-1ZM33.5,50.6c5.7-.9,6.1,7.3,1,7.6-4.8.2-5.4-6.9-1-7.6Z"/>
  <path class="st0" d="M67.3,43.8v11.1c.8,3.2,5.2,2.9,5.5-.5.2-2.3.2-6.9,0-9.3,0-.2-.1-.7-.3-.8-.4-.4-1.4-.2-1.5.4v9.7c-.2,1.2-1.9,1.3-2,0v-10.5c-.3-.9-1.4-1.1-1.7-.1Z"/>
  <path class="st0" d="M45.9,47.2c.9.3,1.6-.7.9-1.5-.2-.2-2.8-1.9-2.9-2-.3,0-.6-.1-.8,0-.6.2-.6,1-.2,1.4.2.2,2.8,2,3.1,2.1Z"/>
  <path class="st0" d="M30.6,47c.3,0,2.6-.7,2.9-.9.8-.5.4-1.7-.7-1.5-.4,0-2.5.7-2.8.9-.7.5-.3,1.6.6,1.6Z"/>
  <path class="st0" d="M48.5,45.2c2,.2.5-3.2-.7-2.9-.4,0-.7.5-.7,1,0,.5.8,1.9,1.4,1.9Z"/>
  <path class="st0" d="M43.9,31.3c0,0-1.1.7-1.3.9-.8.7-.1,1.9.9,1.5.2,0,1.3-.9,1.4-1.1.4-.8-.2-1.5-1.1-1.3Z"/>
  <path class="st0" d="M32.6,42c.3-.6-.3-1.7-.7-2.1-.6-.6-1.5-.2-1.5.6,0,.9,1.5,2.9,2.2,1.5Z"/>
  <path class="st0" d="M45.5,28.1c-1,.2-.8,2,.4,1.7,1.1-.2.8-2-.4-1.7Z"/>
  <path class="st0" d="M50.6,41.3c.7-.9-.5-2.1-1.3-1.3-.9.9.6,2.1,1.3,1.3Z"/>
  <path class="st0" d="M42.1,49.2c1.4.2,1.3-2,0-1.7-.9.2-.9,1.6,0,1.7Z"/>
  <path class="st0" d="M39.6,30.3c-.8.7.4,2.2,1.3,1.3.8-.8-.4-2.1-1.3-1.3Z"/>
  <path class="st0" d="M49,48.6c-.7.2-.8,1.2-.2,1.5,1.4.9,2-2,.2-1.5Z"/>
</svg>