<?xml version="1.0" encoding="UTF-8"?>
<svg id="_레이어_1" data-name="레이어_1" xmlns="http://www.w3.org/2000/svg" version="1.1" viewBox="0 0 100 100">
  <!-- Generator: Adobe Illustrator 29.1.0, SVG Export Plug-In . SVG Version: 2.1.0 Build 142)  -->
  <defs>
    <style>
      .st0 {
        fill: #00549e;
      }
    </style>
  </defs>
  <path class="st0" d="M71.5,40.2c-.7-.3-1.6-.2-1.4.6.1.4,2,1.4,2.4,1.7,7,5,5.7,11.3-1.2,15.5-10.3,6.3-29.8,6.3-39.8-.7-4.7-3.3-6.7-8.1-2.4-12.8.4-.4,1.6-1.5,2-1.8.3-.1,1.1.8,1,1-10.6,8.4,2.5,14.9,10.4,16.6,8.8,1.9,21.7,1.2,29.2-4.2,6.9-5,4-10.5-2.4-13.8-7.6-4-18.5-4.5-26.8-2.8-1.5.3-3,.8-4.5,1.3-.2,0-1.1-1.1-1-1.2,8-2.7,16.8-3.2,25.1-1.4.9.2,2.5.8,3.3.9.5,0,1-.3.9-.9,0-.5-.6-.5-1-.7-5.1-1.8-12.7-2.2-18.1-1.7-3.8.4-7.6,1.3-11.2,2.6-.1,0-.5-.4-.6-.6-2-2.1-3.7-4.6-5.7-6.7-4.3-4.5-10.2,1-6.5,5.5.5.7,1.5,1.6,2.2,2,1.6,1,3.6,1.2,4.9,2.7-2.5,1.9-4.7,4.5-5,7.8-.8,9.9,5.9,19.9,14.5,24.4.5.3,2.1.8,2.4,1.1.3.2,1,1.7,1.4,2.3,2.7,3.1,7.2,3.1,11,2.8,2.6-.2,4.9-1.6,6.4-3.7.2-.3.6-1.2.7-1.3.3-.2,2.1-.9,2.6-1.2,8.1-4.3,13.8-12.8,14.3-22.1.2-5-2.6-9.3-7.2-11.4ZM33.3,44.9l1,1.3c-1.8.8-3.3,2.1-4.6,3.6.3-2.1,1.9-3.8,3.6-4.9ZM42.2,58.8c-.1,0-2-.5-2.3-.6-.6-.2-2.9-.9-3.3-1.3-.1-.1,0-.1,0-.3,0-.2.6-1.6.7-1.7l2.4-1,2.2.9c0,0,.9,2,1,2.1,0,.6-.5,1.2-.6,1.7ZM72.8,53.4c-2,2.2-5.8,3.9-8.6,4.8-6.6,2-13.8,2.1-20.5.9.2-.8.7-1.4.6-2.3,0-.4-1-2.6-1.3-2.9-.5-.5-2.9-1.4-3.6-1.4-.5,0-2.8,1-3,1.4-.5.5-.6,1.5-.9,2.1,0,.1,0,.2-.2.2-.6,0-3.1-2-3.6-2.5-.3-.3-1.2-1.5-1.3-1.8,0-.3.3-.7.4-1,1.1-1.6,2.9-2.7,4.6-3.6.5,0,2,2.5,2.8,2.7,1.1.3,3.6.2,4.9.1.3,0,1.7-.1,1.9-.3.3-.2.4-.6.2-.9l-3.5-4c4.8-1.1,9.7-1.6,14.6-1.1-.2.7-.8,1.4-.7,2.2,0,.5.7,2.2,1.2,2.4,2.3.4,4.7.4,7,0,.4-.2,1-1.6,1.1-2,0-.3,0-1,.2-1,2.5.7,8,3.5,9,6,.2.6-.6,1.5-1,1.9ZM56.8,45.9c0-.1.7-1.9.8-2.1.2-.4,1.9-.9,2.5-1.1.2,0,2.2.9,2.3,1,0,.1.8,1.9.8,2,0,.4-.2,1-.5,1.3-1.8.3-3.6.2-5.4,0,0-.4-.5-.8-.5-1.2ZM39.1,42c1-.3,2-.6,3-.9,8.2-2,19.6-1.5,27,2.6,2.2,1.2,4.9,3.2,5.3,6-2.7-3.1-6.5-4.8-10.4-6-.3-.4-.4-.9-.9-1.3-.4-.3-2.3-1.1-2.7-1.2-1.3-.2-2.3.9-3.4,1-.7.1-2.5,0-3.3-.1-1.6,0-3.2-.1-4.9,0-2.8.2-5.5.7-8.2,1.4-.2,0-1.5-1.5-1.5-1.6ZM29.6,39.2c-2.2-1.2-3.4-1.1-5.2-3.3-2.5-3.1,1.2-6.3,3.8-4.2l14.4,16.6.2.4c-1.5,0-2.9,0-4.4-.2-2.1-2.2-3.9-4.7-6-7-.8-.9-1.8-1.8-2.8-2.4ZM55.8,78.3c-1.6.4-6.1.3-7.6,0-1.4-.4-2.8-1.3-3.7-2.6,5,1.4,10.2,1.4,15.2,0-.8,1.3-2.4,2.3-3.9,2.7ZM45,74.3c-8.5-2.5-15.6-9.8-17.4-18.6,3.9,4.4,9.9,6.6,15.5,7.7,10.2,1.9,26,.7,33.2-7.6,0,0,.3-.3.3-.2-3.3,14.1-17.6,22.7-31.7,18.6Z"/>
  <path class="st0" d="M54.2,28.6c2.5.2,2.3,3.2.1,3.5-1,0-3.1-.2-3.9,0-.6.2-.6,1.1,0,1.3.4.2,3.6.1,4.2,0,3.8-.4,3.9-5.9,0-6.3-1.3-.1-3.1.2-4.2,0-1.2-.2-1.6-1.9-.8-2.8,1.1-1.1,3.9,0,4.4-.8.2-.3.3-2.7.1-3.1-.2-.7-1.2-.5-1.4,0-.1.5,0,1.3,0,1.8h-2.4c0,0-.6.2-.7.3-1.9.8-2.5,3-1.4,4.7,1.4,2,4,1.1,6,1.3Z"/>
  <path class="st0" d="M68.4,40.1c1,0,.6-1.5-.2-1.4-.8.1-.9,1.5.2,1.4Z"/>
  <path class="st0" d="M57.3,53.6c-1.7.2-2.3.9-1.5,2.5.8,1.6,2.8,2.2,4.4,1.6,1.2-.4,1.1-1.1.7-2.1-.6-1.3-2.1-2.2-3.5-2ZM56.9,55.1c1.1-.3,2.2.2,2.6,1.2-.9.6-2.5-.1-2.6-1.2Z"/>
  <path class="st0" d="M50.1,48.5c-2.5.5-1.9,4.7.9,4.2,2.7-.4,2.1-4.8-.9-4.2ZM50.8,51.3c-.9.2-1.2-1.2-.3-1.4,1-.2,1.1,1.2.3,1.4Z"/>
  <path class="st0" d="M67.3,49.2c-2.5.5-1.9,4.7.9,4.2,2.7-.4,2.1-4.8-.9-4.2ZM67.9,52c-.9.2-1.2-1.2-.3-1.4,1-.2,1.1,1.2.3,1.4Z"/>
  <path class="st0" d="M49.5,46.3c.8-.3.5-1.7-.5-1.4-.7.2-.5,1.7.5,1.4Z"/>
  <path class="st0" d="M59.2,51.2c.8-.3.5-1.7-.5-1.4-.7.2-.5,1.7.5,1.4Z"/>
  <path class="st0" d="M35.4,50.6c-.7.2-.5,1.7.5,1.4.8-.3.5-1.7-.5-1.4Z"/>
  <path class="st0" d="M49.1,56c-.7.2-.5,1.7.5,1.4.8-.3.5-1.7-.5-1.4Z"/>
</svg>