<?xml version="1.0" encoding="UTF-8"?>
<svg id="_레이어_1" data-name="레이어_1" xmlns="http://www.w3.org/2000/svg" version="1.1" viewBox="0 0 100 100">
  <!-- Generator: Adobe Illustrator 29.1.0, SVG Export Plug-In . SVG Version: 2.1.0 Build 142)  -->
  <defs>
    <style>
      .st0 {
        fill: #00549e;
      }
    </style>
  </defs>
  <path class="st0" d="M47.5,20.1c-9,.6-17.6,5.9-22.5,13.4-7.2,11-6.5,25.8,2.1,35.8l-6.7,6.8c-1.2,2.4,1.2,4.7,3.6,3.4l6.7-6.7c11.2,9.6,28.2,9.3,39.2-.5,21.5-19.2,6.3-54.3-22.4-52.3ZM23.3,78.4c-1.4,1-2.7-.8-1.6-2l13.7-13.7c2-2.3,1.3-5.3,2.2-8,.2-.1.6,1,.6,1.1,1.6,2.9,4,5.1,7,6.3l-1.9.6c-2.2,0-4.4.4-6.2,1.8l-13.9,13.9ZM76.9,59.8c-6.7,18.6-30.2,24.9-45.3,12.1,1.9-1.7,3.7-3.9,5.6-5.6,3.6-3.2,6.3-1.3,9.7-3.4,2.2-1.3.1-1.5-1-2-2.7-1.1-4.9-2.9-6.3-5.6-.3-.5-1-2.9-1.2-3-.9-.7-1.7,1.2-2,1.8-1.2,3.1,0,5.3-2.5,8.3-1.7,2-4.1,3.9-5.9,5.9-10.8-12.6-8.2-32,5.2-41.6,4.2-3,9.4-5,14.6-5.3,20.7-1.4,36.2,18.8,29,38.4Z"/>
  <path class="st0" d="M47.7,23.9c-18.5,1.3-29.6,21.8-21,38.2.3.5,1.2,2.3,1.7,2.3.5,0,.8-.4.7-.9-.2-.6-1.3-2.2-1.7-3-5.7-12.3-.4-26.9,11.7-32.7,14.6-7.1,32.2,1.7,35.1,17.7,3.8,20.8-17.6,36.1-36.3,26.4-.5-.3-2-1.6-2.3-.5-.2.8,1.2,1.4,1.8,1.8,15.1,8.3,34.3-.5,38-17.2,3.9-17.5-10-33.2-27.8-31.9Z"/>
  <path class="st0" d="M44.6,32.4c-1,.2-2,1.4-2.2,2.3-.3,1.5-.2,6.4,0,8,.3,3.9,4.5,2.4,6.8,2.8.4,0,3.4,1.3,3.7,1.5.3.2,2.5,2.4,2.6,2.7,1.2,2,1.2,5.4,4.4,5.4,1.1,0,6-2.1,7.2-2.7,1.6-.8,2.6-1.6,2.4-3.6,0-.9-1.7-4.6-2.3-5.2-.3-.3-1.2-.6-1.2-.7,0-.1-.2-1.2-.3-1.6-.4-1.1-3.6-4.3-4.8-4.5-.3,0-1.1,0-1.2,0,0,0-.3-.9-.5-1.1-.7-1-5-2.7-6.1-2.6-.4,0-1.1.4-1.4.4-.4-.1-.9-1-2-1.2-.9-.1-4.1-.1-5,0ZM61.6,38.8c.7.6,2.7,2.5,2.9,3.4.3,1.3-1.1.5-1.1,1.5,0,.9.9.6,1.4.6.8,0,1.2,0,1.8.7.4.5,1.4,3,1.6,3.6.3,1,0,1.8-.9,2.4-1,.6-5.5,2.4-6.5,2.7-1.1.3-1.8,0-2.4-.9-.3-.5-1.3-2.9-1.4-3.4-.2-1,0-1.8.9-2.3.8-.4,3.2-1.1,3.6-1.6.5-.5,0-1.2-.6-1.1-1.8,1-4.7,1.2-5.2,3.5-.1.1-1.3-1.1-1.4-1.2-1-1.2-1.1-1.9-.1-3.1.9-1.1,3.5-3.8,4.6-4.6,1.2-.9,1.8-.9,3,0ZM51.6,35.5c.4-.6,1.1-1.1,1.8-1.1.4,0,3.6,1.3,4,1.6.4.3.9.8,1,1.3l-5.7,5.6c-.5.7-.8,1.5-.7,2.4-1.4-.6-3.5-.9-3.2-2.9,0-.7,2.4-6.2,2.8-6.9ZM50,33.8c.2.1.6.4.6.6l-3.1,7.5c0,.8,0,1.6.2,2.4h-2.7c-.6,0-1.3-1.1-1.4-1.6-.2-1.5-.2-5.5,0-7.2,0-.9.6-1.7,1.5-1.9.8-.1,4.2-.1,4.8.2Z"/>
  <path class="st0" d="M46,72.1c7.1,1.7,15.9-1.8,20.7-7.1.4-.5,2.2-2.7,2.4-3.2.2-.8-.5-1.3-1.1-.8-.3.2-1.3,2-1.7,2.5-4.1,5-10.7,7.9-17.2,7.6-.7,0-2.1-.1-2.8-.4-.9-.3-1.4-1-.9-1.9.6-1,2.3-.3,3.2-.3,4.4.2,8.5-.8,12.1-3.4.8-.6,2.5-1.9,3-2.8,1.3-2.4-1.5-5.1-3.9-3.3-1.1.8-1.8,1.7-3.1,2.5-.4.3-1.7.7-2,1-.4.4-.2,1,.3,1.2.5.1,3.1-1.5,3.6-1.8.7-.5,2.3-2.2,3-2.2,1,0,1.4,1.2.8,2.1-2.2,3.1-8.3,5.2-12,5.3-1.5,0-3.8-.6-5-.2-2.4.9-2,4.3.6,4.9Z"/>
  <path class="st0" d="M39.2,42.5c1.4-2.2.7-5.2-2.3-4.9-1.2.1-2.1,1.4-2.7,2.4-2.4,3.7-3,7.2-2.9,11.6,0,.9.5,2.1-.9,2.4-1.3.2-1.5-1.5-1.6-2.4-.2-2.4.2-4.4.6-6.7,1.1-5.5,5.6-10.9,10.4-13.5.6-.3,2.6-1,2.9-1.3.6-.5.1-1.3-.6-1.2-1.1.2-4.1,2-5.1,2.7-6.3,4.4-11,13.7-9.3,21.5.5,2,2.7,3,4.3,1.5,1.2-1.1.6-2.4.6-3.7,0-3.4.6-6.6,2.3-9.6.6-1,2.1-3.7,3.4-2,1,1.3-1.3,2.9,0,3.5.5.2.7,0,.9-.3Z"/>
  <path class="st0" d="M48.1,50.1c-.4-1.9-2.8-2.3-4.4-2-1.8.3-3.4,2.1-2,3.8,1.7,2.2,7,1.3,6.4-1.8ZM45.4,51.7c-.8.2-2.1.1-2.7-.5-.9-1,.7-1.7,1.5-1.8,2.2-.3,3.9,1.6,1.3,2.3Z"/>
  <path class="st0" d="M54.6,59.8c1.4-2.1-1.3-5.5-3.6-5.4-.8,0-1.6.5-1.9,1.3-1.2,3,3.7,6.8,5.5,4.2ZM50.7,55.8c1.5-.5,3.8,2.6,2.6,3.4-1.5,1.1-4.3-2.9-2.6-3.4Z"/>
  <path class="st0" d="M66.1,36.8c.8.4,1.3-.3.9-1-.3-.4-1.6-1.6-2.1-1.5-.5.2-.5.7-.2,1.1.1.2,1.3,1.4,1.4,1.4Z"/>
  <path class="st0" d="M52.5,52.1c1.1-.5-.6-2.6-1.3-2.4-1.2.4.5,2.7,1.3,2.4Z"/>
  <path class="st0" d="M45.6,55.6c-.6.1-1.8,1.7-.8,2,.6.2,1.9-1,1.4-1.7-.2-.3-.4-.4-.7-.3Z"/>
  <path class="st0" d="M49.7,27.6c-.6.2-1.6,2.1-.4,2.2.9,0,2-2.6.4-2.2Z"/>
  <path class="st0" d="M39.9,46.2c-.3-.1-.7,0-.9.1-.3.3-.9,1.3-.6,1.7.8,1,2.3-1.4,1.4-1.8Z"/>
  <path class="st0" d="M56.8,29.9c-.7-.7-1.6.6-.9,1.1.8.5,1.4-.5.9-1.1Z"/>
  <path class="st0" d="M35.6,49c-.7,0-.7,1.1-.1,1.3,1.3.4,1.1-1.4.1-1.3Z"/>
  <path class="st0" d="M50.1,63.9c-.7.6.5,1.5,1.1.9.5-.5-.4-1.5-1.1-.9Z"/>
  <path class="st0" d="M67.2,57.5c1.3.4,1.1-1.4.3-1.3-.7,0-.9,1.1-.3,1.3Z"/>
  <path class="st0" d="M60.9,50.1c.6.9,1.7-.3,1.1-.8-.5-.5-1.7,0-1.1.8Z"/>
  <path class="st0" d="M53.2,38.4c1.2.4,1.2-1.4.1-1.3-.7,0-.7,1.1-.1,1.3Z"/>
</svg>