<?xml version="1.0" encoding="UTF-8"?>
<svg id="_레이어_1" data-name="레이어_1" xmlns="http://www.w3.org/2000/svg" version="1.1" viewBox="0 0 100 100">
  <!-- Generator: Adobe Illustrator 29.1.0, SVG Export Plug-In . SVG Version: 2.1.0 Build 142)  -->
  <defs>
    <style>
      .st0 {
        fill: #00549e;
      }
    </style>
  </defs>
  <path class="st0" d="M46.9,27.6c.8,2.3,1.8,2.9,2,5.9,0,.4-.3,1,.2,1.5,1.9.6,3.9-1.7,4.6-3.2,1.8-4-1.1-6.2-2-9.8-.2-.8,0-1.8-.8-2.2h-.6c-3,1.5-4.7,4.6-3.5,7.9ZM50.1,21.6c.3,1.2.6,2.3,1.1,3.4.6,1.3,1.6,2.3,1.6,3.9,0,1.5-.9,3.4-2.4,4-.1-.8-.2-1.6-.4-2.4-.7-2.4-2.5-3.7-1.7-6.5.3-1,1-1.9,1.8-2.4Z"/>
  <path class="st0" d="M77.8,47.8c-1.4-1.1-3-.8-4.7-.8-1-1.3-2.3-2.3-3.7-3.2-.3-.2-1.6-.9-1.8-.9-.8-.1-1.2.9-.7,1.4.1.1,1.7.8,2,1.1,5.4,3.3,5.1,7.2-.3,10.3-9,5.2-28.2,5.3-37.1-.4-6.2-4-3.3-8.3,2.1-10.8,6.6-3,15.7-3.6,22.9-2.8.8,0,3.1.7,3.6.6.5,0,.9-.9.5-1.3-.3-.4-3.1-.7-3.8-.8-7.4-.9-16.6-.3-23.4,2.7-2.2,1-4.3,2.3-5.8,4.2-1.7,0-3.3-.3-4.7.9-2.3,1.9-1.7,5.7,1.2,6.6,1.1.4,2.2.1,3.3.3,1.1,2.7,2.6,5.3,4.7,7.4-.8,1.3-1.7,2.6-1.3,4.2,0,.3.4.7.4,1,.2,2-.3,4.6,0,6.7.2,2.4,4,3.7,6,4.2,7.3,2,23,2.3,29.8-1.3,4-2.1,2-5.1,2.5-8.8,0-.5.5-1,.6-1.6.3-1.8-.6-2.9-1.6-4.3,2.1-2.1,3.8-4.7,4.8-7.5.9,0,1.7,0,2.6,0,3.5-.4,4.8-4.7,2-6.9ZM25.3,53.2c0,0-.8-.2-.9-.3-1.7-.9-1.8-3.4,0-4.1.1,0,.6-.2.7-.2h1.7c-.6,1.6-.2,3.1.2,4.7h-1.8ZM51.5,72.9c1.5-.7,2.6-2.6,2.1-4.2,2.8-.3,5.7-.9,8.3-2,.2,1.1.9,2,1.9,2.5.2,0,1.1.5,1.2.5h1.7c-2.7,2.3-6.9,3.2-10.4,3.6-5.8.7-18.2.5-22.7-3.6-.1,0-.5-.5-.4-.6,2.2.9,4.6-.2,5.6-2.3,2.2,1,4.6,1.5,7,1.8-.6,3.3,2.7,5.7,5.7,4.4ZM49.7,65.5c1.3,1.5,3.9,4.1,1.5,5.8-1.1.8-2.7.5-3.5-.6-1.3-1.8,1-3.9,2-5.2ZM36.5,67.3c-1.7,1.2-4.3.2-4.2-2.1,0-.7.8-1.7,1.2-2.3.2-.2,1.3-1.8,1.5-1.6,1.1,1.6,3.9,4.1,1.5,6ZM67.9,74.1c0,.2-.7.8-.8.9-3.5,2.7-14.1,3.2-18.5,3.1-3.5,0-12.9-.9-15.3-3.4-.1-.1-.5-.7-.5-.8v-3.1c.4.3.8.6,1.2.9,7.2,4.6,25.8,4.7,33,0,.4-.2.7-.5,1-.8v3.2ZM68.4,65.3c.5,2.5-2.9,3.9-4.5,1.9-1.5-1.9.8-4,2-5.4.1,0,.6.6.8.8.5.6,1.6,2,1.7,2.7ZM67.5,60.9c-.1.1-.2,0-.3,0-.4-.3-.8-1.4-1.6-1-.4.2-1.9,2-2.2,2.5-.6.8-1.1,1.7-1.5,2.6-2.8,1.3-5.9,1.9-8.9,2.1h-.2c-.3-.8-2.3-3.5-3-3.6-.5,0-1,.6-1.3.9-.7.7-1.3,1.6-1.8,2.4-.4.3-2.8-.2-3.5-.3-1.4-.3-2.8-.8-4.1-1.3-.4-1.4-1.1-2.6-2-3.7-.4-.5-1.6-2-2.1-2.1-.7,0-1.6,1.5-1.7,1.5-1.4-1.4-2.6-3.2-3.5-5l3.2,1.8c9.4,4.4,26.3,4.4,35.5-.4.8-.4,1.6-1,2.4-1.4-.8,1.9-2.1,3.4-3.4,5ZM76.3,52.9c-.1,0-.8.3-.9.3h-1.7c.4-1.6.8-3.1.2-4.7h1.7c0,0,.6.2.8.3,1.8.8,1.7,3.4,0,4.1Z"/>
  <path class="st0" d="M48.2,43.3c-.4,0-1.1-.2-1.5-.3-1.7-.2-2.6,1-2.5,2.6-.5.1-1,.7-1.5.7-.4,0-1-.2-1.4-.2-2.7-.1-5.4,0-6.7,2.8-2.5,5.3,4.8,9.6,8.5,4.5,1.2-1.6,2.8-4.3,1.3-6.2,0-.2,1.6-.6,1.5-1.4,0-.3-.6-1,.2-1.2.4-.1.6.3.9.3.5,0,1.1-.4,1.5.4.4.9-.4,1-.5,1.5-.1.4.2,1.2-.6,1.2-.3,0-1.6-1-1.7.3-.2,1.5,3.1,1.7,3.7-.2,0-.3,0-.5,0-.7,0-.3.4-.6.5-1,.3-1.4-.5-2.8-1.9-3ZM39,54.2c-4.1,0-4.9-6.1.3-6.5,1.1,0,4.3-.3,4.3,1.4,0,1.9-2.5,5.1-4.5,5.1Z"/>
  <path class="st0" d="M64.2,49.5c-.6.5-1.3-.7-1.9,0-.4.5,0,1.1.5,1.4,1.2.6,2.7,0,3.1-1.3,0-.2,0-.4,0-.6.1-.4.5-.7.5-1.2.2-1.6-.8-2.5-2.3-2.9-.3,0-1-.2-1.3-.2-.9-.1-1.9.4-2.2,1.3-.1.4-.1,1.1-.2,1.3,0,.1-1.3.7-1.6.7-1,0-1.8-.3-2.9-.2-8.1.3-6.6,10.2-.2,9.6,2.7-.2,5.5-3.9,5.6-6.5,0-.9-.1-1.3-.6-2.1.5-.2,1.5-.7,1.5-1.2,0-.3-.3-.6-.2-1,.3-.8,1,0,1.3,0,.5,0,.8-.3,1.3.2.8.8-.2,1.2-.3,1.6,0,.3.1.9-.2,1.1ZM57.5,55c-2.2,2.2-6.3.2-5.5-3.1.5-2,2-2.5,3.9-2.6.8,0,3.4,0,3.8.8.5,1.1-1.4,4.1-2.2,4.8Z"/>
  <path class="st0" d="M36.7,39.9c1.8,0,3.6-2.1,4.3-3.6,1.7-4-1.1-5.8-2-9.4-.2-.9,0-2.6-1.4-2.3-1.3.3-3.1,2.3-3.6,3.6-1.5,4.1,1.6,5.7,2,9.5,0,.8-.4,2.2.8,2.3ZM35.6,28.3c.2-.3,1.5-2.1,1.8-1.8,0,.7.2,1.4.5,2.1.8,2.4,2.7,3.8,1.9,6.6-.3,1.1-1.2,2.3-2.2,2.7-.1-.7-.2-1.5-.4-2.2-.7-2.7-3-4.2-1.6-7.4Z"/>
  <path class="st0" d="M64.6,39.7c3.1-1,4.6-5.2,3.4-8.2-.8-1.9-1.6-2.8-2.2-5.1-.2-.9,0-2.1-1.3-1.9-.9.2-2.5,1.6-3,2.4-2.8,4.3.9,6.7,1.4,10.9.1,1.3-.4,2.5,1.6,1.9ZM64,26.6c.3,0,.4,1,.5,1.3.2.7.4,1.4.7,2,.6,1.4,1.6,2.3,1.7,4,0,1.7-.9,3.5-2.5,4.2,0-1.5-.5-2.9-1.1-4.2-.2-.4-.6-.9-.8-1.3-1-2.2-.4-4.4,1.5-5.8Z"/>
  <path class="st0" d="M45,53.2c-2.7,2.6,1.3,6.6,3.9,4,2.5-2.5-1.3-6.6-3.9-4ZM47.4,56.4c-2,.5-2.2-2.2-.6-2.4,1.6-.3,2,2.1.6,2.4Z"/>
  <path class="st0" d="M67.9,51.3c-2.1,0-4,1.8-3.9,3.9,2.1,0,3.9-1.8,3.9-3.9Z"/>
  <path class="st0" d="M30.4,51.6c1.5,1,3-1.1,1.8-2.3-1.4-1.4-3.5,1.2-1.8,2.3Z"/>
  <path class="st0" d="M56.1,45.4c1.1-1.5-1-3.1-2.2-1.9-1.4,1.5,1,3.5,2.2,1.9Z"/>
  <path class="st0" d="M64.8,43.4c1-.3.7-2-.6-1.7-1,.2-.6,2.1.6,1.7Z"/>
</svg>