<?xml version="1.0" encoding="UTF-8"?>
<svg id="_레이어_1" data-name="레이어_1" xmlns="http://www.w3.org/2000/svg" version="1.1" viewBox="0 0 100 100">
  <!-- Generator: Adobe Illustrator 29.1.0, SVG Export Plug-In . SVG Version: 2.1.0 Build 142)  -->
  <defs>
    <style>
      .st0 {
        fill: #00549e;
      }
    </style>
  </defs>
  <path class="st0" d="M80.4,29.3c-.2-.9-.4-1.8-1-2.6-.6-1-5-5.4-6-6-.8-.5-1.6-.7-2.5-1h-1.6c-.5,0-1.6.4-2,.6-1.5.7-2.6,2.2-3.8,3.3-13.5-6.8-29.9-2-37.8,10.7-3.3,5.3-4.6,11.3-4.3,17.5,0,.6.1,2.4.8,2.6,1.7.5,1-1.9,1-2.7-.7-18,14.1-32.2,32.2-29,16.4,2.9,26.5,20.3,20.8,36.1,0,.9,1.2,1.2,1.7.5.2-.3.4-1,.5-1.4,2.2-6.9,1.4-15-1.9-21.4,1.1-1.2,2.6-2.3,3.3-3.8.2-.4.6-1.5.6-2,0-.5,0-1,0-1.5ZM75.5,34.9c-2.6-4.2-6.1-7.8-10.4-10.4,1.3-1.2,2.3-2.8,4.3-3.1,1.3-.1,2.4.2,3.4,1,1,.8,4.9,4.7,5.3,5.7,1.4,3-.7,4.9-2.7,6.8Z"/>
  <path class="st0" d="M67.3,63.9c12.6-15.2.7-37.7-18.9-36.2-15,1.2-24.2,17.3-18.1,31.1,6.6,14.8,26.7,17.6,37.1,5.1ZM45.1,30.1c15.8-4.2,29.8,10.9,24.5,26.3-4.8,14-23,18.2-33.6,7.7-11-11-5.9-30,9.1-34Z"/>
  <path class="st0" d="M74.9,62c-2.5,4.5-5.9,8.4-10.3,11.1-15.6,9.4-35.5,1.2-40.6-16-.2-.3-.7-.4-1.1-.3-.2,0-.4.3-.5.5-.2.4.4,2,.6,2.6.4,1,.8,1.9,1.2,2.8-1.4,1.5-3.1,2.7-3.7,4.7-.6,2.1-.2,4.2,1.2,5.9,1.1,1.4,5.1,5.3,6.6,5.9,3.9,1.5,6.4-.9,8.8-3.5,13.3,6.7,30.1,2,37.8-10.7.6-1,2.3-3.6-.2-3ZM27.7,76.8c-1-.8-4.6-4.4-5.1-5.4-1.5-3.1.5-5,2.6-7,2.6,4.3,6.1,7.8,10.4,10.4-2.1,2.5-4.8,4.5-7.9,1.9Z"/>
  <path class="st0" d="M46.1,66.5c10,.8,8.2-12.2.1-11.4-6.7.7-8,10.8-.1,11.4ZM43.2,63.3c.5-1.1,1.9-1.9,3.1-2.1,1.8-.2,3.4.5,4.3,2-1.7,2-5.6,2-7.4,0ZM49.2,57.5c1.3.8,1.9,2.2,2.1,3.7l-1.7-1.1c-2.2-1-4.5-.8-6.5.6-.1,0-.7.8-.7.3.2-3.4,3.9-5.4,6.8-3.6Z"/>
  <path class="st0" d="M45.2,50.7c2.8-4.4-.7-10.1-5.9-9.5-1.5.2-3.1,1.1-4.1,2.3-4.4,5.4,5.6,14.1,10,7.3ZM43.8,45.1c.9,1.6.8,4.2-.7,5.4,0-3.4-2.8-6.2-6.2-6.1,1.8-2.2,5.5-1.7,6.9.7ZM36,46.3h0c1.4-.4,2.9,0,3.9,1,1,1,1.7,2.8,1.1,4.2-2.1.4-5.9-3.2-5.2-5.2Z"/>
  <path class="st0" d="M53.9,45.3c9.9.7,8.5-11.4.8-11.4-7.2,0-8.8,10.8-.8,11.4ZM58.1,42.6c-1.6,1.4-5.4,1.3-6.9-.4-.2-.4,1.2-1.5,1.5-1.7.5-.2,1.2-.5,1.7-.5,1.2-.1,2.7.4,3.6,1.3.6.6.7.8.1,1.3ZM59.2,40c-2.5-2.3-6.4-2.4-8.7.1,0-5.9,8.6-6,8.7-.1Z"/>
  <path class="st0" d="M59.6,47.9c-4.8.5-7,6.4-4,10.1,4.6,5.7,13.8-2.6,9.5-8-1.3-1.6-3.5-2.4-5.5-2.1ZM56.2,55.3c-1.1-3.8,2.7-7,6.2-5.3.1,0,1.3.8,1.1,1-3.3-.2-6.2,2.8-6.1,6.1-.3.3-1.2-1.5-1.2-1.8ZM64.4,54.3c-.4,1.5-2.2,3.2-3.7,3.7-.3,0-1.3.3-1.4,0-.5-2.4,1-4.6,3.3-5.3h1.9c.4,0,0,1.3,0,1.5Z"/>
  <path class="st0" d="M64.9,47c2.2.3,3.8-1.6,3-3.7-.5-1.2-2.4-2.2-3.6-2.1-3,.3-1.8,5.4.7,5.7ZM64.2,43c.9,0,2.8,1.1,1.8,2-1.1,1-2.2-1.1-1.8-2Z"/>
  <path class="st0" d="M41.5,39c1.2.8,3.7,0,4.5-1.3,1.2-2-.5-4.4-2.7-4-2,.3-3.6,4.1-1.7,5.3ZM44.3,35.6c1.2,1-.9,2.2-1.9,1.9-.2-.9.9-2.7,1.9-1.9Z"/>
  <path class="st0" d="M39,55.7c-.5-1.3-2.6-2.3-4-2-2.4.5-1.4,4.7.5,5.5,2.2.9,4.3-1.3,3.5-3.5ZM35.9,57.2c-.3-.3-.8-1.7-.4-1.8.5-.1,1.5.4,1.8.7.6.8-.5,2.1-1.4,1.1Z"/>
  <path class="st0" d="M53,50.7c.2-1.7-1-4.3-3-3.9-1,.2-2,2-2.2,2.9-.6,3.9,4.8,4.3,5.2,1ZM50.5,48.6c.5,0,1.5,2.4.1,2.6-1.6.1-1-2-.1-2.6Z"/>
</svg>