<?xml version="1.0" encoding="UTF-8"?>
<svg id="_레이어_1" data-name="레이어_1" xmlns="http://www.w3.org/2000/svg" version="1.1" viewBox="0 0 100 100">
  <!-- Generator: Adobe Illustrator 29.1.0, SVG Export Plug-In . SVG Version: 2.1.0 Build 142)  -->
  <defs>
    <style>
      .st0 {
        fill: #00549e;
      }
    </style>
  </defs>
  <path class="st0" d="M80.4,29.3c-.2-.9-.4-1.8-1-2.6-.6-1-5-5.4-6-6-.8-.5-1.6-.7-2.5-1h-1.6c-.5,0-1.6.4-2,.6-1.5.7-2.6,2.2-3.8,3.3-13.5-6.8-29.9-2-37.8,10.7-3.3,5.3-4.6,11.3-4.3,17.5,0,.6.1,2.4.8,2.6,1.7.5,1-1.9,1-2.7-.7-18,14.1-32.2,32.2-29,16.4,2.9,26.5,20.3,20.8,36.1,0,.9,1.2,1.2,1.7.5.2-.3.4-1,.5-1.4,2.2-6.9,1.4-15-1.9-21.4,1.1-1.2,2.6-2.3,3.3-3.8.2-.4.6-1.5.6-2,0-.5,0-1,0-1.5ZM75.5,34.9c-2.6-4.2-6.1-7.8-10.4-10.4,1.3-1.2,2.3-2.8,4.3-3.1,1.3-.1,2.4.2,3.4,1,1,.8,4.9,4.7,5.3,5.7,1.4,3-.7,4.9-2.7,6.8Z"/>
  <path class="st0" d="M67.3,63.9c12.6-15.2.7-37.7-18.9-36.2-15,1.2-24.2,17.3-18.1,31.1,6.6,14.8,26.7,17.6,37.1,5.1ZM45.1,30.1c15.8-4.2,29.8,10.9,24.5,26.3-4.8,14-23,18.2-33.6,7.7-11-11-5.9-30,9.1-34Z"/>
  <path class="st0" d="M74.9,62c-2.5,4.5-5.9,8.4-10.3,11.1-15.6,9.4-35.5,1.2-40.6-16-.2-.3-.7-.4-1.1-.3-.2,0-.4.3-.5.5-.2.4.4,2,.6,2.6.4,1,.8,1.9,1.2,2.8-1.4,1.5-3.1,2.7-3.7,4.7-.6,2.1-.2,4.2,1.2,5.9,1.1,1.4,5.1,5.3,6.6,5.9,3.9,1.5,6.4-.9,8.8-3.5,13.4,6.8,30.1,2,37.9-10.8.6-1,2.2-3.5-.3-3ZM28.6,77.4c-1-.5-4.5-4-5.3-5-2.6-3.1-.6-5.8,1.9-7.9,2.6,4.3,6.1,7.8,10.4,10.4-2,2.1-3.9,4.2-7,2.6Z"/>
  <path class="st0" d="M35.3,44c.8.8,4.3,3.2,5.4,3.9,1.9,1.2,4,1.4,6,.2,1.8-1.1,2.7-3.3,1-4.9-.8-.8-4.9-3.7-6-4.3-1-.5-2.1-.8-3.2-.7-2.4.3-5.1,2.4-3.8,5,0,.2.3.5.5.7ZM36.3,41.7c0-.9,1.6-1.6,2.4-1.7.8-.1,1.6.1,2.3.5,1.2.7,4.1,2.7,5.1,3.7,1.1,1,.7,1.8-.4,2.5-.9.5-2,.6-3,.3-.8-.2-4.9-3.2-5.7-3.9-.5-.5-.8-.6-.7-1.4Z"/>
  <path class="st0" d="M62.8,43.6c-.9,0-1.6.5-2.1,1.1-.9,1-4.1,5.5-4.5,6.7-1.1,3.7,2.4,8.6,5.5,5.4.9-.9,3.6-4.7,4.2-5.9,1.4-2.6.3-7.5-3.1-7.3ZM60.5,55.6c-1.6,1.3-2.8-1.2-2.8-2.6,0-.4.1-.8.2-1.2.3-.8,3.4-5.3,4.1-6,.2-.2.5-.5.9-.5,1,0,1.8,1.6,1.9,2.5.2,2.7-3.1,5.4-4.3,7.7Z"/>
  <path class="st0" d="M47.6,38.7c.9.7,5.2,3.1,6.3,3.5,2.2.8,4.7.4,6.2-1.4,1.7-2,.7-3.8-1.3-4.9-2-1.2-5.8-3.6-8.1-3.3-2,.2-4.5,1.9-4.3,4.1,0,.8.5,1.6,1.1,2.1ZM50.9,34.3c.8,0,1.3,0,2,.4,1.3.5,4.4,2.2,5.5,3,1.6,1.1,0,2.6-1.3,3-.7.2-1.3.3-2.1,0-1-.3-5.2-2.6-6.2-3.3-1.9-1.3.5-3,2-3.2Z"/>
  <path class="st0" d="M45.2,59.7c1.7-.6,3.1-2.4,3.3-4.2.2-1.7-1-3.2-2.7-3.3-1.7-.2-5.6-.2-7.2,0-4.5.6-6.7,7.5-1.6,7.9,1.8.2,6.6.2,8.2-.5ZM36,56c.5-1.1,1.6-1.9,2.7-2.1,2.2-.3,4.8.1,7,0,2.3,1,0,3.8-1.6,4.3-1.2.3-5.9.3-7.2.2-1.4-.2-1.4-1.2-.9-2.3Z"/>
  <path class="st0" d="M53.4,59.5c-3.3.6-2.5,5.8,1,5.2,3.3-.6,2.6-5.8-1-5.2ZM54.5,62.8c-.8.7-1.9-.5-1.2-1.3.7-.9,2.3.4,1.2,1.3Z"/>
  <path class="st0" d="M52.6,49.7c4,.6,4.1-5.9-.1-5.2-2.7.5-2.7,4.8.1,5.2ZM52.8,46.2c1.3-.3,1.5,1.5.4,1.7-1.2.2-1.5-1.5-.4-1.7Z"/>
  <path class="st0" d="M43.2,62.9c-2.1,2.1.6,5.7,3.3,4.1,3.3-2-.5-6.9-3.3-4.1ZM44.7,65.5c-.7-.4-.7-1.4,0-1.6,1.8-.5,1.4,2.3,0,1.6Z"/>
  <path class="st0" d="M35.3,49.1c.2-.7-1.2-2.1-1.7-2.1-.4,0-.8.4-.9.9,0,.7,2.1,2.8,2.6,1.2Z"/>
  <path class="st0" d="M43.5,35.5c.4,0,1.4-1,1.5-1.4.2-.7-.4-1.3-1.1-1.1-.2,0-1.4,1.3-1.4,1.5-.2.7.4,1.2,1.1,1.1Z"/>
  <path class="st0" d="M52.7,56.6c.4-.3.4-.8.1-1.2,0-.1-1.1-1.1-1.2-1.2-.2,0-.5-.1-.7,0-1.5.5.6,3.3,1.8,2.4Z"/>
  <path class="st0" d="M64.1,58.7c-.1,0-.3-.2-.5-.2-.7,0-2.7,2.1-1.1,2.6.9.3,2.8-1.7,1.6-2.5Z"/>
  <path class="st0" d="M64.1,41.6c.2-.1,1.1-1.1,1.2-1.3.2-.8-.4-1.4-1.2-1.2-.1,0-1.3,1.2-1.3,1.3-.3.9.5,1.5,1.3,1.1Z"/>
</svg>