<?xml version="1.0" encoding="UTF-8"?>
<svg id="_레이어_1" data-name="레이어_1" xmlns="http://www.w3.org/2000/svg" version="1.1" viewBox="0 0 100 100">
  <!-- Generator: Adobe Illustrator 29.1.0, SVG Export Plug-In . SVG Version: 2.1.0 Build 142)  -->
  <defs>
    <style>
      .st0 {
        fill: #00549e;
      }
    </style>
  </defs>
  <path class="st0" d="M78,38.4c0,3.1-3.6,5.3-6.5,4.5-1.4-.4-3.5-2.3-3.5-3.8v-9.9h-2v3l-2.8-2c-8.6-5.7-19.6-5.2-27.8,1-.6.5-1.3,1.2-1.9,1.7-.1,0-.1.2-.3.1-.5-1.2-1.5-2.1-2.6-2.8,10.7-10.7,29-10.5,39.4.5v8.5h2v-10c-.3,0-.5,0-.7,0-.2-.1-2-1.9-2.4-2.3-11.7-9.6-28-8.5-39.1,1.3-.3.2-.9,1-1.1,1.1-.2,0-1.7-.1-2.2,0-5.8.5-7.5,7-5.7,11.7.1.3.5.9.6,1.1,0,.4-.6,2.4-.7,3-1.2,7.1.2,14.3,3.8,20.4.5,2.7-1.7,9.5,2.6,9.6,1.8,0,2.5-1,3-2.5,0-.1,0-.2.2-.2,11,10.2,28.8,10,39.8,0,.3.4.3.8.5,1.2,1.3,2.3,5.1,1.5,5.4-1.1.3-2.1-.3-4.9-.2-7.1,3.6-6,5-13,4-20-.1-.9-.8-2.9-.7-3.5,0-.8,1.1-2.3,1.1-3.5v-9.4h-2v9.3ZM35.6,33.4c.1-.1.2-.3.4-.2l-1.2,1.5-.8,1.8v-1.4c.5-.5,1-1.2,1.6-1.6ZM33.6,40.7c.7-.6,2-.5,2.4-1.1.5-.6-.2-1.5-.1-2.2.1-3.4,5-4.6,6.6-1.5.3.6.3,1.7.8,2,.4.2,1.2,0,1.7.2,2.5.4,3.6,3.1,2.4,5.3-.3.6-.8.7-.7,1.5,0,.6.7.7,1.1,1.1.5.5,1.2,1.5,1.2,2.3,0,.4-.4,1.9-.6,2.3-.4.9-1.8,1.1-1.9,2,0,.7.8,1,1.2,1.4,1.5,1.4,1.7,3.7.2,5.2-.6.6-1.6.6-1.7,1.6l.6,7.5h-1c0,.1-4.9-27.2-4.9-27.2l-2,.2,4.9,27.4-1.1.2-2.2-7.4c-.3-.5-1.4-.5-2-.9-1.4-.9-1.8-2.6-1.3-4.2.2-.7.9-1.1.4-1.9-.3-.5-1.6-.4-2.3-.7-2-.8-2.8-3.2-1.7-5,.3-.6.8-.7.7-1.5,0-.6-1.4-1.2-1.8-2.1-1.1-2.2.2-2.7,1.1-4.5ZM57.8,37.8c1.3.7,2,2.3,1.6,3.7-2.8,1.3-4.5,3.5-4.9,6.6,0,.3,0,.8,0,1.1,0,.1-1,1.1-1.2,1.4-.8,1.1-1.5,3.2-1.3,4.6.2,1.1,1.7.8,2.5.8-.3,1-1.2,2-2.2,2.3-.6.2-1.2,0-1.8.4.6-1.4.7-2.8,0-4.3-.2-.4-.7-1-.7-1.3-.1-.8.7-2.5.9-3.3.2-.7.1-1.4.2-2,.6-3,1.4-5.9,2.1-8.9l-2-.4-1.5,6.4-.4-.4c1.8-3,.6-6.6-2.6-7.9-.4-.2-.8-.2-1.1-.4.6-.2,1.3-.4,1.9-.3.6,0,1.1.5,1.7,0,.4-.3.3-1.1.5-1.6.8-2.7,4.4-3.3,6.1-1,1,1.3.5,1.9.5,3.2,0,1.1.9,1,1.5,1.3ZM49,69.4c.5,0,2.5.4,3.3.4,2.4.2,4.8,0,7.2-.1l-2.1,1c-4.6,1.6-9.5,1.7-14.1.2l5-.9c.3,0,.6-.5.8-.5ZM48.5,61.2l1.7-1.7-1.4,4.5c-.2.2-.2,0-.2-.2,0-.8,0-1.8-.1-2.6ZM49.7,67.5l1.1-2.9,3.7.4c2.3,0,4.6-.2,6.8-.7,1.6-.3,3.1-.9,4.7-1.3.1,3.2-2,3.8-4.6,4.3-3.9.8-7.9.8-11.8.2ZM58.9,49.2v3.6c-.4-.3-2.8-2.1-2.7-2.4.8-.6,1.8-1.1,2.7-1.2ZM56.5,47.8l.9-2.1c.2-.1,1.4,1.3,1.6,1.5-.9,0-1.7.4-2.5.6ZM57.2,54h-3c-.1-.3.5-2,.7-2l2.3,2ZM56.5,56h3.7c-2.4,2.6-5.5,4.4-8.7,5.7l.4-1.2c2.3-.4,4.3-2.1,4.6-4.5ZM62.8,60.6c-.4.5-2,1.7-2.6,1.9-1.8.5-4.2.4-6.1.5.7-.6,1.6-.9,2.4-1.4,1.5-.9,3.1-2.1,4.5-3.3.6-.5,1.3-1.4,1.8-1.8.1,0,.1-.2.3-.1.7,1.3.8,3-.2,4.2ZM63.3,54l-.7-.3,2.2-2.2c.6.7.9,1.6,1.1,2.5h-2.6ZM61,52.5v-3.4c.8,0,1.6.4,2.3.9l-2.3,2.5ZM61.4,46.5l-2.4-2.4c0-.2,2-1.1,2.4-.9v3.4ZM25,49.5c-.1,3.5-.1,7.3-.4,10.9,0,.2,0,.7-.3.8-2.2-5.5-3-11.6-1.5-17.5l2.2,1c0,1.6,0,3.2-.1,4.8ZM27.9,72.4c-.2.7-1.6.8-1.7-.3-.1-1.4.1-2.9.1-4.2.2-6,.5-12,.6-18,0-1.1,0-2.1,0-3.2.2.1.2.7.3.9.2,3.4.1,7,.2,10.4.1,4,.4,8.1.5,12.1,0,.5,0,1.9,0,2.3ZM22.1,38.5c-.3-3.3.5-6.9,4.3-7.4,4.8-.6,6.5,4.4,5.4,8.4-1.5,5.2-9.3,4.4-9.7-1ZM29.2,49.8c0-1.7,0-3.5-.1-5.2l1-.4c.1,1.3.8,2.4,1.7,3.3-1.8,3.3-.1,7.3,3.5,8.3-.8,3,.8,6,3.8,6.9.7,2.3,1.2,4.7,2,7,0,.2.1.2-.1.1-.7-.1-3-1.6-3.6-2.1-2.8-2-7.5-7.2-7.8-10.7-.2-2.3-.2-4.9-.3-7.2ZM70.4,63.1c-.1,2.1-.2,4.2-.3,6.2,0,.2-1.6,1.6-1.9,1.9-10.6,9.2-27.1,9-37.3-.7-.8-.8-1-.9-1.1-2.1-.1-1.8,0-3.7-.1-5.6,2.1,3,4.5,5.6,7.6,7.5,11.2,7,26.2,3.6,32.9-7.7.2,0,.1.3.1.4ZM70.5,57.7c-.5,1.8-1.5,3.4-2.6,4.9-.5-2.1-1.1-2.4-3.1-1.5.8-1.7.9-3.4.1-5.1.6,0,1.6.1,2.2,0,1.1-.2.8-1.7.6-2.4-.3-1.6-1-3-2.1-4.2l-1.2-1.1,3.7-3.7c.7-1-.4-1.7-1.1-2.2-1.6-1.1-3.6-1.5-5.5-1.4.1-2.2-1.2-4.1-3.1-5.1,0-2-.5-3.8-2.1-5-3.1-2.5-7.6-.9-8.7,2.9-1.2-.2-2.5.2-3.6.8-1.4-2-3.5-2.9-6-2.3-.7.2-1.3.5-2,.8,8.5-7.4,22.3-6.4,29.8,2,0,3.1-.2,5.9,2.3,8.2.8.8,1.8,1.1,2.7,1.6l-.5,12.8ZM63.5,46.4v-3.2c.8,0,1.7.4,2.4.9l-2.4,2.3ZM72.9,72.9c-1.3,0-.8-1.5-.8-2.2.2-8.3.6-16.5.7-24.8l.3,2.6c.1,7,.4,14,.6,21,0,1,.7,3.5-.8,3.4ZM76.2,59.7c-.2.5-.4,1.1-.7,1.5l-.5-16.4,2.3-1.1c1.1,5.3.9,10.9-1,16Z"/>
  <rect class="st0" x="74" y="29.1" width="2" height="10"/>
</svg>