<?xml version="1.0" encoding="UTF-8"?>
<svg id="_레이어_1" data-name="레이어_1" xmlns="http://www.w3.org/2000/svg" version="1.1" viewBox="0 0 100 100">
  <!-- Generator: Adobe Illustrator 29.1.0, SVG Export Plug-In . SVG Version: 2.1.0 Build 142)  -->
  <defs>
    <style>
      .st0 {
        fill: #00549e;
      }
    </style>
  </defs>
  <path class="st0" d="M78.1,68.1c.7-.7-.2-2.2-.1-2.6,0,0,1-.7,1.2-1,1.3-1.5,1.5-3.6.3-5.3-.2-.3-1.1-1-1.2-1.3-.1-.5,0-1.9-.2-2.6-.9-6.4-6.3-11.2-12.7-11.6-2.7-.2-6.5-.2-9.2,0-.8,0-1.7.3-2.5.4l.2-3.3h2.4c.2,0,.7-.5.7-.8-.1-1.9.2-4,0-5.9,0-.3-.3-1-.7-1h-15.8v-7.7h7.1c.3,0,.6-.5.7-.8.1-.8,0-3.1,0-4,0-.5-.2-.8-.7-1h-10.3c-.9,0-2.5,1.5-2.5,2.3v11.2h-13.8c-.4,0-.6.7-.7,1-.2,1.9.1,4,0,5.9,0,.3.5.8.7.8h2.4l3.8,37.8c0,.5.5.8,1,.8h44.8c1.9-.2,3.3-1.3,4.1-3.1,0-.2.2-.8.2-.8.1,0,.6,0,.9,0,1.1-.2,2-1.1,2.1-2.2,0-.7,0-2.4,0-3.1-.2-1-1.1-2-2.1-2.3ZM77.6,63.6c-.2.2-1,.6-1.2.6h-11l5.9-4.3c.2,0,.5-.4.6-.4.5-.2,3.7-.1,4.4,0,2,.2,2.9,2.8,1.3,4.2ZM41.7,61.3c-.1,1.3.4,2.7,1.3,3.6-3.7,2.3-8.6,1.2-10.8-2.5-3.7-6.2,2.3-13.6,9.1-11.3.6.2,3,1.5,3,2-.3.8-.3,1.7-.7,2.4h-10.7v1.9h10.6c.4.4-1.1,1.9-1.3,1.9h-7.4v1.9h6.8ZM45.7,59.3c.6,0,3.9-.1,4.4,0,.2,0,.4.4.6.4l5.9,4.3h-11c-2.6-.4-2.7-4.5.1-4.8ZM53.4,59.3h15.2l-7.6,5.5-7.6-5.5ZM46.2,66.1h12.9c.7,0,1.2,1,1.9.9.6,0,1.2-.9,1.8-1h12.7c1.2.1,1.2,1.8,0,1.9h-29.1c-1.1,0-1.3-1.6-.2-1.9ZM56.5,45.8c2.9-.2,8.9-.3,11.5.4,4.9,1.3,8.5,6.1,8.5,11.2h-30.9c0-6.1,4.8-11.2,10.9-11.6ZM36.8,22.3c0-.1.5-.7.7-.7h9v1.9h-7.1c-.1,0-.7.5-.7.7v9h-1.9v-10.9ZM22.4,39v-3.9h32.8v3.9H22.4ZM29,77.7l-3.6-36.7h26.8l-.4,4c-2.9,1.3-5.1,3.4-6.6,6.2-4.6-4.1-11.9-2.8-14.9,2.7-4,7.4,2.7,16,10.8,14,.9-.2,1.7-.6,2.5-.9-.2.3.3,1.3.2,1.3,0,0-1,.4-1.5.9-.9,1-.9,3.4-.7,4.7.2.9,1.1,1.8,2,2,.3,0,.9,0,1,0,0,0,.5,1.7.9,1.9h-16.5ZM72.9,77.7h-23.8c-1.1,0-2.6-1.4-2.6-2.5,0-.4,1.4-1.3,1.9-1.3.5,0,1.6,0,2.1,0,.8.2,1.2.8,1.8,1.2,1.5.9,4.2,1,5.7,0,.9-.5,1.1-1.2,2.3-1.3.5,0,1.3,0,1.9,0,.8.2,1.3.9,2,1.3,1.5.8,4,.8,5.5,0,.8-.5,1.1-1.2,2.2-1.3.6,0,1.5,0,2.1.1.4,0,1.6,1,1.6,1.2,0,1.1-1.5,2.5-2.6,2.5ZM78.2,73.7c-.8.8-2.2-.8-2.8-1.2-1.5-.9-4.2-.9-5.7,0-.6.4-1,1-1.7,1.2-.5.1-1.5.1-2.1,0-1-.1-1.3-.9-2.1-1.3-1-.6-2.3-.7-3.5-.6-2.8.2-2.8,2.3-5.9,1.9-1.1-.1-1.4-.8-2.2-1.3-1.5-.9-4.2-.9-5.7,0-.7.4-1.8,1.7-2.7,1.1-.3-.2-.3-2.4-.2-2.8,0-.5.4-.9.9-.9h33c.4,0,.8.3.9.7,0,.4,0,2.8-.1,3Z"/>
  <rect class="st0" x="57.1" y="47.7" width="1.9" height="1.9"/>
  <rect class="st0" x="62.9" y="47.7" width="1.9" height="1.9"/>
  <rect class="st0" x="54.2" y="51.6" width="1.9" height="1.9"/>
  <rect class="st0" x="60" y="51.6" width="1.9" height="1.9"/>
  <rect class="st0" x="65.8" y="51.6" width="1.9" height="1.9"/>
</svg>